<?xml version="1.0" encoding="utf-8" standalone="no"?>
<!DOCTYPE svg PUBLIC "-//W3C//DTD SVG 1.1//EN"
  "http://www.w3.org/Graphics/SVG/1.1/DTD/svg11.dtd">
<svg xmlns:xlink="http://www.w3.org/1999/xlink" width="864pt" height="432pt" viewBox="0 0 864 432" xmlns="http://www.w3.org/2000/svg" version="1.1">
 <metadata>
  <rdf:RDF xmlns:dc="http://purl.org/dc/elements/1.1/" xmlns:cc="http://creativecommons.org/ns#" xmlns:rdf="http://www.w3.org/1999/02/22-rdf-syntax-ns#">
   <cc:Work>
    <dc:type rdf:resource="http://purl.org/dc/dcmitype/StillImage"/>
    <dc:date>2026-02-14T04:21:04.151413</dc:date>
    <dc:format>image/svg+xml</dc:format>
    <dc:creator>
     <cc:Agent>
      <dc:title>Matplotlib v3.10.8, https://matplotlib.org/</dc:title>
     </cc:Agent>
    </dc:creator>
   </cc:Work>
  </rdf:RDF>
 </metadata>
 <defs>
  <style type="text/css">*{stroke-linejoin: round; stroke-linecap: butt}</style>
 </defs>
 <g id="figure_1">
  <g id="patch_1">
   <path d="M 0 432 
L 864 432 
L 864 0 
L 0 0 
z
" style="fill: #ffffff"/>
  </g>
  <g id="axes_1">
   <g id="patch_2">
    <path d="M 56.34 358.628473 
L 833.753368 358.628473 
L 833.753368 44.96 
L 56.34 44.96 
z
" style="fill: #ffffff"/>
   </g>
   <g id="matplotlib.axis_1">
    <g id="xtick_1">
     <g id="line2d_1">
      <path d="M 91.676971 358.628473 
L 91.676971 44.96 
" clip-path="url(#pe2c48e133f)" style="fill: none; stroke-dasharray: 3.7,1.6; stroke-dashoffset: 0; stroke: #cccccc; stroke-opacity: 0.6"/>
     </g>
     <g id="text_1">
      <!-- 2025-02 -->
      <g style="fill: #262626" transform="translate(79.416624 402.238199) rotate(-45) scale(0.11 -0.11)">
       <defs>
        <path id="ArialMT-32" d="M 3222 541 
L 3222 0 
L 194 0 
Q 188 203 259 391 
Q 375 700 629 1000 
Q 884 1300 1366 1694 
Q 2113 2306 2375 2664 
Q 2638 3022 2638 3341 
Q 2638 3675 2398 3904 
Q 2159 4134 1775 4134 
Q 1369 4134 1125 3890 
Q 881 3647 878 3216 
L 300 3275 
Q 359 3922 746 4261 
Q 1134 4600 1788 4600 
Q 2447 4600 2831 4234 
Q 3216 3869 3216 3328 
Q 3216 3053 3103 2787 
Q 2991 2522 2730 2228 
Q 2469 1934 1863 1422 
Q 1356 997 1212 845 
Q 1069 694 975 541 
L 3222 541 
z
" transform="scale(0.015625)"/>
        <path id="ArialMT-30" d="M 266 2259 
Q 266 3072 433 3567 
Q 600 4063 929 4331 
Q 1259 4600 1759 4600 
Q 2128 4600 2406 4451 
Q 2684 4303 2865 4023 
Q 3047 3744 3150 3342 
Q 3253 2941 3253 2259 
Q 3253 1453 3087 958 
Q 2922 463 2592 192 
Q 2263 -78 1759 -78 
Q 1097 -78 719 397 
Q 266 969 266 2259 
z
M 844 2259 
Q 844 1131 1108 757 
Q 1372 384 1759 384 
Q 2147 384 2411 759 
Q 2675 1134 2675 2259 
Q 2675 3391 2411 3762 
Q 2147 4134 1753 4134 
Q 1366 4134 1134 3806 
Q 844 3388 844 2259 
z
" transform="scale(0.015625)"/>
        <path id="ArialMT-35" d="M 266 1200 
L 856 1250 
Q 922 819 1161 601 
Q 1400 384 1738 384 
Q 2144 384 2425 690 
Q 2706 997 2706 1503 
Q 2706 1984 2436 2262 
Q 2166 2541 1728 2541 
Q 1456 2541 1237 2417 
Q 1019 2294 894 2097 
L 366 2166 
L 809 4519 
L 3088 4519 
L 3088 3981 
L 1259 3981 
L 1013 2750 
Q 1425 3038 1878 3038 
Q 2478 3038 2890 2622 
Q 3303 2206 3303 1553 
Q 3303 931 2941 478 
Q 2500 -78 1738 -78 
Q 1113 -78 717 272 
Q 322 622 266 1200 
z
" transform="scale(0.015625)"/>
        <path id="ArialMT-2d" d="M 203 1375 
L 203 1941 
L 1931 1941 
L 1931 1375 
L 203 1375 
z
" transform="scale(0.015625)"/>
       </defs>
       <use xlink:href="#ArialMT-32"/>
       <use xlink:href="#ArialMT-30" transform="translate(55.615234 0)"/>
       <use xlink:href="#ArialMT-32" transform="translate(111.230469 0)"/>
       <use xlink:href="#ArialMT-35" transform="translate(166.845703 0)"/>
       <use xlink:href="#ArialMT-2d" transform="translate(222.460938 0)"/>
       <use xlink:href="#ArialMT-30" transform="translate(255.761719 0)"/>
       <use xlink:href="#ArialMT-32" transform="translate(311.376953 0)"/>
      </g>
     </g>
    </g>
    <g id="xtick_2">
     <g id="line2d_2">
      <path d="M 230.059516 358.628473 
L 230.059516 44.96 
" clip-path="url(#pe2c48e133f)" style="fill: none; stroke-dasharray: 3.7,1.6; stroke-dashoffset: 0; stroke: #cccccc; stroke-opacity: 0.6"/>
     </g>
     <g id="text_2">
      <!-- 2025-03 -->
      <g style="fill: #262626" transform="translate(217.799168 402.238199) rotate(-45) scale(0.11 -0.11)">
       <defs>
        <path id="ArialMT-33" d="M 269 1209 
L 831 1284 
Q 928 806 1161 595 
Q 1394 384 1728 384 
Q 2125 384 2398 659 
Q 2672 934 2672 1341 
Q 2672 1728 2419 1979 
Q 2166 2231 1775 2231 
Q 1616 2231 1378 2169 
L 1441 2663 
Q 1497 2656 1531 2656 
Q 1891 2656 2178 2843 
Q 2466 3031 2466 3422 
Q 2466 3731 2256 3934 
Q 2047 4138 1716 4138 
Q 1388 4138 1169 3931 
Q 950 3725 888 3313 
L 325 3413 
Q 428 3978 793 4289 
Q 1159 4600 1703 4600 
Q 2078 4600 2393 4439 
Q 2709 4278 2876 4000 
Q 3044 3722 3044 3409 
Q 3044 3113 2884 2869 
Q 2725 2625 2413 2481 
Q 2819 2388 3044 2092 
Q 3269 1797 3269 1353 
Q 3269 753 2831 336 
Q 2394 -81 1725 -81 
Q 1122 -81 723 278 
Q 325 638 269 1209 
z
" transform="scale(0.015625)"/>
       </defs>
       <use xlink:href="#ArialMT-32"/>
       <use xlink:href="#ArialMT-30" transform="translate(55.615234 0)"/>
       <use xlink:href="#ArialMT-32" transform="translate(111.230469 0)"/>
       <use xlink:href="#ArialMT-35" transform="translate(166.845703 0)"/>
       <use xlink:href="#ArialMT-2d" transform="translate(222.460938 0)"/>
       <use xlink:href="#ArialMT-30" transform="translate(255.761719 0)"/>
       <use xlink:href="#ArialMT-33" transform="translate(311.376953 0)"/>
      </g>
     </g>
    </g>
    <g id="xtick_3">
     <g id="line2d_3">
      <path d="M 383.268762 358.628473 
L 383.268762 44.96 
" clip-path="url(#pe2c48e133f)" style="fill: none; stroke-dasharray: 3.7,1.6; stroke-dashoffset: 0; stroke: #cccccc; stroke-opacity: 0.6"/>
     </g>
     <g id="text_3">
      <!-- 2025-04 -->
      <g style="fill: #262626" transform="translate(371.008415 402.238199) rotate(-45) scale(0.11 -0.11)">
       <defs>
        <path id="ArialMT-34" d="M 2069 0 
L 2069 1097 
L 81 1097 
L 81 1613 
L 2172 4581 
L 2631 4581 
L 2631 1613 
L 3250 1613 
L 3250 1097 
L 2631 1097 
L 2631 0 
L 2069 0 
z
M 2069 1613 
L 2069 3678 
L 634 1613 
L 2069 1613 
z
" transform="scale(0.015625)"/>
       </defs>
       <use xlink:href="#ArialMT-32"/>
       <use xlink:href="#ArialMT-30" transform="translate(55.615234 0)"/>
       <use xlink:href="#ArialMT-32" transform="translate(111.230469 0)"/>
       <use xlink:href="#ArialMT-35" transform="translate(166.845703 0)"/>
       <use xlink:href="#ArialMT-2d" transform="translate(222.460938 0)"/>
       <use xlink:href="#ArialMT-30" transform="translate(255.761719 0)"/>
       <use xlink:href="#ArialMT-34" transform="translate(311.376953 0)"/>
      </g>
     </g>
    </g>
    <g id="xtick_4">
     <g id="line2d_4">
      <path d="M 531.535775 358.628473 
L 531.535775 44.96 
" clip-path="url(#pe2c48e133f)" style="fill: none; stroke-dasharray: 3.7,1.6; stroke-dashoffset: 0; stroke: #cccccc; stroke-opacity: 0.6"/>
     </g>
     <g id="text_4">
      <!-- 2025-05 -->
      <g style="fill: #262626" transform="translate(519.275427 402.238199) rotate(-45) scale(0.11 -0.11)">
       <use xlink:href="#ArialMT-32"/>
       <use xlink:href="#ArialMT-30" transform="translate(55.615234 0)"/>
       <use xlink:href="#ArialMT-32" transform="translate(111.230469 0)"/>
       <use xlink:href="#ArialMT-35" transform="translate(166.845703 0)"/>
       <use xlink:href="#ArialMT-2d" transform="translate(222.460938 0)"/>
       <use xlink:href="#ArialMT-30" transform="translate(255.761719 0)"/>
       <use xlink:href="#ArialMT-35" transform="translate(311.376953 0)"/>
      </g>
     </g>
    </g>
    <g id="xtick_5">
     <g id="line2d_5">
      <path d="M 684.745021 358.628473 
L 684.745021 44.96 
" clip-path="url(#pe2c48e133f)" style="fill: none; stroke-dasharray: 3.7,1.6; stroke-dashoffset: 0; stroke: #cccccc; stroke-opacity: 0.6"/>
     </g>
     <g id="text_5">
      <!-- 2025-06 -->
      <g style="fill: #262626" transform="translate(672.484673 402.238199) rotate(-45) scale(0.11 -0.11)">
       <defs>
        <path id="ArialMT-36" d="M 3184 3459 
L 2625 3416 
Q 2550 3747 2413 3897 
Q 2184 4138 1850 4138 
Q 1581 4138 1378 3988 
Q 1113 3794 959 3422 
Q 806 3050 800 2363 
Q 1003 2672 1297 2822 
Q 1591 2972 1913 2972 
Q 2475 2972 2870 2558 
Q 3266 2144 3266 1488 
Q 3266 1056 3080 686 
Q 2894 316 2569 119 
Q 2244 -78 1831 -78 
Q 1128 -78 684 439 
Q 241 956 241 2144 
Q 241 3472 731 4075 
Q 1159 4600 1884 4600 
Q 2425 4600 2770 4297 
Q 3116 3994 3184 3459 
z
M 888 1484 
Q 888 1194 1011 928 
Q 1134 663 1356 523 
Q 1578 384 1822 384 
Q 2178 384 2434 671 
Q 2691 959 2691 1453 
Q 2691 1928 2437 2201 
Q 2184 2475 1800 2475 
Q 1419 2475 1153 2201 
Q 888 1928 888 1484 
z
" transform="scale(0.015625)"/>
       </defs>
       <use xlink:href="#ArialMT-32"/>
       <use xlink:href="#ArialMT-30" transform="translate(55.615234 0)"/>
       <use xlink:href="#ArialMT-32" transform="translate(111.230469 0)"/>
       <use xlink:href="#ArialMT-35" transform="translate(166.845703 0)"/>
       <use xlink:href="#ArialMT-2d" transform="translate(222.460938 0)"/>
       <use xlink:href="#ArialMT-30" transform="translate(255.761719 0)"/>
       <use xlink:href="#ArialMT-36" transform="translate(311.376953 0)"/>
      </g>
     </g>
    </g>
    <g id="xtick_6">
     <g id="line2d_6">
      <path d="M 833.012033 358.628473 
L 833.012033 44.96 
" clip-path="url(#pe2c48e133f)" style="fill: none; stroke-dasharray: 3.7,1.6; stroke-dashoffset: 0; stroke: #cccccc; stroke-opacity: 0.6"/>
     </g>
     <g id="text_6">
      <!-- 2025-07 -->
      <g style="fill: #262626" transform="translate(820.751685 402.238199) rotate(-45) scale(0.11 -0.11)">
       <defs>
        <path id="ArialMT-37" d="M 303 3981 
L 303 4522 
L 3269 4522 
L 3269 4084 
Q 2831 3619 2401 2847 
Q 1972 2075 1738 1259 
Q 1569 684 1522 0 
L 944 0 
Q 953 541 1156 1306 
Q 1359 2072 1739 2783 
Q 2119 3494 2547 3981 
L 303 3981 
z
" transform="scale(0.015625)"/>
       </defs>
       <use xlink:href="#ArialMT-32"/>
       <use xlink:href="#ArialMT-30" transform="translate(55.615234 0)"/>
       <use xlink:href="#ArialMT-32" transform="translate(111.230469 0)"/>
       <use xlink:href="#ArialMT-35" transform="translate(166.845703 0)"/>
       <use xlink:href="#ArialMT-2d" transform="translate(222.460938 0)"/>
       <use xlink:href="#ArialMT-30" transform="translate(255.761719 0)"/>
       <use xlink:href="#ArialMT-37" transform="translate(311.376953 0)"/>
      </g>
     </g>
    </g>
    <g id="text_7">
     <!-- Date -->
     <g style="fill: #262626" transform="translate(432.373559 416.373486) scale(0.12 -0.12)">
      <defs>
       <path id="ArialMT-44" d="M 494 0 
L 494 4581 
L 2072 4581 
Q 2606 4581 2888 4516 
Q 3281 4425 3559 4188 
Q 3922 3881 4101 3404 
Q 4281 2928 4281 2316 
Q 4281 1794 4159 1391 
Q 4038 988 3847 723 
Q 3656 459 3429 307 
Q 3203 156 2883 78 
Q 2563 0 2147 0 
L 494 0 
z
M 1100 541 
L 2078 541 
Q 2531 541 2789 625 
Q 3047 709 3200 863 
Q 3416 1078 3536 1442 
Q 3656 1806 3656 2325 
Q 3656 3044 3420 3430 
Q 3184 3816 2847 3947 
Q 2603 4041 2063 4041 
L 1100 4041 
L 1100 541 
z
" transform="scale(0.015625)"/>
       <path id="ArialMT-61" d="M 2588 409 
Q 2275 144 1986 34 
Q 1697 -75 1366 -75 
Q 819 -75 525 192 
Q 231 459 231 875 
Q 231 1119 342 1320 
Q 453 1522 633 1644 
Q 813 1766 1038 1828 
Q 1203 1872 1538 1913 
Q 2219 1994 2541 2106 
Q 2544 2222 2544 2253 
Q 2544 2597 2384 2738 
Q 2169 2928 1744 2928 
Q 1347 2928 1158 2789 
Q 969 2650 878 2297 
L 328 2372 
Q 403 2725 575 2942 
Q 747 3159 1072 3276 
Q 1397 3394 1825 3394 
Q 2250 3394 2515 3294 
Q 2781 3194 2906 3042 
Q 3031 2891 3081 2659 
Q 3109 2516 3109 2141 
L 3109 1391 
Q 3109 606 3145 398 
Q 3181 191 3288 0 
L 2700 0 
Q 2613 175 2588 409 
z
M 2541 1666 
Q 2234 1541 1622 1453 
Q 1275 1403 1131 1340 
Q 988 1278 909 1158 
Q 831 1038 831 891 
Q 831 666 1001 516 
Q 1172 366 1500 366 
Q 1825 366 2078 508 
Q 2331 650 2450 897 
Q 2541 1088 2541 1459 
L 2541 1666 
z
" transform="scale(0.015625)"/>
       <path id="ArialMT-74" d="M 1650 503 
L 1731 6 
Q 1494 -44 1306 -44 
Q 1000 -44 831 53 
Q 663 150 594 308 
Q 525 466 525 972 
L 525 2881 
L 113 2881 
L 113 3319 
L 525 3319 
L 525 4141 
L 1084 4478 
L 1084 3319 
L 1650 3319 
L 1650 2881 
L 1084 2881 
L 1084 941 
Q 1084 700 1114 631 
Q 1144 563 1211 522 
Q 1278 481 1403 481 
Q 1497 481 1650 503 
z
" transform="scale(0.015625)"/>
       <path id="ArialMT-65" d="M 2694 1069 
L 3275 997 
Q 3138 488 2766 206 
Q 2394 -75 1816 -75 
Q 1088 -75 661 373 
Q 234 822 234 1631 
Q 234 2469 665 2931 
Q 1097 3394 1784 3394 
Q 2450 3394 2872 2941 
Q 3294 2488 3294 1666 
Q 3294 1616 3291 1516 
L 816 1516 
Q 847 969 1125 678 
Q 1403 388 1819 388 
Q 2128 388 2347 550 
Q 2566 713 2694 1069 
z
M 847 1978 
L 2700 1978 
Q 2663 2397 2488 2606 
Q 2219 2931 1791 2931 
Q 1403 2931 1139 2672 
Q 875 2413 847 1978 
z
" transform="scale(0.015625)"/>
      </defs>
      <use xlink:href="#ArialMT-44"/>
      <use xlink:href="#ArialMT-61" transform="translate(72.216797 0)"/>
      <use xlink:href="#ArialMT-74" transform="translate(127.832031 0)"/>
      <use xlink:href="#ArialMT-65" transform="translate(155.615234 0)"/>
     </g>
    </g>
   </g>
   <g id="matplotlib.axis_2">
    <g id="ytick_1">
     <g id="line2d_7">
      <path d="M 56.34 344.370815 
L 833.753368 344.370815 
" clip-path="url(#pe2c48e133f)" style="fill: none; stroke-dasharray: 3.7,1.6; stroke-dashoffset: 0; stroke: #cccccc; stroke-opacity: 0.6"/>
     </g>
     <g id="text_8">
      <!-- 0 -->
      <g style="fill: #262626" transform="translate(40.722969 348.307612) scale(0.11 -0.11)">
       <use xlink:href="#ArialMT-30"/>
      </g>
     </g>
    </g>
    <g id="ytick_2">
     <g id="line2d_8">
      <path d="M 56.34 308.333386 
L 833.753368 308.333386 
" clip-path="url(#pe2c48e133f)" style="fill: none; stroke-dasharray: 3.7,1.6; stroke-dashoffset: 0; stroke: #cccccc; stroke-opacity: 0.6"/>
     </g>
     <g id="text_9">
      <!-- 25 -->
      <g style="fill: #262626" transform="translate(34.605937 312.270183) scale(0.11 -0.11)">
       <use xlink:href="#ArialMT-32"/>
       <use xlink:href="#ArialMT-35" transform="translate(55.615234 0)"/>
      </g>
     </g>
    </g>
    <g id="ytick_3">
     <g id="line2d_9">
      <path d="M 56.34 272.295957 
L 833.753368 272.295957 
" clip-path="url(#pe2c48e133f)" style="fill: none; stroke-dasharray: 3.7,1.6; stroke-dashoffset: 0; stroke: #cccccc; stroke-opacity: 0.6"/>
     </g>
     <g id="text_10">
      <!-- 50 -->
      <g style="fill: #262626" transform="translate(34.605937 276.232754) scale(0.11 -0.11)">
       <use xlink:href="#ArialMT-35"/>
       <use xlink:href="#ArialMT-30" transform="translate(55.615234 0)"/>
      </g>
     </g>
    </g>
    <g id="ytick_4">
     <g id="line2d_10">
      <path d="M 56.34 236.258528 
L 833.753368 236.258528 
" clip-path="url(#pe2c48e133f)" style="fill: none; stroke-dasharray: 3.7,1.6; stroke-dashoffset: 0; stroke: #cccccc; stroke-opacity: 0.6"/>
     </g>
     <g id="text_11">
      <!-- 75 -->
      <g style="fill: #262626" transform="translate(34.605937 240.195325) scale(0.11 -0.11)">
       <use xlink:href="#ArialMT-37"/>
       <use xlink:href="#ArialMT-35" transform="translate(55.615234 0)"/>
      </g>
     </g>
    </g>
    <g id="ytick_5">
     <g id="line2d_11">
      <path d="M 56.34 200.221099 
L 833.753368 200.221099 
" clip-path="url(#pe2c48e133f)" style="fill: none; stroke-dasharray: 3.7,1.6; stroke-dashoffset: 0; stroke: #cccccc; stroke-opacity: 0.6"/>
     </g>
     <g id="text_12">
      <!-- 100 -->
      <g style="fill: #262626" transform="translate(28.488906 204.157896) scale(0.11 -0.11)">
       <defs>
        <path id="ArialMT-31" d="M 2384 0 
L 1822 0 
L 1822 3584 
Q 1619 3391 1289 3197 
Q 959 3003 697 2906 
L 697 3450 
Q 1169 3672 1522 3987 
Q 1875 4303 2022 4600 
L 2384 4600 
L 2384 0 
z
" transform="scale(0.015625)"/>
       </defs>
       <use xlink:href="#ArialMT-31"/>
       <use xlink:href="#ArialMT-30" transform="translate(55.615234 0)"/>
       <use xlink:href="#ArialMT-30" transform="translate(111.230469 0)"/>
      </g>
     </g>
    </g>
    <g id="ytick_6">
     <g id="line2d_12">
      <path d="M 56.34 164.18367 
L 833.753368 164.18367 
" clip-path="url(#pe2c48e133f)" style="fill: none; stroke-dasharray: 3.7,1.6; stroke-dashoffset: 0; stroke: #cccccc; stroke-opacity: 0.6"/>
     </g>
     <g id="text_13">
      <!-- 125 -->
      <g style="fill: #262626" transform="translate(28.488906 168.120467) scale(0.11 -0.11)">
       <use xlink:href="#ArialMT-31"/>
       <use xlink:href="#ArialMT-32" transform="translate(55.615234 0)"/>
       <use xlink:href="#ArialMT-35" transform="translate(111.230469 0)"/>
      </g>
     </g>
    </g>
    <g id="ytick_7">
     <g id="line2d_13">
      <path d="M 56.34 128.146241 
L 833.753368 128.146241 
" clip-path="url(#pe2c48e133f)" style="fill: none; stroke-dasharray: 3.7,1.6; stroke-dashoffset: 0; stroke: #cccccc; stroke-opacity: 0.6"/>
     </g>
     <g id="text_14">
      <!-- 150 -->
      <g style="fill: #262626" transform="translate(28.488906 132.083038) scale(0.11 -0.11)">
       <use xlink:href="#ArialMT-31"/>
       <use xlink:href="#ArialMT-35" transform="translate(55.615234 0)"/>
       <use xlink:href="#ArialMT-30" transform="translate(111.230469 0)"/>
      </g>
     </g>
    </g>
    <g id="ytick_8">
     <g id="line2d_14">
      <path d="M 56.34 92.108812 
L 833.753368 92.108812 
" clip-path="url(#pe2c48e133f)" style="fill: none; stroke-dasharray: 3.7,1.6; stroke-dashoffset: 0; stroke: #cccccc; stroke-opacity: 0.6"/>
     </g>
     <g id="text_15">
      <!-- 175 -->
      <g style="fill: #262626" transform="translate(28.488906 96.045608) scale(0.11 -0.11)">
       <use xlink:href="#ArialMT-31"/>
       <use xlink:href="#ArialMT-37" transform="translate(55.615234 0)"/>
       <use xlink:href="#ArialMT-35" transform="translate(111.230469 0)"/>
      </g>
     </g>
    </g>
    <g id="ytick_9">
     <g id="line2d_15">
      <path d="M 56.34 56.071383 
L 833.753368 56.071383 
" clip-path="url(#pe2c48e133f)" style="fill: none; stroke-dasharray: 3.7,1.6; stroke-dashoffset: 0; stroke: #cccccc; stroke-opacity: 0.6"/>
     </g>
     <g id="text_16">
      <!-- 200 -->
      <g style="fill: #262626" transform="translate(28.488906 60.008179) scale(0.11 -0.11)">
       <use xlink:href="#ArialMT-32"/>
       <use xlink:href="#ArialMT-30" transform="translate(55.615234 0)"/>
       <use xlink:href="#ArialMT-30" transform="translate(111.230469 0)"/>
      </g>
     </g>
    </g>
    <g id="text_17">
     <!-- Cumulative Revenue (₹M) -->
     <g style="fill: #262626" transform="translate(21.963281 272.647674) rotate(-90) scale(0.12 -0.12)">
      <defs>
       <path id="ArialMT-43" d="M 3763 1606 
L 4369 1453 
Q 4178 706 3683 314 
Q 3188 -78 2472 -78 
Q 1731 -78 1267 223 
Q 803 525 561 1097 
Q 319 1669 319 2325 
Q 319 3041 592 3573 
Q 866 4106 1370 4382 
Q 1875 4659 2481 4659 
Q 3169 4659 3637 4309 
Q 4106 3959 4291 3325 
L 3694 3184 
Q 3534 3684 3231 3912 
Q 2928 4141 2469 4141 
Q 1941 4141 1586 3887 
Q 1231 3634 1087 3207 
Q 944 2781 944 2328 
Q 944 1744 1114 1308 
Q 1284 872 1643 656 
Q 2003 441 2422 441 
Q 2931 441 3284 734 
Q 3638 1028 3763 1606 
z
" transform="scale(0.015625)"/>
       <path id="ArialMT-75" d="M 2597 0 
L 2597 488 
Q 2209 -75 1544 -75 
Q 1250 -75 995 37 
Q 741 150 617 320 
Q 494 491 444 738 
Q 409 903 409 1263 
L 409 3319 
L 972 3319 
L 972 1478 
Q 972 1038 1006 884 
Q 1059 663 1231 536 
Q 1403 409 1656 409 
Q 1909 409 2131 539 
Q 2353 669 2445 892 
Q 2538 1116 2538 1541 
L 2538 3319 
L 3100 3319 
L 3100 0 
L 2597 0 
z
" transform="scale(0.015625)"/>
       <path id="ArialMT-6d" d="M 422 0 
L 422 3319 
L 925 3319 
L 925 2853 
Q 1081 3097 1340 3245 
Q 1600 3394 1931 3394 
Q 2300 3394 2536 3241 
Q 2772 3088 2869 2813 
Q 3263 3394 3894 3394 
Q 4388 3394 4653 3120 
Q 4919 2847 4919 2278 
L 4919 0 
L 4359 0 
L 4359 2091 
Q 4359 2428 4304 2576 
Q 4250 2725 4106 2815 
Q 3963 2906 3769 2906 
Q 3419 2906 3187 2673 
Q 2956 2441 2956 1928 
L 2956 0 
L 2394 0 
L 2394 2156 
Q 2394 2531 2256 2718 
Q 2119 2906 1806 2906 
Q 1569 2906 1367 2781 
Q 1166 2656 1075 2415 
Q 984 2175 984 1722 
L 984 0 
L 422 0 
z
" transform="scale(0.015625)"/>
       <path id="ArialMT-6c" d="M 409 0 
L 409 4581 
L 972 4581 
L 972 0 
L 409 0 
z
" transform="scale(0.015625)"/>
       <path id="ArialMT-69" d="M 425 3934 
L 425 4581 
L 988 4581 
L 988 3934 
L 425 3934 
z
M 425 0 
L 425 3319 
L 988 3319 
L 988 0 
L 425 0 
z
" transform="scale(0.015625)"/>
       <path id="ArialMT-76" d="M 1344 0 
L 81 3319 
L 675 3319 
L 1388 1331 
Q 1503 1009 1600 663 
Q 1675 925 1809 1294 
L 2547 3319 
L 3125 3319 
L 1869 0 
L 1344 0 
z
" transform="scale(0.015625)"/>
       <path id="ArialMT-20" transform="scale(0.015625)"/>
       <path id="ArialMT-52" d="M 503 0 
L 503 4581 
L 2534 4581 
Q 3147 4581 3465 4457 
Q 3784 4334 3975 4021 
Q 4166 3709 4166 3331 
Q 4166 2844 3850 2509 
Q 3534 2175 2875 2084 
Q 3116 1969 3241 1856 
Q 3506 1613 3744 1247 
L 4541 0 
L 3778 0 
L 3172 953 
Q 2906 1366 2734 1584 
Q 2563 1803 2427 1890 
Q 2291 1978 2150 2013 
Q 2047 2034 1813 2034 
L 1109 2034 
L 1109 0 
L 503 0 
z
M 1109 2559 
L 2413 2559 
Q 2828 2559 3062 2645 
Q 3297 2731 3419 2920 
Q 3541 3109 3541 3331 
Q 3541 3656 3305 3865 
Q 3069 4075 2559 4075 
L 1109 4075 
L 1109 2559 
z
" transform="scale(0.015625)"/>
       <path id="ArialMT-6e" d="M 422 0 
L 422 3319 
L 928 3319 
L 928 2847 
Q 1294 3394 1984 3394 
Q 2284 3394 2536 3286 
Q 2788 3178 2913 3003 
Q 3038 2828 3088 2588 
Q 3119 2431 3119 2041 
L 3119 0 
L 2556 0 
L 2556 2019 
Q 2556 2363 2490 2533 
Q 2425 2703 2258 2804 
Q 2091 2906 1866 2906 
Q 1506 2906 1245 2678 
Q 984 2450 984 1813 
L 984 0 
L 422 0 
z
" transform="scale(0.015625)"/>
       <path id="ArialMT-28" d="M 1497 -1347 
Q 1031 -759 709 28 
Q 388 816 388 1659 
Q 388 2403 628 3084 
Q 909 3875 1497 4659 
L 1900 4659 
Q 1522 4009 1400 3731 
Q 1209 3300 1100 2831 
Q 966 2247 966 1656 
Q 966 153 1900 -1347 
L 1497 -1347 
z
" transform="scale(0.015625)"/>
       <path id="ArialMT-20b9" d="M 800 0 
L 800 4000 
L 4000 4000 
L 4000 0 
L 800 0 
z
M 900 100 
L 3900 100 
L 3900 3900 
L 900 3900 
L 900 100 
z
" transform="scale(0.015625)"/>
       <path id="ArialMT-4d" d="M 475 0 
L 475 4581 
L 1388 4581 
L 2472 1338 
Q 2622 884 2691 659 
Q 2769 909 2934 1394 
L 4031 4581 
L 4847 4581 
L 4847 0 
L 4263 0 
L 4263 3834 
L 2931 0 
L 2384 0 
L 1059 3900 
L 1059 0 
L 475 0 
z
" transform="scale(0.015625)"/>
       <path id="ArialMT-29" d="M 791 -1347 
L 388 -1347 
Q 1322 153 1322 1656 
Q 1322 2244 1188 2822 
Q 1081 3291 891 3722 
Q 769 4003 388 4659 
L 791 4659 
Q 1378 3875 1659 3084 
Q 1900 2403 1900 1659 
Q 1900 816 1576 28 
Q 1253 -759 791 -1347 
z
" transform="scale(0.015625)"/>
      </defs>
      <use xlink:href="#ArialMT-43"/>
      <use xlink:href="#ArialMT-75" transform="translate(72.216797 0)"/>
      <use xlink:href="#ArialMT-6d" transform="translate(127.832031 0)"/>
      <use xlink:href="#ArialMT-75" transform="translate(211.132812 0)"/>
      <use xlink:href="#ArialMT-6c" transform="translate(266.748047 0)"/>
      <use xlink:href="#ArialMT-61" transform="translate(288.964844 0)"/>
      <use xlink:href="#ArialMT-74" transform="translate(344.580078 0)"/>
      <use xlink:href="#ArialMT-69" transform="translate(372.363281 0)"/>
      <use xlink:href="#ArialMT-76" transform="translate(394.580078 0)"/>
      <use xlink:href="#ArialMT-65" transform="translate(444.580078 0)"/>
      <use xlink:href="#ArialMT-20" transform="translate(500.195312 0)"/>
      <use xlink:href="#ArialMT-52" transform="translate(527.978516 0)"/>
      <use xlink:href="#ArialMT-65" transform="translate(600.195312 0)"/>
      <use xlink:href="#ArialMT-76" transform="translate(655.810547 0)"/>
      <use xlink:href="#ArialMT-65" transform="translate(705.810547 0)"/>
      <use xlink:href="#ArialMT-6e" transform="translate(761.425781 0)"/>
      <use xlink:href="#ArialMT-75" transform="translate(817.041016 0)"/>
      <use xlink:href="#ArialMT-65" transform="translate(872.65625 0)"/>
      <use xlink:href="#ArialMT-20" transform="translate(928.271484 0)"/>
      <use xlink:href="#ArialMT-28" transform="translate(956.054688 0)"/>
      <use xlink:href="#ArialMT-20b9" transform="translate(989.355469 0)"/>
      <use xlink:href="#ArialMT-4d" transform="translate(1064.355469 0)"/>
      <use xlink:href="#ArialMT-29" transform="translate(1147.65625 0)"/>
     </g>
    </g>
   </g>
   <g id="FillBetweenPolyCollection_1">
    <defs>
     <path id="me889a15b6a" d="M 91.676971 -87.629185 
L 91.676971 -89.195839 
L 96.619205 -89.656001 
L 101.561439 -91.260329 
L 106.503673 -93.040807 
L 111.445906 -94.88784 
L 116.38814 -96.894979 
L 121.330374 -98.497033 
L 126.272608 -99.703598 
L 131.214841 -100.215235 
L 136.157075 -102.372549 
L 141.099309 -104.924356 
L 146.041542 -106.610375 
L 150.983776 -108.681424 
L 155.92601 -110.28202 
L 160.868244 -111.710831 
L 165.810477 -111.56851 
L 170.752711 -113.369009 
L 175.694945 -115.693026 
L 180.637179 -117.928709 
L 185.579412 -120.120488 
L 190.521646 -123.164528 
L 195.46388 -125.922712 
L 200.406114 -127.16023 
L 205.348347 -129.453476 
L 210.290581 -131.08084 
L 215.232815 -132.448882 
L 220.175049 -133.852517 
L 225.117282 -135.700553 
L 230.059516 -137.165064 
L 235.00175 -137.855647 
L 239.943984 -139.622088 
L 244.886217 -140.988727 
L 249.828451 -143.218324 
L 254.770685 -144.480662 
L 259.712919 -146.459025 
L 264.655152 -147.886765 
L 269.597386 -149.351152 
L 274.53962 -150.405692 
L 279.481854 -151.781261 
L 284.424087 -153.412711 
L 289.366321 -154.766982 
L 294.308555 -155.421365 
L 299.250789 -156.433732 
L 304.193022 -157.278638 
L 309.135256 -158.149856 
L 314.07749 -158.837157 
L 319.019724 -160.421645 
L 323.961957 -162.368163 
L 328.904191 -164.811288 
L 333.846425 -167.2784 
L 338.788659 -167.330935 
L 343.730892 -167.97726 
L 348.673126 -168.800254 
L 353.61536 -170.116336 
L 358.557594 -171.855212 
L 363.499827 -173.378496 
L 368.442061 -177.174876 
L 373.384295 -178.43182 
L 378.326529 -180.39324 
L 383.268762 -182.683218 
L 388.210996 -183.530653 
L 393.15323 -186.017873 
L 403.037697 -186.880114 
L 407.979931 -188.021104 
L 412.922165 -190.482967 
L 417.864399 -192.289216 
L 422.806632 -194.753383 
L 427.748866 -200.747302 
L 432.6911 -206.897235 
L 437.633333 -208.024974 
L 442.575567 -208.792706 
L 447.517801 -211.700827 
L 452.460035 -212.897737 
L 457.402268 -214.092375 
L 462.344502 -216.69527 
L 467.286736 -221.080461 
L 472.22897 -223.893075 
L 477.171203 -226.594915 
L 482.113437 -229.397866 
L 487.055671 -231.958447 
L 491.997905 -233.485785 
L 496.940138 -235.866396 
L 501.882372 -238.19352 
L 506.824606 -240.484673 
L 511.76684 -245.126574 
L 516.709073 -248.457841 
L 521.651307 -251.336238 
L 526.593541 -254.613505 
L 531.535775 -257.413982 
L 536.478008 -261.483101 
L 541.420242 -264.122347 
L 546.362476 -265.768513 
L 551.30471 -268.568912 
L 556.246943 -271.87414 
L 561.189177 -273.258132 
L 566.131411 -274.376479 
L 571.073645 -275.635125 
L 576.015878 -276.675442 
L 580.958112 -278.697319 
L 585.900346 -280.904379 
L 590.84258 -283.428182 
L 595.784813 -285.764711 
L 600.727047 -287.640127 
L 605.669281 -291.240413 
L 610.611515 -295.34044 
L 615.553748 -298.424546 
L 620.495982 -300.038945 
L 625.438216 -301.927405 
L 630.38045 -305.758736 
L 635.322683 -310.283978 
L 640.264917 -311.285413 
L 645.207151 -312.957482 
L 650.149385 -315.406933 
L 655.091618 -317.403868 
L 660.033852 -319.012481 
L 664.976086 -320.581138 
L 669.91832 -322.257556 
L 674.860553 -324.174735 
L 679.802787 -325.586176 
L 684.745021 -326.180361 
L 689.687255 -327.225264 
L 694.629488 -328.426109 
L 699.571722 -330.193584 
L 704.513956 -332.028591 
L 709.45619 -335.391483 
L 714.398423 -338.048222 
L 719.340657 -340.408548 
L 724.282891 -342.601496 
L 729.225124 -345.063186 
L 734.167358 -347.880345 
L 739.109592 -350.260952 
L 744.051826 -353.332365 
L 748.994059 -357.233938 
L 753.936293 -359.785244 
L 758.878527 -362.855788 
L 763.820761 -366.371215 
L 768.762994 -367.48702 
L 773.705228 -367.812587 
L 778.647462 -368.702545 
L 783.589696 -369.229857 
L 788.531929 -369.927372 
L 793.474163 -371.806356 
L 798.416397 -372.782342 
L 798.416397 -87.629185 
L 798.416397 -87.629185 
L 793.474163 -87.629185 
L 788.531929 -87.629185 
L 783.589696 -87.629185 
L 778.647462 -87.629185 
L 773.705228 -87.629185 
L 768.762994 -87.629185 
L 763.820761 -87.629185 
L 758.878527 -87.629185 
L 753.936293 -87.629185 
L 748.994059 -87.629185 
L 744.051826 -87.629185 
L 739.109592 -87.629185 
L 734.167358 -87.629185 
L 729.225124 -87.629185 
L 724.282891 -87.629185 
L 719.340657 -87.629185 
L 714.398423 -87.629185 
L 709.45619 -87.629185 
L 704.513956 -87.629185 
L 699.571722 -87.629185 
L 694.629488 -87.629185 
L 689.687255 -87.629185 
L 684.745021 -87.629185 
L 679.802787 -87.629185 
L 674.860553 -87.629185 
L 669.91832 -87.629185 
L 664.976086 -87.629185 
L 660.033852 -87.629185 
L 655.091618 -87.629185 
L 650.149385 -87.629185 
L 645.207151 -87.629185 
L 640.264917 -87.629185 
L 635.322683 -87.629185 
L 630.38045 -87.629185 
L 625.438216 -87.629185 
L 620.495982 -87.629185 
L 615.553748 -87.629185 
L 610.611515 -87.629185 
L 605.669281 -87.629185 
L 600.727047 -87.629185 
L 595.784813 -87.629185 
L 590.84258 -87.629185 
L 585.900346 -87.629185 
L 580.958112 -87.629185 
L 576.015878 -87.629185 
L 571.073645 -87.629185 
L 566.131411 -87.629185 
L 561.189177 -87.629185 
L 556.246943 -87.629185 
L 551.30471 -87.629185 
L 546.362476 -87.629185 
L 541.420242 -87.629185 
L 536.478008 -87.629185 
L 531.535775 -87.629185 
L 526.593541 -87.629185 
L 521.651307 -87.629185 
L 516.709073 -87.629185 
L 511.76684 -87.629185 
L 506.824606 -87.629185 
L 501.882372 -87.629185 
L 496.940138 -87.629185 
L 491.997905 -87.629185 
L 487.055671 -87.629185 
L 482.113437 -87.629185 
L 477.171203 -87.629185 
L 472.22897 -87.629185 
L 467.286736 -87.629185 
L 462.344502 -87.629185 
L 457.402268 -87.629185 
L 452.460035 -87.629185 
L 447.517801 -87.629185 
L 442.575567 -87.629185 
L 437.633333 -87.629185 
L 432.6911 -87.629185 
L 427.748866 -87.629185 
L 422.806632 -87.629185 
L 417.864399 -87.629185 
L 412.922165 -87.629185 
L 407.979931 -87.629185 
L 403.037697 -87.629185 
L 393.15323 -87.629185 
L 388.210996 -87.629185 
L 383.268762 -87.629185 
L 378.326529 -87.629185 
L 373.384295 -87.629185 
L 368.442061 -87.629185 
L 363.499827 -87.629185 
L 358.557594 -87.629185 
L 353.61536 -87.629185 
L 348.673126 -87.629185 
L 343.730892 -87.629185 
L 338.788659 -87.629185 
L 333.846425 -87.629185 
L 328.904191 -87.629185 
L 323.961957 -87.629185 
L 319.019724 -87.629185 
L 314.07749 -87.629185 
L 309.135256 -87.629185 
L 304.193022 -87.629185 
L 299.250789 -87.629185 
L 294.308555 -87.629185 
L 289.366321 -87.629185 
L 284.424087 -87.629185 
L 279.481854 -87.629185 
L 274.53962 -87.629185 
L 269.597386 -87.629185 
L 264.655152 -87.629185 
L 259.712919 -87.629185 
L 254.770685 -87.629185 
L 249.828451 -87.629185 
L 244.886217 -87.629185 
L 239.943984 -87.629185 
L 235.00175 -87.629185 
L 230.059516 -87.629185 
L 225.117282 -87.629185 
L 220.175049 -87.629185 
L 215.232815 -87.629185 
L 210.290581 -87.629185 
L 205.348347 -87.629185 
L 200.406114 -87.629185 
L 195.46388 -87.629185 
L 190.521646 -87.629185 
L 185.579412 -87.629185 
L 180.637179 -87.629185 
L 175.694945 -87.629185 
L 170.752711 -87.629185 
L 165.810477 -87.629185 
L 160.868244 -87.629185 
L 155.92601 -87.629185 
L 150.983776 -87.629185 
L 146.041542 -87.629185 
L 141.099309 -87.629185 
L 136.157075 -87.629185 
L 131.214841 -87.629185 
L 126.272608 -87.629185 
L 121.330374 -87.629185 
L 116.38814 -87.629185 
L 111.445906 -87.629185 
L 106.503673 -87.629185 
L 101.561439 -87.629185 
L 96.619205 -87.629185 
L 91.676971 -87.629185 
z
" style="stroke: #2ecc71; stroke-opacity: 0.15"/>
    </defs>
    <g clip-path="url(#pe2c48e133f)">
     <use xlink:href="#me889a15b6a" x="0" y="432" style="fill: #2ecc71; fill-opacity: 0.15; stroke: #2ecc71; stroke-opacity: 0.15"/>
    </g>
   </g>
   <g id="line2d_16">
    <path d="M 91.676971 342.804161 
L 96.619205 342.343999 
L 101.561439 340.739671 
L 111.445906 337.11216 
L 116.38814 335.105021 
L 121.330374 333.502967 
L 126.272608 332.296402 
L 131.214841 331.784765 
L 136.157075 329.627451 
L 141.099309 327.075644 
L 146.041542 325.389625 
L 150.983776 323.318576 
L 155.92601 321.71798 
L 160.868244 320.289169 
L 165.810477 320.43149 
L 170.752711 318.630991 
L 180.637179 314.071291 
L 185.579412 311.879512 
L 190.521646 308.835472 
L 195.46388 306.077288 
L 200.406114 304.83977 
L 205.348347 302.546524 
L 210.290581 300.91916 
L 220.175049 298.147483 
L 225.117282 296.299447 
L 230.059516 294.834936 
L 235.00175 294.144353 
L 239.943984 292.377912 
L 244.886217 291.011273 
L 249.828451 288.781676 
L 254.770685 287.519338 
L 259.712919 285.540975 
L 269.597386 282.648848 
L 274.53962 281.594308 
L 279.481854 280.218739 
L 284.424087 278.587289 
L 289.366321 277.233018 
L 294.308555 276.578635 
L 299.250789 275.566268 
L 309.135256 273.850144 
L 314.07749 273.162843 
L 319.019724 271.578355 
L 323.961957 269.631837 
L 333.846425 264.7216 
L 338.788659 264.669065 
L 343.730892 264.02274 
L 348.673126 263.199746 
L 353.61536 261.883664 
L 358.557594 260.144788 
L 363.499827 258.621504 
L 368.442061 254.825124 
L 373.384295 253.56818 
L 378.326529 251.60676 
L 383.268762 249.316782 
L 388.210996 248.469347 
L 393.15323 245.982127 
L 403.037697 245.119886 
L 407.979931 243.978896 
L 412.922165 241.517033 
L 417.864399 239.710784 
L 422.806632 237.246617 
L 432.6911 225.102765 
L 437.633333 223.975026 
L 442.575567 223.207294 
L 447.517801 220.299173 
L 457.402268 217.907625 
L 462.344502 215.30473 
L 467.286736 210.919539 
L 482.113437 202.602134 
L 487.055671 200.041553 
L 491.997905 198.514215 
L 501.882372 193.80648 
L 506.824606 191.515327 
L 511.76684 186.873426 
L 516.709073 183.542159 
L 521.651307 180.663762 
L 526.593541 177.386495 
L 531.535775 174.586018 
L 536.478008 170.516899 
L 541.420242 167.877653 
L 546.362476 166.231487 
L 551.30471 163.431088 
L 556.246943 160.12586 
L 561.189177 158.741868 
L 566.131411 157.623521 
L 571.073645 156.364875 
L 576.015878 155.324558 
L 580.958112 153.302681 
L 585.900346 151.095621 
L 590.84258 148.571818 
L 595.784813 146.235289 
L 600.727047 144.359873 
L 605.669281 140.759587 
L 610.611515 136.65956 
L 615.553748 133.575454 
L 620.495982 131.961055 
L 625.438216 130.072595 
L 630.38045 126.241264 
L 635.322683 121.716022 
L 640.264917 120.714587 
L 645.207151 119.042518 
L 650.149385 116.593067 
L 655.091618 114.596132 
L 669.91832 109.742444 
L 674.860553 107.825265 
L 679.802787 106.413824 
L 684.745021 105.819639 
L 689.687255 104.774736 
L 694.629488 103.573891 
L 704.513956 99.971409 
L 709.45619 96.608517 
L 714.398423 93.951778 
L 719.340657 91.591452 
L 724.282891 89.398504 
L 729.225124 86.936814 
L 734.167358 84.119655 
L 739.109592 81.739048 
L 744.051826 78.667635 
L 748.994059 74.766062 
L 753.936293 72.214756 
L 758.878527 69.144212 
L 763.820761 65.628785 
L 768.762994 64.51298 
L 773.705228 64.187413 
L 778.647462 63.297455 
L 783.589696 62.770143 
L 788.531929 62.072628 
L 793.474163 60.193644 
L 798.416397 59.217658 
L 798.416397 59.217658 
" clip-path="url(#pe2c48e133f)" style="fill: none; stroke: #2ecc71; stroke-width: 3; stroke-linecap: round"/>
   </g>
   <g id="patch_3">
    <path d="M 56.34 358.628473 
L 56.34 44.96 
" style="fill: none; stroke: #cccccc; stroke-width: 1.25; stroke-linejoin: miter; stroke-linecap: square"/>
   </g>
   <g id="patch_4">
    <path d="M 833.753368 358.628473 
L 833.753368 44.96 
" style="fill: none; stroke: #cccccc; stroke-width: 1.25; stroke-linejoin: miter; stroke-linecap: square"/>
   </g>
   <g id="patch_5">
    <path d="M 56.34 358.628473 
L 833.753368 358.628473 
" style="fill: none; stroke: #cccccc; stroke-width: 1.25; stroke-linejoin: miter; stroke-linecap: square"/>
   </g>
   <g id="patch_6">
    <path d="M 56.34 44.96 
L 833.753368 44.96 
" style="fill: none; stroke: #cccccc; stroke-width: 1.25; stroke-linejoin: miter; stroke-linecap: square"/>
   </g>
   <g id="text_18">
    <!-- Post-Recalibration Cumulative Net Revenue (143 Days) -->
    <g style="fill: #262626" transform="translate(236.107934 24.96) scale(0.16 -0.16)">
     <defs>
      <path id="Arial-BoldMT-50" d="M 466 0 
L 466 4581 
L 1950 4581 
Q 2794 4581 3050 4513 
Q 3444 4409 3709 4064 
Q 3975 3719 3975 3172 
Q 3975 2750 3822 2462 
Q 3669 2175 3433 2011 
Q 3197 1847 2953 1794 
Q 2622 1728 1994 1728 
L 1391 1728 
L 1391 0 
L 466 0 
z
M 1391 3806 
L 1391 2506 
L 1897 2506 
Q 2444 2506 2628 2578 
Q 2813 2650 2917 2803 
Q 3022 2956 3022 3159 
Q 3022 3409 2875 3571 
Q 2728 3734 2503 3775 
Q 2338 3806 1838 3806 
L 1391 3806 
z
" transform="scale(0.015625)"/>
      <path id="Arial-BoldMT-6f" d="M 256 1706 
Q 256 2144 472 2553 
Q 688 2963 1083 3178 
Q 1478 3394 1966 3394 
Q 2719 3394 3200 2905 
Q 3681 2416 3681 1669 
Q 3681 916 3195 420 
Q 2709 -75 1972 -75 
Q 1516 -75 1102 131 
Q 688 338 472 736 
Q 256 1134 256 1706 
z
M 1156 1659 
Q 1156 1166 1390 903 
Q 1625 641 1969 641 
Q 2313 641 2545 903 
Q 2778 1166 2778 1666 
Q 2778 2153 2545 2415 
Q 2313 2678 1969 2678 
Q 1625 2678 1390 2415 
Q 1156 2153 1156 1659 
z
" transform="scale(0.015625)"/>
      <path id="Arial-BoldMT-73" d="M 150 947 
L 1031 1081 
Q 1088 825 1259 692 
Q 1431 559 1741 559 
Q 2081 559 2253 684 
Q 2369 772 2369 919 
Q 2369 1019 2306 1084 
Q 2241 1147 2013 1200 
Q 950 1434 666 1628 
Q 272 1897 272 2375 
Q 272 2806 612 3100 
Q 953 3394 1669 3394 
Q 2350 3394 2681 3172 
Q 3013 2950 3138 2516 
L 2309 2363 
Q 2256 2556 2107 2659 
Q 1959 2763 1684 2763 
Q 1338 2763 1188 2666 
Q 1088 2597 1088 2488 
Q 1088 2394 1175 2328 
Q 1294 2241 1995 2081 
Q 2697 1922 2975 1691 
Q 3250 1456 3250 1038 
Q 3250 581 2869 253 
Q 2488 -75 1741 -75 
Q 1063 -75 667 200 
Q 272 475 150 947 
z
" transform="scale(0.015625)"/>
      <path id="Arial-BoldMT-74" d="M 1981 3319 
L 1981 2619 
L 1381 2619 
L 1381 1281 
Q 1381 875 1398 808 
Q 1416 741 1477 697 
Q 1538 653 1625 653 
Q 1747 653 1978 738 
L 2053 56 
Q 1747 -75 1359 -75 
Q 1122 -75 931 4 
Q 741 84 652 211 
Q 563 338 528 553 
Q 500 706 500 1172 
L 500 2619 
L 97 2619 
L 97 3319 
L 500 3319 
L 500 3978 
L 1381 4491 
L 1381 3319 
L 1981 3319 
z
" transform="scale(0.015625)"/>
      <path id="Arial-BoldMT-2d" d="M 359 1222 
L 359 2100 
L 2084 2100 
L 2084 1222 
L 359 1222 
z
" transform="scale(0.015625)"/>
      <path id="Arial-BoldMT-52" d="M 469 0 
L 469 4581 
L 2416 4581 
Q 3150 4581 3483 4457 
Q 3816 4334 4016 4018 
Q 4216 3703 4216 3297 
Q 4216 2781 3912 2445 
Q 3609 2109 3006 2022 
Q 3306 1847 3501 1637 
Q 3697 1428 4028 894 
L 4588 0 
L 3481 0 
L 2813 997 
Q 2456 1531 2325 1670 
Q 2194 1809 2047 1861 
Q 1900 1913 1581 1913 
L 1394 1913 
L 1394 0 
L 469 0 
z
M 1394 2644 
L 2078 2644 
Q 2744 2644 2909 2700 
Q 3075 2756 3169 2893 
Q 3263 3031 3263 3238 
Q 3263 3469 3139 3611 
Q 3016 3753 2791 3791 
Q 2678 3806 2116 3806 
L 1394 3806 
L 1394 2644 
z
" transform="scale(0.015625)"/>
      <path id="Arial-BoldMT-65" d="M 2381 1056 
L 3256 909 
Q 3088 428 2723 176 
Q 2359 -75 1813 -75 
Q 947 -75 531 491 
Q 203 944 203 1634 
Q 203 2459 634 2926 
Q 1066 3394 1725 3394 
Q 2466 3394 2894 2905 
Q 3322 2416 3303 1406 
L 1103 1406 
Q 1113 1016 1316 798 
Q 1519 581 1822 581 
Q 2028 581 2168 693 
Q 2309 806 2381 1056 
z
M 2431 1944 
Q 2422 2325 2234 2523 
Q 2047 2722 1778 2722 
Q 1491 2722 1303 2513 
Q 1116 2303 1119 1944 
L 2431 1944 
z
" transform="scale(0.015625)"/>
      <path id="Arial-BoldMT-63" d="M 3353 2338 
L 2488 2181 
Q 2444 2441 2289 2572 
Q 2134 2703 1888 2703 
Q 1559 2703 1364 2476 
Q 1169 2250 1169 1719 
Q 1169 1128 1367 884 
Q 1566 641 1900 641 
Q 2150 641 2309 783 
Q 2469 925 2534 1272 
L 3397 1125 
Q 3263 531 2881 228 
Q 2500 -75 1859 -75 
Q 1131 -75 698 384 
Q 266 844 266 1656 
Q 266 2478 700 2936 
Q 1134 3394 1875 3394 
Q 2481 3394 2839 3133 
Q 3197 2872 3353 2338 
z
" transform="scale(0.015625)"/>
      <path id="Arial-BoldMT-61" d="M 1116 2306 
L 319 2450 
Q 453 2931 781 3162 
Q 1109 3394 1756 3394 
Q 2344 3394 2631 3255 
Q 2919 3116 3036 2902 
Q 3153 2688 3153 2116 
L 3144 1091 
Q 3144 653 3186 445 
Q 3228 238 3344 0 
L 2475 0 
Q 2441 88 2391 259 
Q 2369 338 2359 363 
Q 2134 144 1878 34 
Q 1622 -75 1331 -75 
Q 819 -75 523 203 
Q 228 481 228 906 
Q 228 1188 362 1408 
Q 497 1628 739 1745 
Q 981 1863 1438 1950 
Q 2053 2066 2291 2166 
L 2291 2253 
Q 2291 2506 2166 2614 
Q 2041 2722 1694 2722 
Q 1459 2722 1328 2630 
Q 1197 2538 1116 2306 
z
M 2291 1594 
Q 2122 1538 1756 1459 
Q 1391 1381 1278 1306 
Q 1106 1184 1106 997 
Q 1106 813 1243 678 
Q 1381 544 1594 544 
Q 1831 544 2047 700 
Q 2206 819 2256 991 
Q 2291 1103 2291 1419 
L 2291 1594 
z
" transform="scale(0.015625)"/>
      <path id="Arial-BoldMT-6c" d="M 459 0 
L 459 4581 
L 1338 4581 
L 1338 0 
L 459 0 
z
" transform="scale(0.015625)"/>
      <path id="Arial-BoldMT-69" d="M 459 3769 
L 459 4581 
L 1338 4581 
L 1338 3769 
L 459 3769 
z
M 459 0 
L 459 3319 
L 1338 3319 
L 1338 0 
L 459 0 
z
" transform="scale(0.015625)"/>
      <path id="Arial-BoldMT-62" d="M 422 0 
L 422 4581 
L 1300 4581 
L 1300 2931 
Q 1706 3394 2263 3394 
Q 2869 3394 3266 2955 
Q 3663 2516 3663 1694 
Q 3663 844 3258 384 
Q 2853 -75 2275 -75 
Q 1991 -75 1714 67 
Q 1438 209 1238 488 
L 1238 0 
L 422 0 
z
M 1294 1731 
Q 1294 1216 1456 969 
Q 1684 619 2063 619 
Q 2353 619 2558 867 
Q 2763 1116 2763 1650 
Q 2763 2219 2556 2470 
Q 2350 2722 2028 2722 
Q 1713 2722 1503 2476 
Q 1294 2231 1294 1731 
z
" transform="scale(0.015625)"/>
      <path id="Arial-BoldMT-72" d="M 1300 0 
L 422 0 
L 422 3319 
L 1238 3319 
L 1238 2847 
Q 1447 3181 1614 3287 
Q 1781 3394 1994 3394 
Q 2294 3394 2572 3228 
L 2300 2463 
Q 2078 2606 1888 2606 
Q 1703 2606 1575 2504 
Q 1447 2403 1373 2137 
Q 1300 1872 1300 1025 
L 1300 0 
z
" transform="scale(0.015625)"/>
      <path id="Arial-BoldMT-6e" d="M 3478 0 
L 2600 0 
L 2600 1694 
Q 2600 2231 2544 2389 
Q 2488 2547 2361 2634 
Q 2234 2722 2056 2722 
Q 1828 2722 1647 2597 
Q 1466 2472 1398 2265 
Q 1331 2059 1331 1503 
L 1331 0 
L 453 0 
L 453 3319 
L 1269 3319 
L 1269 2831 
Q 1703 3394 2363 3394 
Q 2653 3394 2893 3289 
Q 3134 3184 3257 3021 
Q 3381 2859 3429 2653 
Q 3478 2447 3478 2063 
L 3478 0 
z
" transform="scale(0.015625)"/>
      <path id="Arial-BoldMT-20" transform="scale(0.015625)"/>
      <path id="Arial-BoldMT-43" d="M 3397 1684 
L 4294 1400 
Q 4088 650 3608 286 
Q 3128 -78 2391 -78 
Q 1478 -78 890 545 
Q 303 1169 303 2250 
Q 303 3394 893 4026 
Q 1484 4659 2447 4659 
Q 3288 4659 3813 4163 
Q 4125 3869 4281 3319 
L 3366 3100 
Q 3284 3456 3026 3662 
Q 2769 3869 2400 3869 
Q 1891 3869 1573 3503 
Q 1256 3138 1256 2319 
Q 1256 1450 1568 1081 
Q 1881 713 2381 713 
Q 2750 713 3015 947 
Q 3281 1181 3397 1684 
z
" transform="scale(0.015625)"/>
      <path id="Arial-BoldMT-75" d="M 2644 0 
L 2644 497 
Q 2463 231 2167 78 
Q 1872 -75 1544 -75 
Q 1209 -75 943 72 
Q 678 219 559 484 
Q 441 750 441 1219 
L 441 3319 
L 1319 3319 
L 1319 1794 
Q 1319 1094 1367 936 
Q 1416 778 1544 686 
Q 1672 594 1869 594 
Q 2094 594 2272 717 
Q 2450 841 2515 1023 
Q 2581 1206 2581 1919 
L 2581 3319 
L 3459 3319 
L 3459 0 
L 2644 0 
z
" transform="scale(0.015625)"/>
      <path id="Arial-BoldMT-6d" d="M 394 3319 
L 1203 3319 
L 1203 2866 
Q 1638 3394 2238 3394 
Q 2556 3394 2790 3262 
Q 3025 3131 3175 2866 
Q 3394 3131 3647 3262 
Q 3900 3394 4188 3394 
Q 4553 3394 4806 3245 
Q 5059 3097 5184 2809 
Q 5275 2597 5275 2122 
L 5275 0 
L 4397 0 
L 4397 1897 
Q 4397 2391 4306 2534 
Q 4184 2722 3931 2722 
Q 3747 2722 3584 2609 
Q 3422 2497 3350 2280 
Q 3278 2063 3278 1594 
L 3278 0 
L 2400 0 
L 2400 1819 
Q 2400 2303 2353 2443 
Q 2306 2584 2207 2653 
Q 2109 2722 1941 2722 
Q 1738 2722 1575 2612 
Q 1413 2503 1342 2297 
Q 1272 2091 1272 1613 
L 1272 0 
L 394 0 
L 394 3319 
z
" transform="scale(0.015625)"/>
      <path id="Arial-BoldMT-76" d="M 1372 0 
L 34 3319 
L 956 3319 
L 1581 1625 
L 1763 1059 
Q 1834 1275 1853 1344 
Q 1897 1484 1947 1625 
L 2578 3319 
L 3481 3319 
L 2163 0 
L 1372 0 
z
" transform="scale(0.015625)"/>
      <path id="Arial-BoldMT-4e" d="M 475 0 
L 475 4581 
L 1375 4581 
L 3250 1522 
L 3250 4581 
L 4109 4581 
L 4109 0 
L 3181 0 
L 1334 2988 
L 1334 0 
L 475 0 
z
" transform="scale(0.015625)"/>
      <path id="Arial-BoldMT-28" d="M 1916 -1347 
L 1313 -1347 
Q 834 -625 584 153 
Q 334 931 334 1659 
Q 334 2563 644 3369 
Q 913 4069 1325 4659 
L 1925 4659 
Q 1497 3713 1336 3048 
Q 1175 2384 1175 1641 
Q 1175 1128 1270 590 
Q 1366 53 1531 -431 
Q 1641 -750 1916 -1347 
z
" transform="scale(0.015625)"/>
      <path id="Arial-BoldMT-31" d="M 2519 0 
L 1641 0 
L 1641 3309 
Q 1159 2859 506 2644 
L 506 3441 
Q 850 3553 1253 3867 
Q 1656 4181 1806 4600 
L 2519 4600 
L 2519 0 
z
" transform="scale(0.015625)"/>
      <path id="Arial-BoldMT-34" d="M 1994 0 
L 1994 922 
L 119 922 
L 119 1691 
L 2106 4600 
L 2844 4600 
L 2844 1694 
L 3413 1694 
L 3413 922 
L 2844 922 
L 2844 0 
L 1994 0 
z
M 1994 1694 
L 1994 3259 
L 941 1694 
L 1994 1694 
z
" transform="scale(0.015625)"/>
      <path id="Arial-BoldMT-33" d="M 241 1216 
L 1091 1319 
Q 1131 994 1309 822 
Q 1488 650 1741 650 
Q 2013 650 2198 856 
Q 2384 1063 2384 1413 
Q 2384 1744 2206 1937 
Q 2028 2131 1772 2131 
Q 1603 2131 1369 2066 
L 1466 2781 
Q 1822 2772 2009 2936 
Q 2197 3100 2197 3372 
Q 2197 3603 2059 3740 
Q 1922 3878 1694 3878 
Q 1469 3878 1309 3722 
Q 1150 3566 1116 3266 
L 306 3403 
Q 391 3819 561 4067 
Q 731 4316 1036 4458 
Q 1341 4600 1719 4600 
Q 2366 4600 2756 4188 
Q 3078 3850 3078 3425 
Q 3078 2822 2419 2463 
Q 2813 2378 3048 2084 
Q 3284 1791 3284 1375 
Q 3284 772 2843 347 
Q 2403 -78 1747 -78 
Q 1125 -78 715 280 
Q 306 638 241 1216 
z
" transform="scale(0.015625)"/>
      <path id="Arial-BoldMT-44" d="M 463 4581 
L 2153 4581 
Q 2725 4581 3025 4494 
Q 3428 4375 3715 4072 
Q 4003 3769 4153 3330 
Q 4303 2891 4303 2247 
Q 4303 1681 4163 1272 
Q 3991 772 3672 463 
Q 3431 228 3022 97 
Q 2716 0 2203 0 
L 463 0 
L 463 4581 
z
M 1388 3806 
L 1388 772 
L 2078 772 
Q 2466 772 2638 816 
Q 2863 872 3011 1006 
Q 3159 1141 3253 1448 
Q 3347 1756 3347 2288 
Q 3347 2819 3253 3103 
Q 3159 3388 2990 3547 
Q 2822 3706 2563 3763 
Q 2369 3806 1803 3806 
L 1388 3806 
z
" transform="scale(0.015625)"/>
      <path id="Arial-BoldMT-79" d="M 44 3319 
L 978 3319 
L 1772 963 
L 2547 3319 
L 3456 3319 
L 2284 125 
L 2075 -453 
Q 1959 -744 1854 -897 
Q 1750 -1050 1614 -1145 
Q 1478 -1241 1279 -1294 
Q 1081 -1347 831 -1347 
Q 578 -1347 334 -1294 
L 256 -606 
Q 463 -647 628 -647 
Q 934 -647 1081 -467 
Q 1228 -288 1306 -9 
L 44 3319 
z
" transform="scale(0.015625)"/>
      <path id="Arial-BoldMT-29" d="M 216 -1347 
Q 475 -791 581 -494 
Q 688 -197 778 190 
Q 869 578 912 926 
Q 956 1275 956 1641 
Q 956 2384 797 3048 
Q 638 3713 209 4659 
L 806 4659 
Q 1278 3988 1539 3234 
Q 1800 2481 1800 1706 
Q 1800 1053 1594 306 
Q 1359 -531 822 -1347 
L 216 -1347 
z
" transform="scale(0.015625)"/>
     </defs>
     <use xlink:href="#Arial-BoldMT-50"/>
     <use xlink:href="#Arial-BoldMT-6f" transform="translate(66.699219 0)"/>
     <use xlink:href="#Arial-BoldMT-73" transform="translate(127.783203 0)"/>
     <use xlink:href="#Arial-BoldMT-74" transform="translate(183.398438 0)"/>
     <use xlink:href="#Arial-BoldMT-2d" transform="translate(216.699219 0)"/>
     <use xlink:href="#Arial-BoldMT-52" transform="translate(250 0)"/>
     <use xlink:href="#Arial-BoldMT-65" transform="translate(322.216797 0)"/>
     <use xlink:href="#Arial-BoldMT-63" transform="translate(377.832031 0)"/>
     <use xlink:href="#Arial-BoldMT-61" transform="translate(433.447266 0)"/>
     <use xlink:href="#Arial-BoldMT-6c" transform="translate(489.0625 0)"/>
     <use xlink:href="#Arial-BoldMT-69" transform="translate(516.845703 0)"/>
     <use xlink:href="#Arial-BoldMT-62" transform="translate(544.628906 0)"/>
     <use xlink:href="#Arial-BoldMT-72" transform="translate(605.712891 0)"/>
     <use xlink:href="#Arial-BoldMT-61" transform="translate(644.628906 0)"/>
     <use xlink:href="#Arial-BoldMT-74" transform="translate(700.244141 0)"/>
     <use xlink:href="#Arial-BoldMT-69" transform="translate(733.544922 0)"/>
     <use xlink:href="#Arial-BoldMT-6f" transform="translate(761.328125 0)"/>
     <use xlink:href="#Arial-BoldMT-6e" transform="translate(822.412109 0)"/>
     <use xlink:href="#Arial-BoldMT-20" transform="translate(883.496094 0)"/>
     <use xlink:href="#Arial-BoldMT-43" transform="translate(911.279297 0)"/>
     <use xlink:href="#Arial-BoldMT-75" transform="translate(983.496094 0)"/>
     <use xlink:href="#Arial-BoldMT-6d" transform="translate(1044.580078 0)"/>
     <use xlink:href="#Arial-BoldMT-75" transform="translate(1133.496094 0)"/>
     <use xlink:href="#Arial-BoldMT-6c" transform="translate(1194.580078 0)"/>
     <use xlink:href="#Arial-BoldMT-61" transform="translate(1222.363281 0)"/>
     <use xlink:href="#Arial-BoldMT-74" transform="translate(1277.978516 0)"/>
     <use xlink:href="#Arial-BoldMT-69" transform="translate(1311.279297 0)"/>
     <use xlink:href="#Arial-BoldMT-76" transform="translate(1339.0625 0)"/>
     <use xlink:href="#Arial-BoldMT-65" transform="translate(1394.677734 0)"/>
     <use xlink:href="#Arial-BoldMT-20" transform="translate(1450.292969 0)"/>
     <use xlink:href="#Arial-BoldMT-4e" transform="translate(1478.076172 0)"/>
     <use xlink:href="#Arial-BoldMT-65" transform="translate(1550.292969 0)"/>
     <use xlink:href="#Arial-BoldMT-74" transform="translate(1605.908203 0)"/>
     <use xlink:href="#Arial-BoldMT-20" transform="translate(1639.208984 0)"/>
     <use xlink:href="#Arial-BoldMT-52" transform="translate(1666.992188 0)"/>
     <use xlink:href="#Arial-BoldMT-65" transform="translate(1739.208984 0)"/>
     <use xlink:href="#Arial-BoldMT-76" transform="translate(1794.824219 0)"/>
     <use xlink:href="#Arial-BoldMT-65" transform="translate(1850.439453 0)"/>
     <use xlink:href="#Arial-BoldMT-6e" transform="translate(1906.054688 0)"/>
     <use xlink:href="#Arial-BoldMT-75" transform="translate(1967.138672 0)"/>
     <use xlink:href="#Arial-BoldMT-65" transform="translate(2028.222656 0)"/>
     <use xlink:href="#Arial-BoldMT-20" transform="translate(2083.837891 0)"/>
     <use xlink:href="#Arial-BoldMT-28" transform="translate(2111.621094 0)"/>
     <use xlink:href="#Arial-BoldMT-31" transform="translate(2144.921875 0)"/>
     <use xlink:href="#Arial-BoldMT-34" transform="translate(2200.537109 0)"/>
     <use xlink:href="#Arial-BoldMT-33" transform="translate(2256.152344 0)"/>
     <use xlink:href="#Arial-BoldMT-20" transform="translate(2311.767578 0)"/>
     <use xlink:href="#Arial-BoldMT-44" transform="translate(2339.550781 0)"/>
     <use xlink:href="#Arial-BoldMT-61" transform="translate(2411.767578 0)"/>
     <use xlink:href="#Arial-BoldMT-79" transform="translate(2467.382812 0)"/>
     <use xlink:href="#Arial-BoldMT-73" transform="translate(2522.998047 0)"/>
     <use xlink:href="#Arial-BoldMT-29" transform="translate(2578.613281 0)"/>
    </g>
   </g>
  </g>
 </g>
 <defs>
  <clipPath id="pe2c48e133f">
   <rect x="56.34" y="44.96" width="777.413368" height="313.668473"/>
  </clipPath>
 </defs>
</svg>
