<?xml version="1.0" encoding="utf-8" standalone="no"?>
<!DOCTYPE svg PUBLIC "-//W3C//DTD SVG 1.1//EN"
  "http://www.w3.org/Graphics/SVG/1.1/DTD/svg11.dtd">
<svg xmlns:xlink="http://www.w3.org/1999/xlink" width="864pt" height="432pt" viewBox="0 0 864 432" xmlns="http://www.w3.org/2000/svg" version="1.1">
 <metadata>
  <rdf:RDF xmlns:dc="http://purl.org/dc/elements/1.1/" xmlns:cc="http://creativecommons.org/ns#" xmlns:rdf="http://www.w3.org/1999/02/22-rdf-syntax-ns#">
   <cc:Work>
    <dc:type rdf:resource="http://purl.org/dc/dcmitype/StillImage"/>
    <dc:date>2026-02-14T02:51:04.367456</dc:date>
    <dc:format>image/svg+xml</dc:format>
    <dc:creator>
     <cc:Agent>
      <dc:title>Matplotlib v3.10.8, https://matplotlib.org/</dc:title>
     </cc:Agent>
    </dc:creator>
   </cc:Work>
  </rdf:RDF>
 </metadata>
 <defs>
  <style type="text/css">*{stroke-linejoin: round; stroke-linecap: butt}</style>
 </defs>
 <g id="figure_1">
  <g id="patch_1">
   <path d="M 0 432 
L 864 432 
L 864 0 
L 0 0 
z
" style="fill: #ffffff"/>
  </g>
  <g id="axes_1">
   <g id="patch_2">
    <path d="M 56.31 358.628473 
L 833.753368 358.628473 
L 833.753368 44.96 
L 56.31 44.96 
z
" style="fill: #ffffff"/>
   </g>
   <g id="matplotlib.axis_1">
    <g id="xtick_1">
     <g id="line2d_1">
      <path d="M 91.648335 358.628473 
L 91.648335 44.96 
" clip-path="url(#p1afb2ec2d7)" style="fill: none; stroke-dasharray: 3.7,1.6; stroke-dashoffset: 0; stroke: #cccccc; stroke-opacity: 0.6"/>
     </g>
     <g id="text_1">
      <!-- 2025-02 -->
      <g style="fill: #262626" transform="translate(79.387987 402.238199) rotate(-45) scale(0.11 -0.11)">
       <defs>
        <path id="ArialMT-32" d="M 3222 541 
L 3222 0 
L 194 0 
Q 188 203 259 391 
Q 375 700 629 1000 
Q 884 1300 1366 1694 
Q 2113 2306 2375 2664 
Q 2638 3022 2638 3341 
Q 2638 3675 2398 3904 
Q 2159 4134 1775 4134 
Q 1369 4134 1125 3890 
Q 881 3647 878 3216 
L 300 3275 
Q 359 3922 746 4261 
Q 1134 4600 1788 4600 
Q 2447 4600 2831 4234 
Q 3216 3869 3216 3328 
Q 3216 3053 3103 2787 
Q 2991 2522 2730 2228 
Q 2469 1934 1863 1422 
Q 1356 997 1212 845 
Q 1069 694 975 541 
L 3222 541 
z
" transform="scale(0.015625)"/>
        <path id="ArialMT-30" d="M 266 2259 
Q 266 3072 433 3567 
Q 600 4063 929 4331 
Q 1259 4600 1759 4600 
Q 2128 4600 2406 4451 
Q 2684 4303 2865 4023 
Q 3047 3744 3150 3342 
Q 3253 2941 3253 2259 
Q 3253 1453 3087 958 
Q 2922 463 2592 192 
Q 2263 -78 1759 -78 
Q 1097 -78 719 397 
Q 266 969 266 2259 
z
M 844 2259 
Q 844 1131 1108 757 
Q 1372 384 1759 384 
Q 2147 384 2411 759 
Q 2675 1134 2675 2259 
Q 2675 3391 2411 3762 
Q 2147 4134 1753 4134 
Q 1366 4134 1134 3806 
Q 844 3388 844 2259 
z
" transform="scale(0.015625)"/>
        <path id="ArialMT-35" d="M 266 1200 
L 856 1250 
Q 922 819 1161 601 
Q 1400 384 1738 384 
Q 2144 384 2425 690 
Q 2706 997 2706 1503 
Q 2706 1984 2436 2262 
Q 2166 2541 1728 2541 
Q 1456 2541 1237 2417 
Q 1019 2294 894 2097 
L 366 2166 
L 809 4519 
L 3088 4519 
L 3088 3981 
L 1259 3981 
L 1013 2750 
Q 1425 3038 1878 3038 
Q 2478 3038 2890 2622 
Q 3303 2206 3303 1553 
Q 3303 931 2941 478 
Q 2500 -78 1738 -78 
Q 1113 -78 717 272 
Q 322 622 266 1200 
z
" transform="scale(0.015625)"/>
        <path id="ArialMT-2d" d="M 203 1375 
L 203 1941 
L 1931 1941 
L 1931 1375 
L 203 1375 
z
" transform="scale(0.015625)"/>
       </defs>
       <use xlink:href="#ArialMT-32"/>
       <use xlink:href="#ArialMT-30" transform="translate(55.615234 0)"/>
       <use xlink:href="#ArialMT-32" transform="translate(111.230469 0)"/>
       <use xlink:href="#ArialMT-35" transform="translate(166.845703 0)"/>
       <use xlink:href="#ArialMT-2d" transform="translate(222.460938 0)"/>
       <use xlink:href="#ArialMT-30" transform="translate(255.761719 0)"/>
       <use xlink:href="#ArialMT-32" transform="translate(311.376953 0)"/>
      </g>
     </g>
    </g>
    <g id="xtick_2">
     <g id="line2d_2">
      <path d="M 230.03622 358.628473 
L 230.03622 44.96 
" clip-path="url(#p1afb2ec2d7)" style="fill: none; stroke-dasharray: 3.7,1.6; stroke-dashoffset: 0; stroke: #cccccc; stroke-opacity: 0.6"/>
     </g>
     <g id="text_2">
      <!-- 2025-03 -->
      <g style="fill: #262626" transform="translate(217.775872 402.238199) rotate(-45) scale(0.11 -0.11)">
       <defs>
        <path id="ArialMT-33" d="M 269 1209 
L 831 1284 
Q 928 806 1161 595 
Q 1394 384 1728 384 
Q 2125 384 2398 659 
Q 2672 934 2672 1341 
Q 2672 1728 2419 1979 
Q 2166 2231 1775 2231 
Q 1616 2231 1378 2169 
L 1441 2663 
Q 1497 2656 1531 2656 
Q 1891 2656 2178 2843 
Q 2466 3031 2466 3422 
Q 2466 3731 2256 3934 
Q 2047 4138 1716 4138 
Q 1388 4138 1169 3931 
Q 950 3725 888 3313 
L 325 3413 
Q 428 3978 793 4289 
Q 1159 4600 1703 4600 
Q 2078 4600 2393 4439 
Q 2709 4278 2876 4000 
Q 3044 3722 3044 3409 
Q 3044 3113 2884 2869 
Q 2725 2625 2413 2481 
Q 2819 2388 3044 2092 
Q 3269 1797 3269 1353 
Q 3269 753 2831 336 
Q 2394 -81 1725 -81 
Q 1122 -81 723 278 
Q 325 638 269 1209 
z
" transform="scale(0.015625)"/>
       </defs>
       <use xlink:href="#ArialMT-32"/>
       <use xlink:href="#ArialMT-30" transform="translate(55.615234 0)"/>
       <use xlink:href="#ArialMT-32" transform="translate(111.230469 0)"/>
       <use xlink:href="#ArialMT-35" transform="translate(166.845703 0)"/>
       <use xlink:href="#ArialMT-2d" transform="translate(222.460938 0)"/>
       <use xlink:href="#ArialMT-30" transform="translate(255.761719 0)"/>
       <use xlink:href="#ArialMT-33" transform="translate(311.376953 0)"/>
      </g>
     </g>
    </g>
    <g id="xtick_3">
     <g id="line2d_3">
      <path d="M 383.251378 358.628473 
L 383.251378 44.96 
" clip-path="url(#p1afb2ec2d7)" style="fill: none; stroke-dasharray: 3.7,1.6; stroke-dashoffset: 0; stroke: #cccccc; stroke-opacity: 0.6"/>
     </g>
     <g id="text_3">
      <!-- 2025-04 -->
      <g style="fill: #262626" transform="translate(370.991031 402.238199) rotate(-45) scale(0.11 -0.11)">
       <defs>
        <path id="ArialMT-34" d="M 2069 0 
L 2069 1097 
L 81 1097 
L 81 1613 
L 2172 4581 
L 2631 4581 
L 2631 1613 
L 3250 1613 
L 3250 1097 
L 2631 1097 
L 2631 0 
L 2069 0 
z
M 2069 1613 
L 2069 3678 
L 634 1613 
L 2069 1613 
z
" transform="scale(0.015625)"/>
       </defs>
       <use xlink:href="#ArialMT-32"/>
       <use xlink:href="#ArialMT-30" transform="translate(55.615234 0)"/>
       <use xlink:href="#ArialMT-32" transform="translate(111.230469 0)"/>
       <use xlink:href="#ArialMT-35" transform="translate(166.845703 0)"/>
       <use xlink:href="#ArialMT-2d" transform="translate(222.460938 0)"/>
       <use xlink:href="#ArialMT-30" transform="translate(255.761719 0)"/>
       <use xlink:href="#ArialMT-34" transform="translate(311.376953 0)"/>
      </g>
     </g>
    </g>
    <g id="xtick_4">
     <g id="line2d_4">
      <path d="M 531.524112 358.628473 
L 531.524112 44.96 
" clip-path="url(#p1afb2ec2d7)" style="fill: none; stroke-dasharray: 3.7,1.6; stroke-dashoffset: 0; stroke: #cccccc; stroke-opacity: 0.6"/>
     </g>
     <g id="text_4">
      <!-- 2025-05 -->
      <g style="fill: #262626" transform="translate(519.263765 402.238199) rotate(-45) scale(0.11 -0.11)">
       <use xlink:href="#ArialMT-32"/>
       <use xlink:href="#ArialMT-30" transform="translate(55.615234 0)"/>
       <use xlink:href="#ArialMT-32" transform="translate(111.230469 0)"/>
       <use xlink:href="#ArialMT-35" transform="translate(166.845703 0)"/>
       <use xlink:href="#ArialMT-2d" transform="translate(222.460938 0)"/>
       <use xlink:href="#ArialMT-30" transform="translate(255.761719 0)"/>
       <use xlink:href="#ArialMT-35" transform="translate(311.376953 0)"/>
      </g>
     </g>
    </g>
    <g id="xtick_5">
     <g id="line2d_5">
      <path d="M 684.739271 358.628473 
L 684.739271 44.96 
" clip-path="url(#p1afb2ec2d7)" style="fill: none; stroke-dasharray: 3.7,1.6; stroke-dashoffset: 0; stroke: #cccccc; stroke-opacity: 0.6"/>
     </g>
     <g id="text_5">
      <!-- 2025-06 -->
      <g style="fill: #262626" transform="translate(672.478923 402.238199) rotate(-45) scale(0.11 -0.11)">
       <defs>
        <path id="ArialMT-36" d="M 3184 3459 
L 2625 3416 
Q 2550 3747 2413 3897 
Q 2184 4138 1850 4138 
Q 1581 4138 1378 3988 
Q 1113 3794 959 3422 
Q 806 3050 800 2363 
Q 1003 2672 1297 2822 
Q 1591 2972 1913 2972 
Q 2475 2972 2870 2558 
Q 3266 2144 3266 1488 
Q 3266 1056 3080 686 
Q 2894 316 2569 119 
Q 2244 -78 1831 -78 
Q 1128 -78 684 439 
Q 241 956 241 2144 
Q 241 3472 731 4075 
Q 1159 4600 1884 4600 
Q 2425 4600 2770 4297 
Q 3116 3994 3184 3459 
z
M 888 1484 
Q 888 1194 1011 928 
Q 1134 663 1356 523 
Q 1578 384 1822 384 
Q 2178 384 2434 671 
Q 2691 959 2691 1453 
Q 2691 1928 2437 2201 
Q 2184 2475 1800 2475 
Q 1419 2475 1153 2201 
Q 888 1928 888 1484 
z
" transform="scale(0.015625)"/>
       </defs>
       <use xlink:href="#ArialMT-32"/>
       <use xlink:href="#ArialMT-30" transform="translate(55.615234 0)"/>
       <use xlink:href="#ArialMT-32" transform="translate(111.230469 0)"/>
       <use xlink:href="#ArialMT-35" transform="translate(166.845703 0)"/>
       <use xlink:href="#ArialMT-2d" transform="translate(222.460938 0)"/>
       <use xlink:href="#ArialMT-30" transform="translate(255.761719 0)"/>
       <use xlink:href="#ArialMT-36" transform="translate(311.376953 0)"/>
      </g>
     </g>
    </g>
    <g id="xtick_6">
     <g id="line2d_6">
      <path d="M 833.012005 358.628473 
L 833.012005 44.96 
" clip-path="url(#p1afb2ec2d7)" style="fill: none; stroke-dasharray: 3.7,1.6; stroke-dashoffset: 0; stroke: #cccccc; stroke-opacity: 0.6"/>
     </g>
     <g id="text_6">
      <!-- 2025-07 -->
      <g style="fill: #262626" transform="translate(820.751657 402.238199) rotate(-45) scale(0.11 -0.11)">
       <defs>
        <path id="ArialMT-37" d="M 303 3981 
L 303 4522 
L 3269 4522 
L 3269 4084 
Q 2831 3619 2401 2847 
Q 1972 2075 1738 1259 
Q 1569 684 1522 0 
L 944 0 
Q 953 541 1156 1306 
Q 1359 2072 1739 2783 
Q 2119 3494 2547 3981 
L 303 3981 
z
" transform="scale(0.015625)"/>
       </defs>
       <use xlink:href="#ArialMT-32"/>
       <use xlink:href="#ArialMT-30" transform="translate(55.615234 0)"/>
       <use xlink:href="#ArialMT-32" transform="translate(111.230469 0)"/>
       <use xlink:href="#ArialMT-35" transform="translate(166.845703 0)"/>
       <use xlink:href="#ArialMT-2d" transform="translate(222.460938 0)"/>
       <use xlink:href="#ArialMT-30" transform="translate(255.761719 0)"/>
       <use xlink:href="#ArialMT-37" transform="translate(311.376953 0)"/>
      </g>
     </g>
    </g>
    <g id="text_7">
     <!-- Date -->
     <g style="fill: #262626" transform="translate(432.358559 416.373486) scale(0.12 -0.12)">
      <defs>
       <path id="ArialMT-44" d="M 494 0 
L 494 4581 
L 2072 4581 
Q 2606 4581 2888 4516 
Q 3281 4425 3559 4188 
Q 3922 3881 4101 3404 
Q 4281 2928 4281 2316 
Q 4281 1794 4159 1391 
Q 4038 988 3847 723 
Q 3656 459 3429 307 
Q 3203 156 2883 78 
Q 2563 0 2147 0 
L 494 0 
z
M 1100 541 
L 2078 541 
Q 2531 541 2789 625 
Q 3047 709 3200 863 
Q 3416 1078 3536 1442 
Q 3656 1806 3656 2325 
Q 3656 3044 3420 3430 
Q 3184 3816 2847 3947 
Q 2603 4041 2063 4041 
L 1100 4041 
L 1100 541 
z
" transform="scale(0.015625)"/>
       <path id="ArialMT-61" d="M 2588 409 
Q 2275 144 1986 34 
Q 1697 -75 1366 -75 
Q 819 -75 525 192 
Q 231 459 231 875 
Q 231 1119 342 1320 
Q 453 1522 633 1644 
Q 813 1766 1038 1828 
Q 1203 1872 1538 1913 
Q 2219 1994 2541 2106 
Q 2544 2222 2544 2253 
Q 2544 2597 2384 2738 
Q 2169 2928 1744 2928 
Q 1347 2928 1158 2789 
Q 969 2650 878 2297 
L 328 2372 
Q 403 2725 575 2942 
Q 747 3159 1072 3276 
Q 1397 3394 1825 3394 
Q 2250 3394 2515 3294 
Q 2781 3194 2906 3042 
Q 3031 2891 3081 2659 
Q 3109 2516 3109 2141 
L 3109 1391 
Q 3109 606 3145 398 
Q 3181 191 3288 0 
L 2700 0 
Q 2613 175 2588 409 
z
M 2541 1666 
Q 2234 1541 1622 1453 
Q 1275 1403 1131 1340 
Q 988 1278 909 1158 
Q 831 1038 831 891 
Q 831 666 1001 516 
Q 1172 366 1500 366 
Q 1825 366 2078 508 
Q 2331 650 2450 897 
Q 2541 1088 2541 1459 
L 2541 1666 
z
" transform="scale(0.015625)"/>
       <path id="ArialMT-74" d="M 1650 503 
L 1731 6 
Q 1494 -44 1306 -44 
Q 1000 -44 831 53 
Q 663 150 594 308 
Q 525 466 525 972 
L 525 2881 
L 113 2881 
L 113 3319 
L 525 3319 
L 525 4141 
L 1084 4478 
L 1084 3319 
L 1650 3319 
L 1650 2881 
L 1084 2881 
L 1084 941 
Q 1084 700 1114 631 
Q 1144 563 1211 522 
Q 1278 481 1403 481 
Q 1497 481 1650 503 
z
" transform="scale(0.015625)"/>
       <path id="ArialMT-65" d="M 2694 1069 
L 3275 997 
Q 3138 488 2766 206 
Q 2394 -75 1816 -75 
Q 1088 -75 661 373 
Q 234 822 234 1631 
Q 234 2469 665 2931 
Q 1097 3394 1784 3394 
Q 2450 3394 2872 2941 
Q 3294 2488 3294 1666 
Q 3294 1616 3291 1516 
L 816 1516 
Q 847 969 1125 678 
Q 1403 388 1819 388 
Q 2128 388 2347 550 
Q 2566 713 2694 1069 
z
M 847 1978 
L 2700 1978 
Q 2663 2397 2488 2606 
Q 2219 2931 1791 2931 
Q 1403 2931 1139 2672 
Q 875 2413 847 1978 
z
" transform="scale(0.015625)"/>
      </defs>
      <use xlink:href="#ArialMT-44"/>
      <use xlink:href="#ArialMT-61" transform="translate(72.216797 0)"/>
      <use xlink:href="#ArialMT-74" transform="translate(127.832031 0)"/>
      <use xlink:href="#ArialMT-65" transform="translate(155.615234 0)"/>
     </g>
    </g>
   </g>
   <g id="matplotlib.axis_2">
    <g id="ytick_1">
     <g id="line2d_7">
      <path d="M 56.31 344.370815 
L 833.753368 344.370815 
" clip-path="url(#p1afb2ec2d7)" style="fill: none; stroke-dasharray: 3.7,1.6; stroke-dashoffset: 0; stroke: #cccccc; stroke-opacity: 0.6"/>
     </g>
     <g id="text_8">
      <!-- 0 -->
      <g style="fill: #262626" transform="translate(40.692969 348.307612) scale(0.11 -0.11)">
       <use xlink:href="#ArialMT-30"/>
      </g>
     </g>
    </g>
    <g id="ytick_2">
     <g id="line2d_8">
      <path d="M 56.31 301.312468 
L 833.753368 301.312468 
" clip-path="url(#p1afb2ec2d7)" style="fill: none; stroke-dasharray: 3.7,1.6; stroke-dashoffset: 0; stroke: #cccccc; stroke-opacity: 0.6"/>
     </g>
     <g id="text_9">
      <!-- 20 -->
      <g style="fill: #262626" transform="translate(34.575938 305.249265) scale(0.11 -0.11)">
       <use xlink:href="#ArialMT-32"/>
       <use xlink:href="#ArialMT-30" transform="translate(55.615234 0)"/>
      </g>
     </g>
    </g>
    <g id="ytick_3">
     <g id="line2d_9">
      <path d="M 56.31 258.254121 
L 833.753368 258.254121 
" clip-path="url(#p1afb2ec2d7)" style="fill: none; stroke-dasharray: 3.7,1.6; stroke-dashoffset: 0; stroke: #cccccc; stroke-opacity: 0.6"/>
     </g>
     <g id="text_10">
      <!-- 40 -->
      <g style="fill: #262626" transform="translate(34.575938 262.190918) scale(0.11 -0.11)">
       <use xlink:href="#ArialMT-34"/>
       <use xlink:href="#ArialMT-30" transform="translate(55.615234 0)"/>
      </g>
     </g>
    </g>
    <g id="ytick_4">
     <g id="line2d_10">
      <path d="M 56.31 215.195774 
L 833.753368 215.195774 
" clip-path="url(#p1afb2ec2d7)" style="fill: none; stroke-dasharray: 3.7,1.6; stroke-dashoffset: 0; stroke: #cccccc; stroke-opacity: 0.6"/>
     </g>
     <g id="text_11">
      <!-- 60 -->
      <g style="fill: #262626" transform="translate(34.575938 219.132571) scale(0.11 -0.11)">
       <use xlink:href="#ArialMT-36"/>
       <use xlink:href="#ArialMT-30" transform="translate(55.615234 0)"/>
      </g>
     </g>
    </g>
    <g id="ytick_5">
     <g id="line2d_11">
      <path d="M 56.31 172.137427 
L 833.753368 172.137427 
" clip-path="url(#p1afb2ec2d7)" style="fill: none; stroke-dasharray: 3.7,1.6; stroke-dashoffset: 0; stroke: #cccccc; stroke-opacity: 0.6"/>
     </g>
     <g id="text_12">
      <!-- 80 -->
      <g style="fill: #262626" transform="translate(34.575938 176.074224) scale(0.11 -0.11)">
       <defs>
        <path id="ArialMT-38" d="M 1131 2484 
Q 781 2613 612 2850 
Q 444 3088 444 3419 
Q 444 3919 803 4259 
Q 1163 4600 1759 4600 
Q 2359 4600 2725 4251 
Q 3091 3903 3091 3403 
Q 3091 3084 2923 2848 
Q 2756 2613 2416 2484 
Q 2838 2347 3058 2040 
Q 3278 1734 3278 1309 
Q 3278 722 2862 322 
Q 2447 -78 1769 -78 
Q 1091 -78 675 323 
Q 259 725 259 1325 
Q 259 1772 486 2073 
Q 713 2375 1131 2484 
z
M 1019 3438 
Q 1019 3113 1228 2906 
Q 1438 2700 1772 2700 
Q 2097 2700 2305 2904 
Q 2513 3109 2513 3406 
Q 2513 3716 2298 3927 
Q 2084 4138 1766 4138 
Q 1444 4138 1231 3931 
Q 1019 3725 1019 3438 
z
M 838 1322 
Q 838 1081 952 856 
Q 1066 631 1291 507 
Q 1516 384 1775 384 
Q 2178 384 2440 643 
Q 2703 903 2703 1303 
Q 2703 1709 2433 1975 
Q 2163 2241 1756 2241 
Q 1359 2241 1098 1978 
Q 838 1716 838 1322 
z
" transform="scale(0.015625)"/>
       </defs>
       <use xlink:href="#ArialMT-38"/>
       <use xlink:href="#ArialMT-30" transform="translate(55.615234 0)"/>
      </g>
     </g>
    </g>
    <g id="ytick_6">
     <g id="line2d_12">
      <path d="M 56.31 129.07908 
L 833.753368 129.07908 
" clip-path="url(#p1afb2ec2d7)" style="fill: none; stroke-dasharray: 3.7,1.6; stroke-dashoffset: 0; stroke: #cccccc; stroke-opacity: 0.6"/>
     </g>
     <g id="text_13">
      <!-- 100 -->
      <g style="fill: #262626" transform="translate(28.458906 133.015877) scale(0.11 -0.11)">
       <defs>
        <path id="ArialMT-31" d="M 2384 0 
L 1822 0 
L 1822 3584 
Q 1619 3391 1289 3197 
Q 959 3003 697 2906 
L 697 3450 
Q 1169 3672 1522 3987 
Q 1875 4303 2022 4600 
L 2384 4600 
L 2384 0 
z
" transform="scale(0.015625)"/>
       </defs>
       <use xlink:href="#ArialMT-31"/>
       <use xlink:href="#ArialMT-30" transform="translate(55.615234 0)"/>
       <use xlink:href="#ArialMT-30" transform="translate(111.230469 0)"/>
      </g>
     </g>
    </g>
    <g id="ytick_7">
     <g id="line2d_13">
      <path d="M 56.31 86.020733 
L 833.753368 86.020733 
" clip-path="url(#p1afb2ec2d7)" style="fill: none; stroke-dasharray: 3.7,1.6; stroke-dashoffset: 0; stroke: #cccccc; stroke-opacity: 0.6"/>
     </g>
     <g id="text_14">
      <!-- 120 -->
      <g style="fill: #262626" transform="translate(28.458906 89.95753) scale(0.11 -0.11)">
       <use xlink:href="#ArialMT-31"/>
       <use xlink:href="#ArialMT-32" transform="translate(55.615234 0)"/>
       <use xlink:href="#ArialMT-30" transform="translate(111.230469 0)"/>
      </g>
     </g>
    </g>
    <g id="text_15">
     <!-- Cumulative Revenue (₹M) -->
     <g style="fill: #262626" transform="translate(21.933281 272.647674) rotate(-90) scale(0.12 -0.12)">
      <defs>
       <path id="ArialMT-43" d="M 3763 1606 
L 4369 1453 
Q 4178 706 3683 314 
Q 3188 -78 2472 -78 
Q 1731 -78 1267 223 
Q 803 525 561 1097 
Q 319 1669 319 2325 
Q 319 3041 592 3573 
Q 866 4106 1370 4382 
Q 1875 4659 2481 4659 
Q 3169 4659 3637 4309 
Q 4106 3959 4291 3325 
L 3694 3184 
Q 3534 3684 3231 3912 
Q 2928 4141 2469 4141 
Q 1941 4141 1586 3887 
Q 1231 3634 1087 3207 
Q 944 2781 944 2328 
Q 944 1744 1114 1308 
Q 1284 872 1643 656 
Q 2003 441 2422 441 
Q 2931 441 3284 734 
Q 3638 1028 3763 1606 
z
" transform="scale(0.015625)"/>
       <path id="ArialMT-75" d="M 2597 0 
L 2597 488 
Q 2209 -75 1544 -75 
Q 1250 -75 995 37 
Q 741 150 617 320 
Q 494 491 444 738 
Q 409 903 409 1263 
L 409 3319 
L 972 3319 
L 972 1478 
Q 972 1038 1006 884 
Q 1059 663 1231 536 
Q 1403 409 1656 409 
Q 1909 409 2131 539 
Q 2353 669 2445 892 
Q 2538 1116 2538 1541 
L 2538 3319 
L 3100 3319 
L 3100 0 
L 2597 0 
z
" transform="scale(0.015625)"/>
       <path id="ArialMT-6d" d="M 422 0 
L 422 3319 
L 925 3319 
L 925 2853 
Q 1081 3097 1340 3245 
Q 1600 3394 1931 3394 
Q 2300 3394 2536 3241 
Q 2772 3088 2869 2813 
Q 3263 3394 3894 3394 
Q 4388 3394 4653 3120 
Q 4919 2847 4919 2278 
L 4919 0 
L 4359 0 
L 4359 2091 
Q 4359 2428 4304 2576 
Q 4250 2725 4106 2815 
Q 3963 2906 3769 2906 
Q 3419 2906 3187 2673 
Q 2956 2441 2956 1928 
L 2956 0 
L 2394 0 
L 2394 2156 
Q 2394 2531 2256 2718 
Q 2119 2906 1806 2906 
Q 1569 2906 1367 2781 
Q 1166 2656 1075 2415 
Q 984 2175 984 1722 
L 984 0 
L 422 0 
z
" transform="scale(0.015625)"/>
       <path id="ArialMT-6c" d="M 409 0 
L 409 4581 
L 972 4581 
L 972 0 
L 409 0 
z
" transform="scale(0.015625)"/>
       <path id="ArialMT-69" d="M 425 3934 
L 425 4581 
L 988 4581 
L 988 3934 
L 425 3934 
z
M 425 0 
L 425 3319 
L 988 3319 
L 988 0 
L 425 0 
z
" transform="scale(0.015625)"/>
       <path id="ArialMT-76" d="M 1344 0 
L 81 3319 
L 675 3319 
L 1388 1331 
Q 1503 1009 1600 663 
Q 1675 925 1809 1294 
L 2547 3319 
L 3125 3319 
L 1869 0 
L 1344 0 
z
" transform="scale(0.015625)"/>
       <path id="ArialMT-20" transform="scale(0.015625)"/>
       <path id="ArialMT-52" d="M 503 0 
L 503 4581 
L 2534 4581 
Q 3147 4581 3465 4457 
Q 3784 4334 3975 4021 
Q 4166 3709 4166 3331 
Q 4166 2844 3850 2509 
Q 3534 2175 2875 2084 
Q 3116 1969 3241 1856 
Q 3506 1613 3744 1247 
L 4541 0 
L 3778 0 
L 3172 953 
Q 2906 1366 2734 1584 
Q 2563 1803 2427 1890 
Q 2291 1978 2150 2013 
Q 2047 2034 1813 2034 
L 1109 2034 
L 1109 0 
L 503 0 
z
M 1109 2559 
L 2413 2559 
Q 2828 2559 3062 2645 
Q 3297 2731 3419 2920 
Q 3541 3109 3541 3331 
Q 3541 3656 3305 3865 
Q 3069 4075 2559 4075 
L 1109 4075 
L 1109 2559 
z
" transform="scale(0.015625)"/>
       <path id="ArialMT-6e" d="M 422 0 
L 422 3319 
L 928 3319 
L 928 2847 
Q 1294 3394 1984 3394 
Q 2284 3394 2536 3286 
Q 2788 3178 2913 3003 
Q 3038 2828 3088 2588 
Q 3119 2431 3119 2041 
L 3119 0 
L 2556 0 
L 2556 2019 
Q 2556 2363 2490 2533 
Q 2425 2703 2258 2804 
Q 2091 2906 1866 2906 
Q 1506 2906 1245 2678 
Q 984 2450 984 1813 
L 984 0 
L 422 0 
z
" transform="scale(0.015625)"/>
       <path id="ArialMT-28" d="M 1497 -1347 
Q 1031 -759 709 28 
Q 388 816 388 1659 
Q 388 2403 628 3084 
Q 909 3875 1497 4659 
L 1900 4659 
Q 1522 4009 1400 3731 
Q 1209 3300 1100 2831 
Q 966 2247 966 1656 
Q 966 153 1900 -1347 
L 1497 -1347 
z
" transform="scale(0.015625)"/>
       <path id="ArialMT-20b9" d="M 800 0 
L 800 4000 
L 4000 4000 
L 4000 0 
L 800 0 
z
M 900 100 
L 3900 100 
L 3900 3900 
L 900 3900 
L 900 100 
z
" transform="scale(0.015625)"/>
       <path id="ArialMT-4d" d="M 475 0 
L 475 4581 
L 1388 4581 
L 2472 1338 
Q 2622 884 2691 659 
Q 2769 909 2934 1394 
L 4031 4581 
L 4847 4581 
L 4847 0 
L 4263 0 
L 4263 3834 
L 2931 0 
L 2384 0 
L 1059 3900 
L 1059 0 
L 475 0 
z
" transform="scale(0.015625)"/>
       <path id="ArialMT-29" d="M 791 -1347 
L 388 -1347 
Q 1322 153 1322 1656 
Q 1322 2244 1188 2822 
Q 1081 3291 891 3722 
Q 769 4003 388 4659 
L 791 4659 
Q 1378 3875 1659 3084 
Q 1900 2403 1900 1659 
Q 1900 816 1576 28 
Q 1253 -759 791 -1347 
z
" transform="scale(0.015625)"/>
      </defs>
      <use xlink:href="#ArialMT-43"/>
      <use xlink:href="#ArialMT-75" transform="translate(72.216797 0)"/>
      <use xlink:href="#ArialMT-6d" transform="translate(127.832031 0)"/>
      <use xlink:href="#ArialMT-75" transform="translate(211.132812 0)"/>
      <use xlink:href="#ArialMT-6c" transform="translate(266.748047 0)"/>
      <use xlink:href="#ArialMT-61" transform="translate(288.964844 0)"/>
      <use xlink:href="#ArialMT-74" transform="translate(344.580078 0)"/>
      <use xlink:href="#ArialMT-69" transform="translate(372.363281 0)"/>
      <use xlink:href="#ArialMT-76" transform="translate(394.580078 0)"/>
      <use xlink:href="#ArialMT-65" transform="translate(444.580078 0)"/>
      <use xlink:href="#ArialMT-20" transform="translate(500.195312 0)"/>
      <use xlink:href="#ArialMT-52" transform="translate(527.978516 0)"/>
      <use xlink:href="#ArialMT-65" transform="translate(600.195312 0)"/>
      <use xlink:href="#ArialMT-76" transform="translate(655.810547 0)"/>
      <use xlink:href="#ArialMT-65" transform="translate(705.810547 0)"/>
      <use xlink:href="#ArialMT-6e" transform="translate(761.425781 0)"/>
      <use xlink:href="#ArialMT-75" transform="translate(817.041016 0)"/>
      <use xlink:href="#ArialMT-65" transform="translate(872.65625 0)"/>
      <use xlink:href="#ArialMT-20" transform="translate(928.271484 0)"/>
      <use xlink:href="#ArialMT-28" transform="translate(956.054688 0)"/>
      <use xlink:href="#ArialMT-20b9" transform="translate(989.355469 0)"/>
      <use xlink:href="#ArialMT-4d" transform="translate(1064.355469 0)"/>
      <use xlink:href="#ArialMT-29" transform="translate(1147.65625 0)"/>
     </g>
    </g>
   </g>
   <g id="FillBetweenPolyCollection_1">
    <defs>
     <path id="m94df6be3db" d="M 91.648335 -87.629185 
L 91.648335 -89.169914 
L 96.590759 -88.969871 
L 101.533184 -90.69251 
L 106.475608 -92.525233 
L 111.418033 -94.57784 
L 116.360457 -96.839441 
L 121.302882 -98.407848 
L 126.245306 -99.477146 
L 131.187731 -99.076822 
L 136.130155 -101.28711 
L 141.07258 -104.137095 
L 146.015004 -105.944204 
L 150.957428 -108.130675 
L 155.899853 -109.693875 
L 160.842277 -110.899719 
L 165.784702 -109.728479 
L 170.727126 -111.449869 
L 175.669551 -113.944356 
L 180.611975 -116.49022 
L 185.5544 -118.87582 
L 190.496824 -122.455073 
L 195.439249 -125.726647 
L 200.381673 -126.57872 
L 205.324098 -129.11257 
L 210.266522 -130.659182 
L 215.208947 -131.715426 
L 220.151371 -132.699955 
L 225.093795 -134.440102 
L 230.03622 -135.673934 
L 234.978644 -135.686134 
L 239.921069 -137.416228 
L 244.863493 -138.806674 
L 249.805918 -141.256557 
L 254.748342 -142.110634 
L 259.690767 -144.16229 
L 264.633191 -145.502923 
L 269.575616 -146.737086 
L 274.51804 -147.677917 
L 279.460465 -148.841868 
L 284.402889 -150.236984 
L 289.345313 -151.156276 
L 294.287738 -150.954356 
L 299.230162 -151.396676 
L 304.172587 -151.764437 
L 309.115011 -152.380123 
L 314.057436 -152.414014 
L 318.99986 -153.833398 
L 323.942285 -155.589258 
L 328.884709 -158.174358 
L 333.827134 -160.73697 
L 338.769558 -159.749502 
L 343.711983 -159.747006 
L 348.654407 -159.798702 
L 353.596832 -160.66789 
L 358.539256 -162.332108 
L 363.48168 -163.456595 
L 368.424105 -168.095181 
L 373.366529 -168.897832 
L 378.308954 -170.93718 
L 383.251378 -173.289272 
L 388.193803 -173.67949 
L 393.136227 -176.45051 
L 403.021076 -176.783507 
L 407.963501 -177.40827 
L 412.905925 -180.097074 
L 417.84835 -181.755987 
L 422.790774 -184.483884 
L 427.733198 -192.298 
L 432.675623 -200.321365 
L 437.618047 -200.862166 
L 442.560472 -200.969984 
L 447.502896 -204.214369 
L 452.445321 -204.911868 
L 457.387745 -205.636044 
L 462.33017 -208.672618 
L 467.272594 -214.18857 
L 472.215019 -217.353164 
L 477.157443 -220.33208 
L 482.099868 -223.45777 
L 487.042292 -226.289393 
L 491.984717 -227.523181 
L 496.927141 -229.967806 
L 501.869565 -232.507402 
L 506.81199 -234.837241 
L 511.754414 -240.737145 
L 516.696839 -244.718437 
L 521.639263 -248.057802 
L 526.581688 -251.968997 
L 531.524112 -255.149126 
L 536.466537 -260.04091 
L 541.408961 -262.909352 
L 546.351386 -264.329713 
L 551.29381 -267.550045 
L 556.236235 -271.391785 
L 561.178659 -272.470031 
L 566.121083 -273.288747 
L 571.063508 -273.950849 
L 576.005932 -274.456075 
L 580.948357 -276.614297 
L 585.890781 -278.828626 
L 590.833206 -281.72778 
L 595.77563 -284.191653 
L 600.718055 -285.944833 
L 605.660479 -290.37843 
L 610.602904 -295.471543 
L 615.545328 -299.04199 
L 620.487753 -300.481834 
L 625.430177 -302.219814 
L 630.372602 -306.894616 
L 635.315026 -312.496621 
L 640.25745 -313.048387 
L 645.199875 -314.604677 
L 650.142299 -317.197827 
L 655.084724 -319.121256 
L 660.027148 -320.568285 
L 664.969573 -321.894818 
L 669.911997 -323.473698 
L 674.854422 -325.253312 
L 679.796846 -326.349873 
L 684.739271 -326.336401 
L 689.681695 -326.820778 
L 694.62412 -327.58734 
L 699.566544 -329.314381 
L 704.508968 -331.024961 
L 709.451393 -334.870474 
L 714.393817 -337.733937 
L 719.336242 -340.326982 
L 724.278666 -342.779033 
L 729.221091 -345.427228 
L 734.163515 -348.665491 
L 739.10594 -351.359523 
L 744.048364 -354.991817 
L 748.990789 -359.892809 
L 753.933213 -362.801576 
L 758.875638 -366.316923 
L 763.818062 -370.468187 
L 768.760487 -371.032483 
L 773.702911 -370.456497 
L 778.645335 -370.777134 
L 783.58776 -370.538155 
L 788.530184 -370.502909 
L 793.472609 -372.237274 
L 798.415033 -372.782342 
L 798.415033 -87.629185 
L 798.415033 -87.629185 
L 793.472609 -87.629185 
L 788.530184 -87.629185 
L 783.58776 -87.629185 
L 778.645335 -87.629185 
L 773.702911 -87.629185 
L 768.760487 -87.629185 
L 763.818062 -87.629185 
L 758.875638 -87.629185 
L 753.933213 -87.629185 
L 748.990789 -87.629185 
L 744.048364 -87.629185 
L 739.10594 -87.629185 
L 734.163515 -87.629185 
L 729.221091 -87.629185 
L 724.278666 -87.629185 
L 719.336242 -87.629185 
L 714.393817 -87.629185 
L 709.451393 -87.629185 
L 704.508968 -87.629185 
L 699.566544 -87.629185 
L 694.62412 -87.629185 
L 689.681695 -87.629185 
L 684.739271 -87.629185 
L 679.796846 -87.629185 
L 674.854422 -87.629185 
L 669.911997 -87.629185 
L 664.969573 -87.629185 
L 660.027148 -87.629185 
L 655.084724 -87.629185 
L 650.142299 -87.629185 
L 645.199875 -87.629185 
L 640.25745 -87.629185 
L 635.315026 -87.629185 
L 630.372602 -87.629185 
L 625.430177 -87.629185 
L 620.487753 -87.629185 
L 615.545328 -87.629185 
L 610.602904 -87.629185 
L 605.660479 -87.629185 
L 600.718055 -87.629185 
L 595.77563 -87.629185 
L 590.833206 -87.629185 
L 585.890781 -87.629185 
L 580.948357 -87.629185 
L 576.005932 -87.629185 
L 571.063508 -87.629185 
L 566.121083 -87.629185 
L 561.178659 -87.629185 
L 556.236235 -87.629185 
L 551.29381 -87.629185 
L 546.351386 -87.629185 
L 541.408961 -87.629185 
L 536.466537 -87.629185 
L 531.524112 -87.629185 
L 526.581688 -87.629185 
L 521.639263 -87.629185 
L 516.696839 -87.629185 
L 511.754414 -87.629185 
L 506.81199 -87.629185 
L 501.869565 -87.629185 
L 496.927141 -87.629185 
L 491.984717 -87.629185 
L 487.042292 -87.629185 
L 482.099868 -87.629185 
L 477.157443 -87.629185 
L 472.215019 -87.629185 
L 467.272594 -87.629185 
L 462.33017 -87.629185 
L 457.387745 -87.629185 
L 452.445321 -87.629185 
L 447.502896 -87.629185 
L 442.560472 -87.629185 
L 437.618047 -87.629185 
L 432.675623 -87.629185 
L 427.733198 -87.629185 
L 422.790774 -87.629185 
L 417.84835 -87.629185 
L 412.905925 -87.629185 
L 407.963501 -87.629185 
L 403.021076 -87.629185 
L 393.136227 -87.629185 
L 388.193803 -87.629185 
L 383.251378 -87.629185 
L 378.308954 -87.629185 
L 373.366529 -87.629185 
L 368.424105 -87.629185 
L 363.48168 -87.629185 
L 358.539256 -87.629185 
L 353.596832 -87.629185 
L 348.654407 -87.629185 
L 343.711983 -87.629185 
L 338.769558 -87.629185 
L 333.827134 -87.629185 
L 328.884709 -87.629185 
L 323.942285 -87.629185 
L 318.99986 -87.629185 
L 314.057436 -87.629185 
L 309.115011 -87.629185 
L 304.172587 -87.629185 
L 299.230162 -87.629185 
L 294.287738 -87.629185 
L 289.345313 -87.629185 
L 284.402889 -87.629185 
L 279.460465 -87.629185 
L 274.51804 -87.629185 
L 269.575616 -87.629185 
L 264.633191 -87.629185 
L 259.690767 -87.629185 
L 254.748342 -87.629185 
L 249.805918 -87.629185 
L 244.863493 -87.629185 
L 239.921069 -87.629185 
L 234.978644 -87.629185 
L 230.03622 -87.629185 
L 225.093795 -87.629185 
L 220.151371 -87.629185 
L 215.208947 -87.629185 
L 210.266522 -87.629185 
L 205.324098 -87.629185 
L 200.381673 -87.629185 
L 195.439249 -87.629185 
L 190.496824 -87.629185 
L 185.5544 -87.629185 
L 180.611975 -87.629185 
L 175.669551 -87.629185 
L 170.727126 -87.629185 
L 165.784702 -87.629185 
L 160.842277 -87.629185 
L 155.899853 -87.629185 
L 150.957428 -87.629185 
L 146.015004 -87.629185 
L 141.07258 -87.629185 
L 136.130155 -87.629185 
L 131.187731 -87.629185 
L 126.245306 -87.629185 
L 121.302882 -87.629185 
L 116.360457 -87.629185 
L 111.418033 -87.629185 
L 106.475608 -87.629185 
L 101.533184 -87.629185 
L 96.590759 -87.629185 
L 91.648335 -87.629185 
z
" style="stroke: #2ecc71; stroke-opacity: 0.15"/>
    </defs>
    <g clip-path="url(#p1afb2ec2d7)">
     <use xlink:href="#m94df6be3db" x="0" y="432" style="fill: #2ecc71; fill-opacity: 0.15; stroke: #2ecc71; stroke-opacity: 0.15"/>
    </g>
   </g>
   <g id="line2d_14">
    <path d="M 91.648335 342.830086 
L 96.590759 343.030129 
L 106.475608 339.474767 
L 111.418033 337.42216 
L 116.360457 335.160559 
L 121.302882 333.592152 
L 126.245306 332.522854 
L 131.187731 332.923178 
L 136.130155 330.71289 
L 141.07258 327.862905 
L 146.015004 326.055796 
L 150.957428 323.869325 
L 155.899853 322.306125 
L 160.842277 321.100281 
L 165.784702 322.271521 
L 170.727126 320.550131 
L 185.5544 313.12418 
L 190.496824 309.544927 
L 195.439249 306.273353 
L 200.381673 305.42128 
L 205.324098 302.88743 
L 210.266522 301.340818 
L 220.151371 299.300045 
L 225.093795 297.559898 
L 230.03622 296.326066 
L 234.978644 296.313866 
L 239.921069 294.583772 
L 244.863493 293.193326 
L 249.805918 290.743443 
L 254.748342 289.889366 
L 259.690767 287.83771 
L 269.575616 285.262914 
L 274.51804 284.322083 
L 279.460465 283.158132 
L 284.402889 281.763016 
L 289.345313 280.843724 
L 294.287738 281.045644 
L 309.115011 279.619877 
L 314.057436 279.585986 
L 318.99986 278.166602 
L 323.942285 276.410742 
L 333.827134 271.26303 
L 338.769558 272.250498 
L 348.654407 272.201298 
L 353.596832 271.33211 
L 358.539256 269.667892 
L 363.48168 268.543405 
L 368.424105 263.904819 
L 373.366529 263.102168 
L 378.308954 261.06282 
L 383.251378 258.710728 
L 388.193803 258.32051 
L 393.136227 255.54949 
L 403.021076 255.216493 
L 407.963501 254.59173 
L 412.905925 251.902926 
L 417.84835 250.244013 
L 422.790774 247.516116 
L 427.733198 239.702 
L 432.675623 231.678635 
L 437.618047 231.137834 
L 442.560472 231.030016 
L 447.502896 227.785631 
L 457.387745 226.363956 
L 462.33017 223.327382 
L 467.272594 217.81143 
L 472.215019 214.646836 
L 477.157443 211.66792 
L 482.099868 208.54223 
L 487.042292 205.710607 
L 491.984717 204.476819 
L 506.81199 197.162759 
L 511.754414 191.262855 
L 516.696839 187.281563 
L 521.639263 183.942198 
L 526.581688 180.031003 
L 531.524112 176.850874 
L 536.466537 171.95909 
L 541.408961 169.090648 
L 546.351386 167.670287 
L 551.29381 164.449955 
L 556.236235 160.608215 
L 561.178659 159.529969 
L 566.121083 158.711253 
L 571.063508 158.049151 
L 576.005932 157.543925 
L 585.890781 153.171374 
L 590.833206 150.27222 
L 595.77563 147.808347 
L 600.718055 146.055167 
L 605.660479 141.62157 
L 610.602904 136.528457 
L 615.545328 132.95801 
L 620.487753 131.518166 
L 625.430177 129.780186 
L 630.372602 125.105384 
L 635.315026 119.503379 
L 640.25745 118.951613 
L 645.199875 117.395323 
L 650.142299 114.802173 
L 655.084724 112.878744 
L 660.027148 111.431715 
L 664.969573 110.105182 
L 669.911997 108.526302 
L 674.854422 106.746688 
L 679.796846 105.650127 
L 684.739271 105.663599 
L 689.681695 105.179222 
L 694.62412 104.41266 
L 704.508968 100.975039 
L 709.451393 97.129526 
L 714.393817 94.266063 
L 719.336242 91.673018 
L 724.278666 89.220967 
L 729.221091 86.572772 
L 734.163515 83.334509 
L 739.10594 80.640477 
L 744.048364 77.008183 
L 748.990789 72.107191 
L 753.933213 69.198424 
L 758.875638 65.683077 
L 763.818062 61.531813 
L 768.760487 60.967517 
L 773.702911 61.543503 
L 778.645335 61.222866 
L 783.58776 61.461845 
L 788.530184 61.497091 
L 793.472609 59.762726 
L 798.415033 59.217658 
L 798.415033 59.217658 
" clip-path="url(#p1afb2ec2d7)" style="fill: none; stroke: #2ecc71; stroke-width: 3; stroke-linecap: round"/>
   </g>
   <g id="patch_3">
    <path d="M 56.31 358.628473 
L 56.31 44.96 
" style="fill: none; stroke: #cccccc; stroke-width: 1.25; stroke-linejoin: miter; stroke-linecap: square"/>
   </g>
   <g id="patch_4">
    <path d="M 833.753368 358.628473 
L 833.753368 44.96 
" style="fill: none; stroke: #cccccc; stroke-width: 1.25; stroke-linejoin: miter; stroke-linecap: square"/>
   </g>
   <g id="patch_5">
    <path d="M 56.31 358.628473 
L 833.753368 358.628473 
" style="fill: none; stroke: #cccccc; stroke-width: 1.25; stroke-linejoin: miter; stroke-linecap: square"/>
   </g>
   <g id="patch_6">
    <path d="M 56.31 44.96 
L 833.753368 44.96 
" style="fill: none; stroke: #cccccc; stroke-width: 1.25; stroke-linejoin: miter; stroke-linecap: square"/>
   </g>
   <g id="text_16">
    <!-- Post-Recalibration Cumulative Net Revenue (143 Days) -->
    <g style="fill: #262626" transform="translate(236.092934 24.96) scale(0.16 -0.16)">
     <defs>
      <path id="Arial-BoldMT-50" d="M 466 0 
L 466 4581 
L 1950 4581 
Q 2794 4581 3050 4513 
Q 3444 4409 3709 4064 
Q 3975 3719 3975 3172 
Q 3975 2750 3822 2462 
Q 3669 2175 3433 2011 
Q 3197 1847 2953 1794 
Q 2622 1728 1994 1728 
L 1391 1728 
L 1391 0 
L 466 0 
z
M 1391 3806 
L 1391 2506 
L 1897 2506 
Q 2444 2506 2628 2578 
Q 2813 2650 2917 2803 
Q 3022 2956 3022 3159 
Q 3022 3409 2875 3571 
Q 2728 3734 2503 3775 
Q 2338 3806 1838 3806 
L 1391 3806 
z
" transform="scale(0.015625)"/>
      <path id="Arial-BoldMT-6f" d="M 256 1706 
Q 256 2144 472 2553 
Q 688 2963 1083 3178 
Q 1478 3394 1966 3394 
Q 2719 3394 3200 2905 
Q 3681 2416 3681 1669 
Q 3681 916 3195 420 
Q 2709 -75 1972 -75 
Q 1516 -75 1102 131 
Q 688 338 472 736 
Q 256 1134 256 1706 
z
M 1156 1659 
Q 1156 1166 1390 903 
Q 1625 641 1969 641 
Q 2313 641 2545 903 
Q 2778 1166 2778 1666 
Q 2778 2153 2545 2415 
Q 2313 2678 1969 2678 
Q 1625 2678 1390 2415 
Q 1156 2153 1156 1659 
z
" transform="scale(0.015625)"/>
      <path id="Arial-BoldMT-73" d="M 150 947 
L 1031 1081 
Q 1088 825 1259 692 
Q 1431 559 1741 559 
Q 2081 559 2253 684 
Q 2369 772 2369 919 
Q 2369 1019 2306 1084 
Q 2241 1147 2013 1200 
Q 950 1434 666 1628 
Q 272 1897 272 2375 
Q 272 2806 612 3100 
Q 953 3394 1669 3394 
Q 2350 3394 2681 3172 
Q 3013 2950 3138 2516 
L 2309 2363 
Q 2256 2556 2107 2659 
Q 1959 2763 1684 2763 
Q 1338 2763 1188 2666 
Q 1088 2597 1088 2488 
Q 1088 2394 1175 2328 
Q 1294 2241 1995 2081 
Q 2697 1922 2975 1691 
Q 3250 1456 3250 1038 
Q 3250 581 2869 253 
Q 2488 -75 1741 -75 
Q 1063 -75 667 200 
Q 272 475 150 947 
z
" transform="scale(0.015625)"/>
      <path id="Arial-BoldMT-74" d="M 1981 3319 
L 1981 2619 
L 1381 2619 
L 1381 1281 
Q 1381 875 1398 808 
Q 1416 741 1477 697 
Q 1538 653 1625 653 
Q 1747 653 1978 738 
L 2053 56 
Q 1747 -75 1359 -75 
Q 1122 -75 931 4 
Q 741 84 652 211 
Q 563 338 528 553 
Q 500 706 500 1172 
L 500 2619 
L 97 2619 
L 97 3319 
L 500 3319 
L 500 3978 
L 1381 4491 
L 1381 3319 
L 1981 3319 
z
" transform="scale(0.015625)"/>
      <path id="Arial-BoldMT-2d" d="M 359 1222 
L 359 2100 
L 2084 2100 
L 2084 1222 
L 359 1222 
z
" transform="scale(0.015625)"/>
      <path id="Arial-BoldMT-52" d="M 469 0 
L 469 4581 
L 2416 4581 
Q 3150 4581 3483 4457 
Q 3816 4334 4016 4018 
Q 4216 3703 4216 3297 
Q 4216 2781 3912 2445 
Q 3609 2109 3006 2022 
Q 3306 1847 3501 1637 
Q 3697 1428 4028 894 
L 4588 0 
L 3481 0 
L 2813 997 
Q 2456 1531 2325 1670 
Q 2194 1809 2047 1861 
Q 1900 1913 1581 1913 
L 1394 1913 
L 1394 0 
L 469 0 
z
M 1394 2644 
L 2078 2644 
Q 2744 2644 2909 2700 
Q 3075 2756 3169 2893 
Q 3263 3031 3263 3238 
Q 3263 3469 3139 3611 
Q 3016 3753 2791 3791 
Q 2678 3806 2116 3806 
L 1394 3806 
L 1394 2644 
z
" transform="scale(0.015625)"/>
      <path id="Arial-BoldMT-65" d="M 2381 1056 
L 3256 909 
Q 3088 428 2723 176 
Q 2359 -75 1813 -75 
Q 947 -75 531 491 
Q 203 944 203 1634 
Q 203 2459 634 2926 
Q 1066 3394 1725 3394 
Q 2466 3394 2894 2905 
Q 3322 2416 3303 1406 
L 1103 1406 
Q 1113 1016 1316 798 
Q 1519 581 1822 581 
Q 2028 581 2168 693 
Q 2309 806 2381 1056 
z
M 2431 1944 
Q 2422 2325 2234 2523 
Q 2047 2722 1778 2722 
Q 1491 2722 1303 2513 
Q 1116 2303 1119 1944 
L 2431 1944 
z
" transform="scale(0.015625)"/>
      <path id="Arial-BoldMT-63" d="M 3353 2338 
L 2488 2181 
Q 2444 2441 2289 2572 
Q 2134 2703 1888 2703 
Q 1559 2703 1364 2476 
Q 1169 2250 1169 1719 
Q 1169 1128 1367 884 
Q 1566 641 1900 641 
Q 2150 641 2309 783 
Q 2469 925 2534 1272 
L 3397 1125 
Q 3263 531 2881 228 
Q 2500 -75 1859 -75 
Q 1131 -75 698 384 
Q 266 844 266 1656 
Q 266 2478 700 2936 
Q 1134 3394 1875 3394 
Q 2481 3394 2839 3133 
Q 3197 2872 3353 2338 
z
" transform="scale(0.015625)"/>
      <path id="Arial-BoldMT-61" d="M 1116 2306 
L 319 2450 
Q 453 2931 781 3162 
Q 1109 3394 1756 3394 
Q 2344 3394 2631 3255 
Q 2919 3116 3036 2902 
Q 3153 2688 3153 2116 
L 3144 1091 
Q 3144 653 3186 445 
Q 3228 238 3344 0 
L 2475 0 
Q 2441 88 2391 259 
Q 2369 338 2359 363 
Q 2134 144 1878 34 
Q 1622 -75 1331 -75 
Q 819 -75 523 203 
Q 228 481 228 906 
Q 228 1188 362 1408 
Q 497 1628 739 1745 
Q 981 1863 1438 1950 
Q 2053 2066 2291 2166 
L 2291 2253 
Q 2291 2506 2166 2614 
Q 2041 2722 1694 2722 
Q 1459 2722 1328 2630 
Q 1197 2538 1116 2306 
z
M 2291 1594 
Q 2122 1538 1756 1459 
Q 1391 1381 1278 1306 
Q 1106 1184 1106 997 
Q 1106 813 1243 678 
Q 1381 544 1594 544 
Q 1831 544 2047 700 
Q 2206 819 2256 991 
Q 2291 1103 2291 1419 
L 2291 1594 
z
" transform="scale(0.015625)"/>
      <path id="Arial-BoldMT-6c" d="M 459 0 
L 459 4581 
L 1338 4581 
L 1338 0 
L 459 0 
z
" transform="scale(0.015625)"/>
      <path id="Arial-BoldMT-69" d="M 459 3769 
L 459 4581 
L 1338 4581 
L 1338 3769 
L 459 3769 
z
M 459 0 
L 459 3319 
L 1338 3319 
L 1338 0 
L 459 0 
z
" transform="scale(0.015625)"/>
      <path id="Arial-BoldMT-62" d="M 422 0 
L 422 4581 
L 1300 4581 
L 1300 2931 
Q 1706 3394 2263 3394 
Q 2869 3394 3266 2955 
Q 3663 2516 3663 1694 
Q 3663 844 3258 384 
Q 2853 -75 2275 -75 
Q 1991 -75 1714 67 
Q 1438 209 1238 488 
L 1238 0 
L 422 0 
z
M 1294 1731 
Q 1294 1216 1456 969 
Q 1684 619 2063 619 
Q 2353 619 2558 867 
Q 2763 1116 2763 1650 
Q 2763 2219 2556 2470 
Q 2350 2722 2028 2722 
Q 1713 2722 1503 2476 
Q 1294 2231 1294 1731 
z
" transform="scale(0.015625)"/>
      <path id="Arial-BoldMT-72" d="M 1300 0 
L 422 0 
L 422 3319 
L 1238 3319 
L 1238 2847 
Q 1447 3181 1614 3287 
Q 1781 3394 1994 3394 
Q 2294 3394 2572 3228 
L 2300 2463 
Q 2078 2606 1888 2606 
Q 1703 2606 1575 2504 
Q 1447 2403 1373 2137 
Q 1300 1872 1300 1025 
L 1300 0 
z
" transform="scale(0.015625)"/>
      <path id="Arial-BoldMT-6e" d="M 3478 0 
L 2600 0 
L 2600 1694 
Q 2600 2231 2544 2389 
Q 2488 2547 2361 2634 
Q 2234 2722 2056 2722 
Q 1828 2722 1647 2597 
Q 1466 2472 1398 2265 
Q 1331 2059 1331 1503 
L 1331 0 
L 453 0 
L 453 3319 
L 1269 3319 
L 1269 2831 
Q 1703 3394 2363 3394 
Q 2653 3394 2893 3289 
Q 3134 3184 3257 3021 
Q 3381 2859 3429 2653 
Q 3478 2447 3478 2063 
L 3478 0 
z
" transform="scale(0.015625)"/>
      <path id="Arial-BoldMT-20" transform="scale(0.015625)"/>
      <path id="Arial-BoldMT-43" d="M 3397 1684 
L 4294 1400 
Q 4088 650 3608 286 
Q 3128 -78 2391 -78 
Q 1478 -78 890 545 
Q 303 1169 303 2250 
Q 303 3394 893 4026 
Q 1484 4659 2447 4659 
Q 3288 4659 3813 4163 
Q 4125 3869 4281 3319 
L 3366 3100 
Q 3284 3456 3026 3662 
Q 2769 3869 2400 3869 
Q 1891 3869 1573 3503 
Q 1256 3138 1256 2319 
Q 1256 1450 1568 1081 
Q 1881 713 2381 713 
Q 2750 713 3015 947 
Q 3281 1181 3397 1684 
z
" transform="scale(0.015625)"/>
      <path id="Arial-BoldMT-75" d="M 2644 0 
L 2644 497 
Q 2463 231 2167 78 
Q 1872 -75 1544 -75 
Q 1209 -75 943 72 
Q 678 219 559 484 
Q 441 750 441 1219 
L 441 3319 
L 1319 3319 
L 1319 1794 
Q 1319 1094 1367 936 
Q 1416 778 1544 686 
Q 1672 594 1869 594 
Q 2094 594 2272 717 
Q 2450 841 2515 1023 
Q 2581 1206 2581 1919 
L 2581 3319 
L 3459 3319 
L 3459 0 
L 2644 0 
z
" transform="scale(0.015625)"/>
      <path id="Arial-BoldMT-6d" d="M 394 3319 
L 1203 3319 
L 1203 2866 
Q 1638 3394 2238 3394 
Q 2556 3394 2790 3262 
Q 3025 3131 3175 2866 
Q 3394 3131 3647 3262 
Q 3900 3394 4188 3394 
Q 4553 3394 4806 3245 
Q 5059 3097 5184 2809 
Q 5275 2597 5275 2122 
L 5275 0 
L 4397 0 
L 4397 1897 
Q 4397 2391 4306 2534 
Q 4184 2722 3931 2722 
Q 3747 2722 3584 2609 
Q 3422 2497 3350 2280 
Q 3278 2063 3278 1594 
L 3278 0 
L 2400 0 
L 2400 1819 
Q 2400 2303 2353 2443 
Q 2306 2584 2207 2653 
Q 2109 2722 1941 2722 
Q 1738 2722 1575 2612 
Q 1413 2503 1342 2297 
Q 1272 2091 1272 1613 
L 1272 0 
L 394 0 
L 394 3319 
z
" transform="scale(0.015625)"/>
      <path id="Arial-BoldMT-76" d="M 1372 0 
L 34 3319 
L 956 3319 
L 1581 1625 
L 1763 1059 
Q 1834 1275 1853 1344 
Q 1897 1484 1947 1625 
L 2578 3319 
L 3481 3319 
L 2163 0 
L 1372 0 
z
" transform="scale(0.015625)"/>
      <path id="Arial-BoldMT-4e" d="M 475 0 
L 475 4581 
L 1375 4581 
L 3250 1522 
L 3250 4581 
L 4109 4581 
L 4109 0 
L 3181 0 
L 1334 2988 
L 1334 0 
L 475 0 
z
" transform="scale(0.015625)"/>
      <path id="Arial-BoldMT-28" d="M 1916 -1347 
L 1313 -1347 
Q 834 -625 584 153 
Q 334 931 334 1659 
Q 334 2563 644 3369 
Q 913 4069 1325 4659 
L 1925 4659 
Q 1497 3713 1336 3048 
Q 1175 2384 1175 1641 
Q 1175 1128 1270 590 
Q 1366 53 1531 -431 
Q 1641 -750 1916 -1347 
z
" transform="scale(0.015625)"/>
      <path id="Arial-BoldMT-31" d="M 2519 0 
L 1641 0 
L 1641 3309 
Q 1159 2859 506 2644 
L 506 3441 
Q 850 3553 1253 3867 
Q 1656 4181 1806 4600 
L 2519 4600 
L 2519 0 
z
" transform="scale(0.015625)"/>
      <path id="Arial-BoldMT-34" d="M 1994 0 
L 1994 922 
L 119 922 
L 119 1691 
L 2106 4600 
L 2844 4600 
L 2844 1694 
L 3413 1694 
L 3413 922 
L 2844 922 
L 2844 0 
L 1994 0 
z
M 1994 1694 
L 1994 3259 
L 941 1694 
L 1994 1694 
z
" transform="scale(0.015625)"/>
      <path id="Arial-BoldMT-33" d="M 241 1216 
L 1091 1319 
Q 1131 994 1309 822 
Q 1488 650 1741 650 
Q 2013 650 2198 856 
Q 2384 1063 2384 1413 
Q 2384 1744 2206 1937 
Q 2028 2131 1772 2131 
Q 1603 2131 1369 2066 
L 1466 2781 
Q 1822 2772 2009 2936 
Q 2197 3100 2197 3372 
Q 2197 3603 2059 3740 
Q 1922 3878 1694 3878 
Q 1469 3878 1309 3722 
Q 1150 3566 1116 3266 
L 306 3403 
Q 391 3819 561 4067 
Q 731 4316 1036 4458 
Q 1341 4600 1719 4600 
Q 2366 4600 2756 4188 
Q 3078 3850 3078 3425 
Q 3078 2822 2419 2463 
Q 2813 2378 3048 2084 
Q 3284 1791 3284 1375 
Q 3284 772 2843 347 
Q 2403 -78 1747 -78 
Q 1125 -78 715 280 
Q 306 638 241 1216 
z
" transform="scale(0.015625)"/>
      <path id="Arial-BoldMT-44" d="M 463 4581 
L 2153 4581 
Q 2725 4581 3025 4494 
Q 3428 4375 3715 4072 
Q 4003 3769 4153 3330 
Q 4303 2891 4303 2247 
Q 4303 1681 4163 1272 
Q 3991 772 3672 463 
Q 3431 228 3022 97 
Q 2716 0 2203 0 
L 463 0 
L 463 4581 
z
M 1388 3806 
L 1388 772 
L 2078 772 
Q 2466 772 2638 816 
Q 2863 872 3011 1006 
Q 3159 1141 3253 1448 
Q 3347 1756 3347 2288 
Q 3347 2819 3253 3103 
Q 3159 3388 2990 3547 
Q 2822 3706 2563 3763 
Q 2369 3806 1803 3806 
L 1388 3806 
z
" transform="scale(0.015625)"/>
      <path id="Arial-BoldMT-79" d="M 44 3319 
L 978 3319 
L 1772 963 
L 2547 3319 
L 3456 3319 
L 2284 125 
L 2075 -453 
Q 1959 -744 1854 -897 
Q 1750 -1050 1614 -1145 
Q 1478 -1241 1279 -1294 
Q 1081 -1347 831 -1347 
Q 578 -1347 334 -1294 
L 256 -606 
Q 463 -647 628 -647 
Q 934 -647 1081 -467 
Q 1228 -288 1306 -9 
L 44 3319 
z
" transform="scale(0.015625)"/>
      <path id="Arial-BoldMT-29" d="M 216 -1347 
Q 475 -791 581 -494 
Q 688 -197 778 190 
Q 869 578 912 926 
Q 956 1275 956 1641 
Q 956 2384 797 3048 
Q 638 3713 209 4659 
L 806 4659 
Q 1278 3988 1539 3234 
Q 1800 2481 1800 1706 
Q 1800 1053 1594 306 
Q 1359 -531 822 -1347 
L 216 -1347 
z
" transform="scale(0.015625)"/>
     </defs>
     <use xlink:href="#Arial-BoldMT-50"/>
     <use xlink:href="#Arial-BoldMT-6f" transform="translate(66.699219 0)"/>
     <use xlink:href="#Arial-BoldMT-73" transform="translate(127.783203 0)"/>
     <use xlink:href="#Arial-BoldMT-74" transform="translate(183.398438 0)"/>
     <use xlink:href="#Arial-BoldMT-2d" transform="translate(216.699219 0)"/>
     <use xlink:href="#Arial-BoldMT-52" transform="translate(250 0)"/>
     <use xlink:href="#Arial-BoldMT-65" transform="translate(322.216797 0)"/>
     <use xlink:href="#Arial-BoldMT-63" transform="translate(377.832031 0)"/>
     <use xlink:href="#Arial-BoldMT-61" transform="translate(433.447266 0)"/>
     <use xlink:href="#Arial-BoldMT-6c" transform="translate(489.0625 0)"/>
     <use xlink:href="#Arial-BoldMT-69" transform="translate(516.845703 0)"/>
     <use xlink:href="#Arial-BoldMT-62" transform="translate(544.628906 0)"/>
     <use xlink:href="#Arial-BoldMT-72" transform="translate(605.712891 0)"/>
     <use xlink:href="#Arial-BoldMT-61" transform="translate(644.628906 0)"/>
     <use xlink:href="#Arial-BoldMT-74" transform="translate(700.244141 0)"/>
     <use xlink:href="#Arial-BoldMT-69" transform="translate(733.544922 0)"/>
     <use xlink:href="#Arial-BoldMT-6f" transform="translate(761.328125 0)"/>
     <use xlink:href="#Arial-BoldMT-6e" transform="translate(822.412109 0)"/>
     <use xlink:href="#Arial-BoldMT-20" transform="translate(883.496094 0)"/>
     <use xlink:href="#Arial-BoldMT-43" transform="translate(911.279297 0)"/>
     <use xlink:href="#Arial-BoldMT-75" transform="translate(983.496094 0)"/>
     <use xlink:href="#Arial-BoldMT-6d" transform="translate(1044.580078 0)"/>
     <use xlink:href="#Arial-BoldMT-75" transform="translate(1133.496094 0)"/>
     <use xlink:href="#Arial-BoldMT-6c" transform="translate(1194.580078 0)"/>
     <use xlink:href="#Arial-BoldMT-61" transform="translate(1222.363281 0)"/>
     <use xlink:href="#Arial-BoldMT-74" transform="translate(1277.978516 0)"/>
     <use xlink:href="#Arial-BoldMT-69" transform="translate(1311.279297 0)"/>
     <use xlink:href="#Arial-BoldMT-76" transform="translate(1339.0625 0)"/>
     <use xlink:href="#Arial-BoldMT-65" transform="translate(1394.677734 0)"/>
     <use xlink:href="#Arial-BoldMT-20" transform="translate(1450.292969 0)"/>
     <use xlink:href="#Arial-BoldMT-4e" transform="translate(1478.076172 0)"/>
     <use xlink:href="#Arial-BoldMT-65" transform="translate(1550.292969 0)"/>
     <use xlink:href="#Arial-BoldMT-74" transform="translate(1605.908203 0)"/>
     <use xlink:href="#Arial-BoldMT-20" transform="translate(1639.208984 0)"/>
     <use xlink:href="#Arial-BoldMT-52" transform="translate(1666.992188 0)"/>
     <use xlink:href="#Arial-BoldMT-65" transform="translate(1739.208984 0)"/>
     <use xlink:href="#Arial-BoldMT-76" transform="translate(1794.824219 0)"/>
     <use xlink:href="#Arial-BoldMT-65" transform="translate(1850.439453 0)"/>
     <use xlink:href="#Arial-BoldMT-6e" transform="translate(1906.054688 0)"/>
     <use xlink:href="#Arial-BoldMT-75" transform="translate(1967.138672 0)"/>
     <use xlink:href="#Arial-BoldMT-65" transform="translate(2028.222656 0)"/>
     <use xlink:href="#Arial-BoldMT-20" transform="translate(2083.837891 0)"/>
     <use xlink:href="#Arial-BoldMT-28" transform="translate(2111.621094 0)"/>
     <use xlink:href="#Arial-BoldMT-31" transform="translate(2144.921875 0)"/>
     <use xlink:href="#Arial-BoldMT-34" transform="translate(2200.537109 0)"/>
     <use xlink:href="#Arial-BoldMT-33" transform="translate(2256.152344 0)"/>
     <use xlink:href="#Arial-BoldMT-20" transform="translate(2311.767578 0)"/>
     <use xlink:href="#Arial-BoldMT-44" transform="translate(2339.550781 0)"/>
     <use xlink:href="#Arial-BoldMT-61" transform="translate(2411.767578 0)"/>
     <use xlink:href="#Arial-BoldMT-79" transform="translate(2467.382812 0)"/>
     <use xlink:href="#Arial-BoldMT-73" transform="translate(2522.998047 0)"/>
     <use xlink:href="#Arial-BoldMT-29" transform="translate(2578.613281 0)"/>
    </g>
   </g>
  </g>
 </g>
 <defs>
  <clipPath id="p1afb2ec2d7">
   <rect x="56.31" y="44.96" width="777.443368" height="313.668473"/>
  </clipPath>
 </defs>
</svg>
