<?xml version="1.0" encoding="utf-8" standalone="no"?>
<!DOCTYPE svg PUBLIC "-//W3C//DTD SVG 1.1//EN"
  "http://www.w3.org/Graphics/SVG/1.1/DTD/svg11.dtd">
<svg xmlns:xlink="http://www.w3.org/1999/xlink" width="720pt" height="432pt" viewBox="0 0 720 432" xmlns="http://www.w3.org/2000/svg" version="1.1">
 <metadata>
  <rdf:RDF xmlns:dc="http://purl.org/dc/elements/1.1/" xmlns:cc="http://creativecommons.org/ns#" xmlns:rdf="http://www.w3.org/1999/02/22-rdf-syntax-ns#">
   <cc:Work>
    <dc:type rdf:resource="http://purl.org/dc/dcmitype/StillImage"/>
    <dc:date>2026-02-14T01:55:56.726383</dc:date>
    <dc:format>image/svg+xml</dc:format>
    <dc:creator>
     <cc:Agent>
      <dc:title>Matplotlib v3.10.8, https://matplotlib.org/</dc:title>
     </cc:Agent>
    </dc:creator>
   </cc:Work>
  </rdf:RDF>
 </metadata>
 <defs>
  <style type="text/css">*{stroke-linejoin: round; stroke-linecap: butt}</style>
 </defs>
 <g id="figure_1">
  <g id="patch_1">
   <path d="M 0 432 
L 720 432 
L 720 0 
L 0 0 
z
" style="fill: #ffffff"/>
  </g>
  <g id="axes_1">
   <g id="patch_2">
    <path d="M 44.615 390.04 
L 709.2 390.04 
L 709.2 26.16 
L 44.615 26.16 
z
" style="fill: #ffffff"/>
   </g>
   <g id="patch_3">
    <path d="M 74.823409 390.04 
L 94.962348 390.04 
L 94.962348 368.380476 
L 74.823409 368.380476 
z
" clip-path="url(#p382d54edfc)" style="fill: #4c6b8b; fill-opacity: 0.6; stroke: #000000; stroke-linejoin: miter"/>
   </g>
   <g id="patch_4">
    <path d="M 94.962348 390.04 
L 115.101288 390.04 
L 115.101288 346.720952 
L 94.962348 346.720952 
z
" clip-path="url(#p382d54edfc)" style="fill: #4c6b8b; fill-opacity: 0.6; stroke: #000000; stroke-linejoin: miter"/>
   </g>
   <g id="patch_5">
    <path d="M 115.101288 390.04 
L 135.240227 390.04 
L 135.240227 325.061429 
L 115.101288 325.061429 
z
" clip-path="url(#p382d54edfc)" style="fill: #4c6b8b; fill-opacity: 0.6; stroke: #000000; stroke-linejoin: miter"/>
   </g>
   <g id="patch_6">
    <path d="M 135.240227 390.04 
L 155.379167 390.04 
L 155.379167 130.125714 
L 135.240227 130.125714 
z
" clip-path="url(#p382d54edfc)" style="fill: #4c6b8b; fill-opacity: 0.6; stroke: #000000; stroke-linejoin: miter"/>
   </g>
   <g id="patch_7">
    <path d="M 155.379167 390.04 
L 175.518106 390.04 
L 175.518106 325.061429 
L 155.379167 325.061429 
z
" clip-path="url(#p382d54edfc)" style="fill: #4c6b8b; fill-opacity: 0.6; stroke: #000000; stroke-linejoin: miter"/>
   </g>
   <g id="patch_8">
    <path d="M 175.518106 390.04 
L 195.657045 390.04 
L 195.657045 86.806667 
L 175.518106 86.806667 
z
" clip-path="url(#p382d54edfc)" style="fill: #4c6b8b; fill-opacity: 0.6; stroke: #000000; stroke-linejoin: miter"/>
   </g>
   <g id="patch_9">
    <path d="M 195.657045 390.04 
L 215.795985 390.04 
L 215.795985 108.46619 
L 195.657045 108.46619 
z
" clip-path="url(#p382d54edfc)" style="fill: #4c6b8b; fill-opacity: 0.6; stroke: #000000; stroke-linejoin: miter"/>
   </g>
   <g id="patch_10">
    <path d="M 215.795985 390.04 
L 235.934924 390.04 
L 235.934924 43.487619 
L 215.795985 43.487619 
z
" clip-path="url(#p382d54edfc)" style="fill: #4c6b8b; fill-opacity: 0.6; stroke: #000000; stroke-linejoin: miter"/>
   </g>
   <g id="patch_11">
    <path d="M 235.934924 390.04 
L 256.073864 390.04 
L 256.073864 195.104286 
L 235.934924 195.104286 
z
" clip-path="url(#p382d54edfc)" style="fill: #4c6b8b; fill-opacity: 0.6; stroke: #000000; stroke-linejoin: miter"/>
   </g>
   <g id="patch_12">
    <path d="M 256.073864 390.04 
L 276.212803 390.04 
L 276.212803 173.444762 
L 256.073864 173.444762 
z
" clip-path="url(#p382d54edfc)" style="fill: #4c6b8b; fill-opacity: 0.6; stroke: #000000; stroke-linejoin: miter"/>
   </g>
   <g id="patch_13">
    <path d="M 276.212803 390.04 
L 296.351742 390.04 
L 296.351742 216.76381 
L 276.212803 216.76381 
z
" clip-path="url(#p382d54edfc)" style="fill: #4c6b8b; fill-opacity: 0.6; stroke: #000000; stroke-linejoin: miter"/>
   </g>
   <g id="patch_14">
    <path d="M 296.351742 390.04 
L 316.490682 390.04 
L 316.490682 195.104286 
L 296.351742 195.104286 
z
" clip-path="url(#p382d54edfc)" style="fill: #4c6b8b; fill-opacity: 0.6; stroke: #000000; stroke-linejoin: miter"/>
   </g>
   <g id="patch_15">
    <path d="M 316.490682 390.04 
L 336.629621 390.04 
L 336.629621 195.104286 
L 316.490682 195.104286 
z
" clip-path="url(#p382d54edfc)" style="fill: #4c6b8b; fill-opacity: 0.6; stroke: #000000; stroke-linejoin: miter"/>
   </g>
   <g id="patch_16">
    <path d="M 336.629621 390.04 
L 356.768561 390.04 
L 356.768561 173.444762 
L 336.629621 173.444762 
z
" clip-path="url(#p382d54edfc)" style="fill: #4c6b8b; fill-opacity: 0.6; stroke: #000000; stroke-linejoin: miter"/>
   </g>
   <g id="patch_17">
    <path d="M 356.768561 390.04 
L 376.9075 390.04 
L 376.9075 281.742381 
L 356.768561 281.742381 
z
" clip-path="url(#p382d54edfc)" style="fill: #4c6b8b; fill-opacity: 0.6; stroke: #000000; stroke-linejoin: miter"/>
   </g>
   <g id="patch_18">
    <path d="M 376.9075 390.04 
L 397.046439 390.04 
L 397.046439 238.423333 
L 376.9075 238.423333 
z
" clip-path="url(#p382d54edfc)" style="fill: #4c6b8b; fill-opacity: 0.6; stroke: #000000; stroke-linejoin: miter"/>
   </g>
   <g id="patch_19">
    <path d="M 397.046439 390.04 
L 417.185379 390.04 
L 417.185379 325.061429 
L 397.046439 325.061429 
z
" clip-path="url(#p382d54edfc)" style="fill: #4c6b8b; fill-opacity: 0.6; stroke: #000000; stroke-linejoin: miter"/>
   </g>
   <g id="patch_20">
    <path d="M 417.185379 390.04 
L 437.324318 390.04 
L 437.324318 390.04 
L 417.185379 390.04 
z
" clip-path="url(#p382d54edfc)" style="fill: #4c6b8b; fill-opacity: 0.6; stroke: #000000; stroke-linejoin: miter"/>
   </g>
   <g id="patch_21">
    <path d="M 437.324318 390.04 
L 457.463258 390.04 
L 457.463258 325.061429 
L 437.324318 325.061429 
z
" clip-path="url(#p382d54edfc)" style="fill: #4c6b8b; fill-opacity: 0.6; stroke: #000000; stroke-linejoin: miter"/>
   </g>
   <g id="patch_22">
    <path d="M 457.463258 390.04 
L 477.602197 390.04 
L 477.602197 390.04 
L 457.463258 390.04 
z
" clip-path="url(#p382d54edfc)" style="fill: #4c6b8b; fill-opacity: 0.6; stroke: #000000; stroke-linejoin: miter"/>
   </g>
   <g id="patch_23">
    <path d="M 477.602197 390.04 
L 497.741136 390.04 
L 497.741136 368.380476 
L 477.602197 368.380476 
z
" clip-path="url(#p382d54edfc)" style="fill: #4c6b8b; fill-opacity: 0.6; stroke: #000000; stroke-linejoin: miter"/>
   </g>
   <g id="patch_24">
    <path d="M 497.741136 390.04 
L 517.880076 390.04 
L 517.880076 346.720952 
L 497.741136 346.720952 
z
" clip-path="url(#p382d54edfc)" style="fill: #4c6b8b; fill-opacity: 0.6; stroke: #000000; stroke-linejoin: miter"/>
   </g>
   <g id="patch_25">
    <path d="M 517.880076 390.04 
L 538.019015 390.04 
L 538.019015 368.380476 
L 517.880076 368.380476 
z
" clip-path="url(#p382d54edfc)" style="fill: #4c6b8b; fill-opacity: 0.6; stroke: #000000; stroke-linejoin: miter"/>
   </g>
   <g id="patch_26">
    <path d="M 538.019015 390.04 
L 558.157955 390.04 
L 558.157955 390.04 
L 538.019015 390.04 
z
" clip-path="url(#p382d54edfc)" style="fill: #4c6b8b; fill-opacity: 0.6; stroke: #000000; stroke-linejoin: miter"/>
   </g>
   <g id="patch_27">
    <path d="M 558.157955 390.04 
L 578.296894 390.04 
L 578.296894 390.04 
L 558.157955 390.04 
z
" clip-path="url(#p382d54edfc)" style="fill: #4c6b8b; fill-opacity: 0.6; stroke: #000000; stroke-linejoin: miter"/>
   </g>
   <g id="patch_28">
    <path d="M 578.296894 390.04 
L 598.435833 390.04 
L 598.435833 390.04 
L 578.296894 390.04 
z
" clip-path="url(#p382d54edfc)" style="fill: #4c6b8b; fill-opacity: 0.6; stroke: #000000; stroke-linejoin: miter"/>
   </g>
   <g id="patch_29">
    <path d="M 598.435833 390.04 
L 618.574773 390.04 
L 618.574773 390.04 
L 598.435833 390.04 
z
" clip-path="url(#p382d54edfc)" style="fill: #4c6b8b; fill-opacity: 0.6; stroke: #000000; stroke-linejoin: miter"/>
   </g>
   <g id="patch_30">
    <path d="M 618.574773 390.04 
L 638.713712 390.04 
L 638.713712 390.04 
L 618.574773 390.04 
z
" clip-path="url(#p382d54edfc)" style="fill: #4c6b8b; fill-opacity: 0.6; stroke: #000000; stroke-linejoin: miter"/>
   </g>
   <g id="patch_31">
    <path d="M 638.713712 390.04 
L 658.852652 390.04 
L 658.852652 390.04 
L 638.713712 390.04 
z
" clip-path="url(#p382d54edfc)" style="fill: #4c6b8b; fill-opacity: 0.6; stroke: #000000; stroke-linejoin: miter"/>
   </g>
   <g id="patch_32">
    <path d="M 658.852652 390.04 
L 678.991591 390.04 
L 678.991591 346.720952 
L 658.852652 346.720952 
z
" clip-path="url(#p382d54edfc)" style="fill: #4c6b8b; fill-opacity: 0.6; stroke: #000000; stroke-linejoin: miter"/>
   </g>
   <g id="matplotlib.axis_1">
    <g id="xtick_1">
     <g id="line2d_1">
      <path d="M 67.378547 390.04 
L 67.378547 26.16 
" clip-path="url(#p382d54edfc)" style="fill: none; stroke: #cccccc; stroke-opacity: 0.2; stroke-width: 0.8; stroke-linecap: square"/>
     </g>
     <g id="line2d_2">
      <defs>
       <path id="m300152bdfd" d="M 0 0 
L 0 3.5 
" style="stroke: #000000; stroke-width: 0.8"/>
      </defs>
      <g>
       <use xlink:href="#m300152bdfd" x="67.378547" y="390.04" style="stroke: #000000; stroke-width: 0.8"/>
      </g>
     </g>
     <g id="text_1">
      <!-- 0 -->
      <g transform="translate(64.197297 404.638438) scale(0.1 -0.1)">
       <defs>
        <path id="DejaVuSans-30" d="M 2034 4250 
Q 1547 4250 1301 3770 
Q 1056 3291 1056 2328 
Q 1056 1369 1301 889 
Q 1547 409 2034 409 
Q 2525 409 2770 889 
Q 3016 1369 3016 2328 
Q 3016 3291 2770 3770 
Q 2525 4250 2034 4250 
z
M 2034 4750 
Q 2819 4750 3233 4129 
Q 3647 3509 3647 2328 
Q 3647 1150 3233 529 
Q 2819 -91 2034 -91 
Q 1250 -91 836 529 
Q 422 1150 422 2328 
Q 422 3509 836 4129 
Q 1250 4750 2034 4750 
z
" transform="scale(0.015625)"/>
       </defs>
       <use xlink:href="#DejaVuSans-30"/>
      </g>
     </g>
    </g>
    <g id="xtick_2">
     <g id="line2d_3">
      <path d="M 213.418619 390.04 
L 213.418619 26.16 
" clip-path="url(#p382d54edfc)" style="fill: none; stroke: #cccccc; stroke-opacity: 0.2; stroke-width: 0.8; stroke-linecap: square"/>
     </g>
     <g id="line2d_4">
      <g>
       <use xlink:href="#m300152bdfd" x="213.418619" y="390.04" style="stroke: #000000; stroke-width: 0.8"/>
      </g>
     </g>
     <g id="text_2">
      <!-- 1000 -->
      <g transform="translate(200.693619 404.638438) scale(0.1 -0.1)">
       <defs>
        <path id="DejaVuSans-31" d="M 794 531 
L 1825 531 
L 1825 4091 
L 703 3866 
L 703 4441 
L 1819 4666 
L 2450 4666 
L 2450 531 
L 3481 531 
L 3481 0 
L 794 0 
L 794 531 
z
" transform="scale(0.015625)"/>
       </defs>
       <use xlink:href="#DejaVuSans-31"/>
       <use xlink:href="#DejaVuSans-30" transform="translate(63.623047 0)"/>
       <use xlink:href="#DejaVuSans-30" transform="translate(127.246094 0)"/>
       <use xlink:href="#DejaVuSans-30" transform="translate(190.869141 0)"/>
      </g>
     </g>
    </g>
    <g id="xtick_3">
     <g id="line2d_5">
      <path d="M 359.458691 390.04 
L 359.458691 26.16 
" clip-path="url(#p382d54edfc)" style="fill: none; stroke: #cccccc; stroke-opacity: 0.2; stroke-width: 0.8; stroke-linecap: square"/>
     </g>
     <g id="line2d_6">
      <g>
       <use xlink:href="#m300152bdfd" x="359.458691" y="390.04" style="stroke: #000000; stroke-width: 0.8"/>
      </g>
     </g>
     <g id="text_3">
      <!-- 2000 -->
      <g transform="translate(346.733691 404.638438) scale(0.1 -0.1)">
       <defs>
        <path id="DejaVuSans-32" d="M 1228 531 
L 3431 531 
L 3431 0 
L 469 0 
L 469 531 
Q 828 903 1448 1529 
Q 2069 2156 2228 2338 
Q 2531 2678 2651 2914 
Q 2772 3150 2772 3378 
Q 2772 3750 2511 3984 
Q 2250 4219 1831 4219 
Q 1534 4219 1204 4116 
Q 875 4013 500 3803 
L 500 4441 
Q 881 4594 1212 4672 
Q 1544 4750 1819 4750 
Q 2544 4750 2975 4387 
Q 3406 4025 3406 3419 
Q 3406 3131 3298 2873 
Q 3191 2616 2906 2266 
Q 2828 2175 2409 1742 
Q 1991 1309 1228 531 
z
" transform="scale(0.015625)"/>
       </defs>
       <use xlink:href="#DejaVuSans-32"/>
       <use xlink:href="#DejaVuSans-30" transform="translate(63.623047 0)"/>
       <use xlink:href="#DejaVuSans-30" transform="translate(127.246094 0)"/>
       <use xlink:href="#DejaVuSans-30" transform="translate(190.869141 0)"/>
      </g>
     </g>
    </g>
    <g id="xtick_4">
     <g id="line2d_7">
      <path d="M 505.498762 390.04 
L 505.498762 26.16 
" clip-path="url(#p382d54edfc)" style="fill: none; stroke: #cccccc; stroke-opacity: 0.2; stroke-width: 0.8; stroke-linecap: square"/>
     </g>
     <g id="line2d_8">
      <g>
       <use xlink:href="#m300152bdfd" x="505.498762" y="390.04" style="stroke: #000000; stroke-width: 0.8"/>
      </g>
     </g>
     <g id="text_4">
      <!-- 3000 -->
      <g transform="translate(492.773762 404.638438) scale(0.1 -0.1)">
       <defs>
        <path id="DejaVuSans-33" d="M 2597 2516 
Q 3050 2419 3304 2112 
Q 3559 1806 3559 1356 
Q 3559 666 3084 287 
Q 2609 -91 1734 -91 
Q 1441 -91 1130 -33 
Q 819 25 488 141 
L 488 750 
Q 750 597 1062 519 
Q 1375 441 1716 441 
Q 2309 441 2620 675 
Q 2931 909 2931 1356 
Q 2931 1769 2642 2001 
Q 2353 2234 1838 2234 
L 1294 2234 
L 1294 2753 
L 1863 2753 
Q 2328 2753 2575 2939 
Q 2822 3125 2822 3475 
Q 2822 3834 2567 4026 
Q 2313 4219 1838 4219 
Q 1578 4219 1281 4162 
Q 984 4106 628 3988 
L 628 4550 
Q 988 4650 1302 4700 
Q 1616 4750 1894 4750 
Q 2613 4750 3031 4423 
Q 3450 4097 3450 3541 
Q 3450 3153 3228 2886 
Q 3006 2619 2597 2516 
z
" transform="scale(0.015625)"/>
       </defs>
       <use xlink:href="#DejaVuSans-33"/>
       <use xlink:href="#DejaVuSans-30" transform="translate(63.623047 0)"/>
       <use xlink:href="#DejaVuSans-30" transform="translate(127.246094 0)"/>
       <use xlink:href="#DejaVuSans-30" transform="translate(190.869141 0)"/>
      </g>
     </g>
    </g>
    <g id="xtick_5">
     <g id="line2d_9">
      <path d="M 651.538834 390.04 
L 651.538834 26.16 
" clip-path="url(#p382d54edfc)" style="fill: none; stroke: #cccccc; stroke-opacity: 0.2; stroke-width: 0.8; stroke-linecap: square"/>
     </g>
     <g id="line2d_10">
      <g>
       <use xlink:href="#m300152bdfd" x="651.538834" y="390.04" style="stroke: #000000; stroke-width: 0.8"/>
      </g>
     </g>
     <g id="text_5">
      <!-- 4000 -->
      <g transform="translate(638.813834 404.638438) scale(0.1 -0.1)">
       <defs>
        <path id="DejaVuSans-34" d="M 2419 4116 
L 825 1625 
L 2419 1625 
L 2419 4116 
z
M 2253 4666 
L 3047 4666 
L 3047 1625 
L 3713 1625 
L 3713 1100 
L 3047 1100 
L 3047 0 
L 2419 0 
L 2419 1100 
L 313 1100 
L 313 1709 
L 2253 4666 
z
" transform="scale(0.015625)"/>
       </defs>
       <use xlink:href="#DejaVuSans-34"/>
       <use xlink:href="#DejaVuSans-30" transform="translate(63.623047 0)"/>
       <use xlink:href="#DejaVuSans-30" transform="translate(127.246094 0)"/>
       <use xlink:href="#DejaVuSans-30" transform="translate(190.869141 0)"/>
      </g>
     </g>
    </g>
    <g id="text_6">
     <!-- Daily Realized Revenue (₹K) -->
     <g transform="translate(306.308281 418.316562) scale(0.1 -0.1)">
      <defs>
       <path id="DejaVuSans-44" d="M 1259 4147 
L 1259 519 
L 2022 519 
Q 2988 519 3436 956 
Q 3884 1394 3884 2338 
Q 3884 3275 3436 3711 
Q 2988 4147 2022 4147 
L 1259 4147 
z
M 628 4666 
L 1925 4666 
Q 3281 4666 3915 4102 
Q 4550 3538 4550 2338 
Q 4550 1131 3912 565 
Q 3275 0 1925 0 
L 628 0 
L 628 4666 
z
" transform="scale(0.015625)"/>
       <path id="DejaVuSans-61" d="M 2194 1759 
Q 1497 1759 1228 1600 
Q 959 1441 959 1056 
Q 959 750 1161 570 
Q 1363 391 1709 391 
Q 2188 391 2477 730 
Q 2766 1069 2766 1631 
L 2766 1759 
L 2194 1759 
z
M 3341 1997 
L 3341 0 
L 2766 0 
L 2766 531 
Q 2569 213 2275 61 
Q 1981 -91 1556 -91 
Q 1019 -91 701 211 
Q 384 513 384 1019 
Q 384 1609 779 1909 
Q 1175 2209 1959 2209 
L 2766 2209 
L 2766 2266 
Q 2766 2663 2505 2880 
Q 2244 3097 1772 3097 
Q 1472 3097 1187 3025 
Q 903 2953 641 2809 
L 641 3341 
Q 956 3463 1253 3523 
Q 1550 3584 1831 3584 
Q 2591 3584 2966 3190 
Q 3341 2797 3341 1997 
z
" transform="scale(0.015625)"/>
       <path id="DejaVuSans-69" d="M 603 3500 
L 1178 3500 
L 1178 0 
L 603 0 
L 603 3500 
z
M 603 4863 
L 1178 4863 
L 1178 4134 
L 603 4134 
L 603 4863 
z
" transform="scale(0.015625)"/>
       <path id="DejaVuSans-6c" d="M 603 4863 
L 1178 4863 
L 1178 0 
L 603 0 
L 603 4863 
z
" transform="scale(0.015625)"/>
       <path id="DejaVuSans-79" d="M 2059 -325 
Q 1816 -950 1584 -1140 
Q 1353 -1331 966 -1331 
L 506 -1331 
L 506 -850 
L 844 -850 
Q 1081 -850 1212 -737 
Q 1344 -625 1503 -206 
L 1606 56 
L 191 3500 
L 800 3500 
L 1894 763 
L 2988 3500 
L 3597 3500 
L 2059 -325 
z
" transform="scale(0.015625)"/>
       <path id="DejaVuSans-20" transform="scale(0.015625)"/>
       <path id="DejaVuSans-52" d="M 2841 2188 
Q 3044 2119 3236 1894 
Q 3428 1669 3622 1275 
L 4263 0 
L 3584 0 
L 2988 1197 
Q 2756 1666 2539 1819 
Q 2322 1972 1947 1972 
L 1259 1972 
L 1259 0 
L 628 0 
L 628 4666 
L 2053 4666 
Q 2853 4666 3247 4331 
Q 3641 3997 3641 3322 
Q 3641 2881 3436 2590 
Q 3231 2300 2841 2188 
z
M 1259 4147 
L 1259 2491 
L 2053 2491 
Q 2509 2491 2742 2702 
Q 2975 2913 2975 3322 
Q 2975 3731 2742 3939 
Q 2509 4147 2053 4147 
L 1259 4147 
z
" transform="scale(0.015625)"/>
       <path id="DejaVuSans-65" d="M 3597 1894 
L 3597 1613 
L 953 1613 
Q 991 1019 1311 708 
Q 1631 397 2203 397 
Q 2534 397 2845 478 
Q 3156 559 3463 722 
L 3463 178 
Q 3153 47 2828 -22 
Q 2503 -91 2169 -91 
Q 1331 -91 842 396 
Q 353 884 353 1716 
Q 353 2575 817 3079 
Q 1281 3584 2069 3584 
Q 2775 3584 3186 3129 
Q 3597 2675 3597 1894 
z
M 3022 2063 
Q 3016 2534 2758 2815 
Q 2500 3097 2075 3097 
Q 1594 3097 1305 2825 
Q 1016 2553 972 2059 
L 3022 2063 
z
" transform="scale(0.015625)"/>
       <path id="DejaVuSans-7a" d="M 353 3500 
L 3084 3500 
L 3084 2975 
L 922 459 
L 3084 459 
L 3084 0 
L 275 0 
L 275 525 
L 2438 3041 
L 353 3041 
L 353 3500 
z
" transform="scale(0.015625)"/>
       <path id="DejaVuSans-64" d="M 2906 2969 
L 2906 4863 
L 3481 4863 
L 3481 0 
L 2906 0 
L 2906 525 
Q 2725 213 2448 61 
Q 2172 -91 1784 -91 
Q 1150 -91 751 415 
Q 353 922 353 1747 
Q 353 2572 751 3078 
Q 1150 3584 1784 3584 
Q 2172 3584 2448 3432 
Q 2725 3281 2906 2969 
z
M 947 1747 
Q 947 1113 1208 752 
Q 1469 391 1925 391 
Q 2381 391 2643 752 
Q 2906 1113 2906 1747 
Q 2906 2381 2643 2742 
Q 2381 3103 1925 3103 
Q 1469 3103 1208 2742 
Q 947 2381 947 1747 
z
" transform="scale(0.015625)"/>
       <path id="DejaVuSans-76" d="M 191 3500 
L 800 3500 
L 1894 563 
L 2988 3500 
L 3597 3500 
L 2284 0 
L 1503 0 
L 191 3500 
z
" transform="scale(0.015625)"/>
       <path id="DejaVuSans-6e" d="M 3513 2113 
L 3513 0 
L 2938 0 
L 2938 2094 
Q 2938 2591 2744 2837 
Q 2550 3084 2163 3084 
Q 1697 3084 1428 2787 
Q 1159 2491 1159 1978 
L 1159 0 
L 581 0 
L 581 3500 
L 1159 3500 
L 1159 2956 
Q 1366 3272 1645 3428 
Q 1925 3584 2291 3584 
Q 2894 3584 3203 3211 
Q 3513 2838 3513 2113 
z
" transform="scale(0.015625)"/>
       <path id="DejaVuSans-75" d="M 544 1381 
L 544 3500 
L 1119 3500 
L 1119 1403 
Q 1119 906 1312 657 
Q 1506 409 1894 409 
Q 2359 409 2629 706 
Q 2900 1003 2900 1516 
L 2900 3500 
L 3475 3500 
L 3475 0 
L 2900 0 
L 2900 538 
Q 2691 219 2414 64 
Q 2138 -91 1772 -91 
Q 1169 -91 856 284 
Q 544 659 544 1381 
z
M 1991 3584 
L 1991 3584 
z
" transform="scale(0.015625)"/>
       <path id="DejaVuSans-28" d="M 1984 4856 
Q 1566 4138 1362 3434 
Q 1159 2731 1159 2009 
Q 1159 1288 1364 580 
Q 1569 -128 1984 -844 
L 1484 -844 
Q 1016 -109 783 600 
Q 550 1309 550 2009 
Q 550 2706 781 3412 
Q 1013 4119 1484 4856 
L 1984 4856 
z
" transform="scale(0.015625)"/>
       <path id="DejaVuSans-20b9" d="M 331 4281 
L 503 4666 
L 3747 4666 
L 3575 4281 
L 2469 4281 
Q 2716 4038 2781 3634 
L 3747 3634 
L 3575 3250 
L 2806 3250 
Q 2791 2856 2600 2591 
Q 2397 2300 2006 2188 
Q 2209 2119 2400 1894 
Q 2584 1681 2788 1275 
L 3428 0 
L 2750 0 
L 2153 1197 
Q 1919 1669 1706 1819 
Q 1488 1972 1113 1972 
L 425 1972 
L 425 2491 
L 1219 2491 
Q 1675 2491 1906 2700 
Q 2119 2894 2138 3250 
L 331 3250 
L 503 3634 
L 2103 3634 
Q 2047 3844 1906 4006 
Q 1675 4281 1219 4281 
L 331 4281 
z
" transform="scale(0.015625)"/>
       <path id="DejaVuSans-4b" d="M 628 4666 
L 1259 4666 
L 1259 2694 
L 3353 4666 
L 4166 4666 
L 1850 2491 
L 4331 0 
L 3500 0 
L 1259 2247 
L 1259 0 
L 628 0 
L 628 4666 
z
" transform="scale(0.015625)"/>
       <path id="DejaVuSans-29" d="M 513 4856 
L 1013 4856 
Q 1481 4119 1714 3412 
Q 1947 2706 1947 2009 
Q 1947 1309 1714 600 
Q 1481 -109 1013 -844 
L 513 -844 
Q 928 -128 1133 580 
Q 1338 1288 1338 2009 
Q 1338 2731 1133 3434 
Q 928 4138 513 4856 
z
" transform="scale(0.015625)"/>
      </defs>
      <use xlink:href="#DejaVuSans-44"/>
      <use xlink:href="#DejaVuSans-61" transform="translate(77.001953 0)"/>
      <use xlink:href="#DejaVuSans-69" transform="translate(138.28125 0)"/>
      <use xlink:href="#DejaVuSans-6c" transform="translate(166.064453 0)"/>
      <use xlink:href="#DejaVuSans-79" transform="translate(193.847656 0)"/>
      <use xlink:href="#DejaVuSans-20" transform="translate(253.027344 0)"/>
      <use xlink:href="#DejaVuSans-52" transform="translate(284.814453 0)"/>
      <use xlink:href="#DejaVuSans-65" transform="translate(349.796875 0)"/>
      <use xlink:href="#DejaVuSans-61" transform="translate(411.320312 0)"/>
      <use xlink:href="#DejaVuSans-6c" transform="translate(472.599609 0)"/>
      <use xlink:href="#DejaVuSans-69" transform="translate(500.382812 0)"/>
      <use xlink:href="#DejaVuSans-7a" transform="translate(528.166016 0)"/>
      <use xlink:href="#DejaVuSans-65" transform="translate(580.65625 0)"/>
      <use xlink:href="#DejaVuSans-64" transform="translate(642.179688 0)"/>
      <use xlink:href="#DejaVuSans-20" transform="translate(705.65625 0)"/>
      <use xlink:href="#DejaVuSans-52" transform="translate(737.443359 0)"/>
      <use xlink:href="#DejaVuSans-65" transform="translate(802.425781 0)"/>
      <use xlink:href="#DejaVuSans-76" transform="translate(863.949219 0)"/>
      <use xlink:href="#DejaVuSans-65" transform="translate(923.128906 0)"/>
      <use xlink:href="#DejaVuSans-6e" transform="translate(984.652344 0)"/>
      <use xlink:href="#DejaVuSans-75" transform="translate(1048.03125 0)"/>
      <use xlink:href="#DejaVuSans-65" transform="translate(1111.410156 0)"/>
      <use xlink:href="#DejaVuSans-20" transform="translate(1172.933594 0)"/>
      <use xlink:href="#DejaVuSans-28" transform="translate(1204.720703 0)"/>
      <use xlink:href="#DejaVuSans-20b9" transform="translate(1243.734375 0)"/>
      <use xlink:href="#DejaVuSans-4b" transform="translate(1307.357422 0)"/>
      <use xlink:href="#DejaVuSans-29" transform="translate(1372.933594 0)"/>
     </g>
    </g>
   </g>
   <g id="matplotlib.axis_2">
    <g id="ytick_1">
     <g id="line2d_11">
      <defs>
       <path id="m5a4179b997" d="M 0 0 
L -3.5 0 
" style="stroke: #000000; stroke-width: 0.8"/>
      </defs>
      <g>
       <use xlink:href="#m5a4179b997" x="44.615" y="390.04" style="stroke: #000000; stroke-width: 0.8"/>
      </g>
     </g>
     <g id="text_7">
      <!-- 0 -->
      <g transform="translate(31.2525 393.839219) scale(0.1 -0.1)">
       <use xlink:href="#DejaVuSans-30"/>
      </g>
     </g>
    </g>
    <g id="ytick_2">
     <g id="line2d_12">
      <g>
       <use xlink:href="#m5a4179b997" x="44.615" y="346.720952" style="stroke: #000000; stroke-width: 0.8"/>
      </g>
     </g>
     <g id="text_8">
      <!-- 2 -->
      <g transform="translate(31.2525 350.520171) scale(0.1 -0.1)">
       <use xlink:href="#DejaVuSans-32"/>
      </g>
     </g>
    </g>
    <g id="ytick_3">
     <g id="line2d_13">
      <g>
       <use xlink:href="#m5a4179b997" x="44.615" y="303.401905" style="stroke: #000000; stroke-width: 0.8"/>
      </g>
     </g>
     <g id="text_9">
      <!-- 4 -->
      <g transform="translate(31.2525 307.201124) scale(0.1 -0.1)">
       <use xlink:href="#DejaVuSans-34"/>
      </g>
     </g>
    </g>
    <g id="ytick_4">
     <g id="line2d_14">
      <g>
       <use xlink:href="#m5a4179b997" x="44.615" y="260.082857" style="stroke: #000000; stroke-width: 0.8"/>
      </g>
     </g>
     <g id="text_10">
      <!-- 6 -->
      <g transform="translate(31.2525 263.882076) scale(0.1 -0.1)">
       <defs>
        <path id="DejaVuSans-36" d="M 2113 2584 
Q 1688 2584 1439 2293 
Q 1191 2003 1191 1497 
Q 1191 994 1439 701 
Q 1688 409 2113 409 
Q 2538 409 2786 701 
Q 3034 994 3034 1497 
Q 3034 2003 2786 2293 
Q 2538 2584 2113 2584 
z
M 3366 4563 
L 3366 3988 
Q 3128 4100 2886 4159 
Q 2644 4219 2406 4219 
Q 1781 4219 1451 3797 
Q 1122 3375 1075 2522 
Q 1259 2794 1537 2939 
Q 1816 3084 2150 3084 
Q 2853 3084 3261 2657 
Q 3669 2231 3669 1497 
Q 3669 778 3244 343 
Q 2819 -91 2113 -91 
Q 1303 -91 875 529 
Q 447 1150 447 2328 
Q 447 3434 972 4092 
Q 1497 4750 2381 4750 
Q 2619 4750 2861 4703 
Q 3103 4656 3366 4563 
z
" transform="scale(0.015625)"/>
       </defs>
       <use xlink:href="#DejaVuSans-36"/>
      </g>
     </g>
    </g>
    <g id="ytick_5">
     <g id="line2d_15">
      <g>
       <use xlink:href="#m5a4179b997" x="44.615" y="216.76381" style="stroke: #000000; stroke-width: 0.8"/>
      </g>
     </g>
     <g id="text_11">
      <!-- 8 -->
      <g transform="translate(31.2525 220.563028) scale(0.1 -0.1)">
       <defs>
        <path id="DejaVuSans-38" d="M 2034 2216 
Q 1584 2216 1326 1975 
Q 1069 1734 1069 1313 
Q 1069 891 1326 650 
Q 1584 409 2034 409 
Q 2484 409 2743 651 
Q 3003 894 3003 1313 
Q 3003 1734 2745 1975 
Q 2488 2216 2034 2216 
z
M 1403 2484 
Q 997 2584 770 2862 
Q 544 3141 544 3541 
Q 544 4100 942 4425 
Q 1341 4750 2034 4750 
Q 2731 4750 3128 4425 
Q 3525 4100 3525 3541 
Q 3525 3141 3298 2862 
Q 3072 2584 2669 2484 
Q 3125 2378 3379 2068 
Q 3634 1759 3634 1313 
Q 3634 634 3220 271 
Q 2806 -91 2034 -91 
Q 1263 -91 848 271 
Q 434 634 434 1313 
Q 434 1759 690 2068 
Q 947 2378 1403 2484 
z
M 1172 3481 
Q 1172 3119 1398 2916 
Q 1625 2713 2034 2713 
Q 2441 2713 2670 2916 
Q 2900 3119 2900 3481 
Q 2900 3844 2670 4047 
Q 2441 4250 2034 4250 
Q 1625 4250 1398 4047 
Q 1172 3844 1172 3481 
z
" transform="scale(0.015625)"/>
       </defs>
       <use xlink:href="#DejaVuSans-38"/>
      </g>
     </g>
    </g>
    <g id="ytick_6">
     <g id="line2d_16">
      <g>
       <use xlink:href="#m5a4179b997" x="44.615" y="173.444762" style="stroke: #000000; stroke-width: 0.8"/>
      </g>
     </g>
     <g id="text_12">
      <!-- 10 -->
      <g transform="translate(24.89 177.243981) scale(0.1 -0.1)">
       <use xlink:href="#DejaVuSans-31"/>
       <use xlink:href="#DejaVuSans-30" transform="translate(63.623047 0)"/>
      </g>
     </g>
    </g>
    <g id="ytick_7">
     <g id="line2d_17">
      <g>
       <use xlink:href="#m5a4179b997" x="44.615" y="130.125714" style="stroke: #000000; stroke-width: 0.8"/>
      </g>
     </g>
     <g id="text_13">
      <!-- 12 -->
      <g transform="translate(24.89 133.924933) scale(0.1 -0.1)">
       <use xlink:href="#DejaVuSans-31"/>
       <use xlink:href="#DejaVuSans-32" transform="translate(63.623047 0)"/>
      </g>
     </g>
    </g>
    <g id="ytick_8">
     <g id="line2d_18">
      <g>
       <use xlink:href="#m5a4179b997" x="44.615" y="86.806667" style="stroke: #000000; stroke-width: 0.8"/>
      </g>
     </g>
     <g id="text_14">
      <!-- 14 -->
      <g transform="translate(24.89 90.605885) scale(0.1 -0.1)">
       <use xlink:href="#DejaVuSans-31"/>
       <use xlink:href="#DejaVuSans-34" transform="translate(63.623047 0)"/>
      </g>
     </g>
    </g>
    <g id="ytick_9">
     <g id="line2d_19">
      <g>
       <use xlink:href="#m5a4179b997" x="44.615" y="43.487619" style="stroke: #000000; stroke-width: 0.8"/>
      </g>
     </g>
     <g id="text_15">
      <!-- 16 -->
      <g transform="translate(24.89 47.286838) scale(0.1 -0.1)">
       <use xlink:href="#DejaVuSans-31"/>
       <use xlink:href="#DejaVuSans-36" transform="translate(63.623047 0)"/>
      </g>
     </g>
    </g>
    <g id="text_16">
     <!-- Frequency -->
     <g transform="translate(18.810313 233.929687) rotate(-90) scale(0.1 -0.1)">
      <defs>
       <path id="DejaVuSans-46" d="M 628 4666 
L 3309 4666 
L 3309 4134 
L 1259 4134 
L 1259 2759 
L 3109 2759 
L 3109 2228 
L 1259 2228 
L 1259 0 
L 628 0 
L 628 4666 
z
" transform="scale(0.015625)"/>
       <path id="DejaVuSans-72" d="M 2631 2963 
Q 2534 3019 2420 3045 
Q 2306 3072 2169 3072 
Q 1681 3072 1420 2755 
Q 1159 2438 1159 1844 
L 1159 0 
L 581 0 
L 581 3500 
L 1159 3500 
L 1159 2956 
Q 1341 3275 1631 3429 
Q 1922 3584 2338 3584 
Q 2397 3584 2469 3576 
Q 2541 3569 2628 3553 
L 2631 2963 
z
" transform="scale(0.015625)"/>
       <path id="DejaVuSans-71" d="M 947 1747 
Q 947 1113 1208 752 
Q 1469 391 1925 391 
Q 2381 391 2643 752 
Q 2906 1113 2906 1747 
Q 2906 2381 2643 2742 
Q 2381 3103 1925 3103 
Q 1469 3103 1208 2742 
Q 947 2381 947 1747 
z
M 2906 525 
Q 2725 213 2448 61 
Q 2172 -91 1784 -91 
Q 1150 -91 751 415 
Q 353 922 353 1747 
Q 353 2572 751 3078 
Q 1150 3584 1784 3584 
Q 2172 3584 2448 3432 
Q 2725 3281 2906 2969 
L 2906 3500 
L 3481 3500 
L 3481 -1331 
L 2906 -1331 
L 2906 525 
z
" transform="scale(0.015625)"/>
       <path id="DejaVuSans-63" d="M 3122 3366 
L 3122 2828 
Q 2878 2963 2633 3030 
Q 2388 3097 2138 3097 
Q 1578 3097 1268 2742 
Q 959 2388 959 1747 
Q 959 1106 1268 751 
Q 1578 397 2138 397 
Q 2388 397 2633 464 
Q 2878 531 3122 666 
L 3122 134 
Q 2881 22 2623 -34 
Q 2366 -91 2075 -91 
Q 1284 -91 818 406 
Q 353 903 353 1747 
Q 353 2603 823 3093 
Q 1294 3584 2113 3584 
Q 2378 3584 2631 3529 
Q 2884 3475 3122 3366 
z
" transform="scale(0.015625)"/>
      </defs>
      <use xlink:href="#DejaVuSans-46"/>
      <use xlink:href="#DejaVuSans-72" transform="translate(50.269531 0)"/>
      <use xlink:href="#DejaVuSans-65" transform="translate(89.132812 0)"/>
      <use xlink:href="#DejaVuSans-71" transform="translate(150.65625 0)"/>
      <use xlink:href="#DejaVuSans-75" transform="translate(214.132812 0)"/>
      <use xlink:href="#DejaVuSans-65" transform="translate(277.511719 0)"/>
      <use xlink:href="#DejaVuSans-6e" transform="translate(339.035156 0)"/>
      <use xlink:href="#DejaVuSans-63" transform="translate(402.414062 0)"/>
      <use xlink:href="#DejaVuSans-79" transform="translate(457.394531 0)"/>
     </g>
    </g>
   </g>
   <g id="line2d_20">
    <path d="M 74.823409 360.401824 
L 77.85943 357.410835 
L 80.895451 354.210638 
L 83.931472 350.79777 
L 86.967493 347.170194 
L 90.003514 343.327434 
L 93.039535 339.270666 
L 96.075556 335.002791 
L 99.111577 330.528455 
L 105.183619 320.987522 
L 111.255661 310.717912 
L 117.327703 299.811457 
L 123.399745 288.375225 
L 129.471787 276.523916 
L 138.57985 258.219668 
L 162.868019 208.864643 
L 168.940061 196.997036 
L 175.012103 185.589816 
L 181.084145 174.823788 
L 184.120166 169.745304 
L 187.156187 164.906791 
L 190.192208 160.337021 
L 193.228229 156.064986 
L 196.26425 152.11928 
L 199.300271 148.527408 
L 202.336292 145.315069 
L 205.372313 142.505416 
L 208.408334 140.118345 
L 211.444355 138.16982 
L 214.480376 136.671282 
L 217.516397 135.629153 
L 220.552418 135.044463 
L 223.588439 134.912615 
L 226.62446 135.223306 
L 229.660481 135.960596 
L 232.696502 137.103146 
L 235.732523 138.624596 
L 238.768544 140.494085 
L 241.804565 142.676898 
L 244.840586 145.135208 
L 247.876607 147.828899 
L 253.948649 153.755765 
L 260.020691 160.124288 
L 272.164775 172.974273 
L 278.236817 178.977469 
L 284.308859 184.495817 
L 290.380901 189.47237 
L 296.452943 193.923996 
L 302.524985 197.931711 
L 308.597027 201.626531 
L 323.777132 210.606373 
L 329.849174 214.560138 
L 335.921216 218.956754 
L 338.957237 221.359081 
L 341.993258 223.912908 
L 345.029279 226.626612 
L 348.0653 229.505886 
L 351.101321 232.553716 
L 354.137342 235.770403 
L 360.209384 242.69855 
L 366.281426 250.242346 
L 372.353468 258.318307 
L 378.425511 266.813489 
L 387.533574 280.041989 
L 399.677658 297.782928 
L 405.7497 306.349579 
L 411.821742 314.523624 
L 417.893784 322.184328 
L 423.965826 329.234512 
L 427.001847 332.507558 
L 430.037868 335.603763 
L 433.073889 338.518752 
L 436.10991 341.249924 
L 439.145931 343.79641 
L 442.181952 346.15903 
L 445.217973 348.340219 
L 448.253994 350.343956 
L 451.290015 352.17567 
L 454.326036 353.842152 
L 457.362057 355.351448 
L 460.398078 356.712751 
L 463.434099 357.936291 
L 469.506141 360.015394 
L 475.578183 361.686257 
L 481.650225 363.053842 
L 490.758288 364.769214 
L 505.938393 367.523252 
L 515.046456 369.486467 
L 521.118498 370.988397 
L 530.226561 373.50654 
L 557.55075 381.536163 
L 563.622792 383.058229 
L 569.694834 384.384555 
L 575.766876 385.48882 
L 581.838918 386.356047 
L 587.91096 386.980979 
L 593.983003 387.366043 
L 600.055045 387.519497 
L 606.127087 387.454214 
L 612.199129 387.187316 
L 618.271171 386.740588 
L 627.379234 385.794958 
L 639.523318 384.215988 
L 651.667402 382.621399 
L 660.775465 381.667685 
L 666.847507 381.236268 
L 672.919549 381.008268 
L 678.991591 381.001565 
L 678.991591 381.001565 
" clip-path="url(#p382d54edfc)" style="fill: none; stroke: #4c6b8b; stroke-width: 1.5; stroke-linecap: square"/>
   </g>
   <g id="line2d_21">
    <path d="M 149.538291 390.04 
L 149.538291 26.16 
" clip-path="url(#p382d54edfc)" style="fill: none; stroke-dasharray: 5.55,2.4; stroke-dashoffset: 0; stroke: #d17a6d; stroke-width: 1.5"/>
   </g>
   <g id="line2d_22">
    <path d="M 248.806522 390.04 
L 248.806522 26.16 
" clip-path="url(#p382d54edfc)" style="fill: none; stroke-dasharray: 5.55,2.4; stroke-dashoffset: 0; stroke: #6c9a8b; stroke-width: 1.5"/>
   </g>
   <g id="line2d_23">
    <path d="M 269.662899 390.04 
L 269.662899 26.16 
" clip-path="url(#p382d54edfc)" style="fill: none; stroke: #333333; stroke-width: 1.5; stroke-linecap: square"/>
   </g>
   <g id="line2d_24">
    <path d="M 387.2111 390.04 
L 387.2111 26.16 
" clip-path="url(#p382d54edfc)" style="fill: none; stroke-dasharray: 5.55,2.4; stroke-dashoffset: 0; stroke: #e5b181; stroke-width: 1.5"/>
   </g>
   <g id="patch_33">
    <path d="M 44.615 390.04 
L 44.615 26.16 
" style="fill: none; stroke: #000000; stroke-width: 0.8; stroke-linejoin: miter; stroke-linecap: square"/>
   </g>
   <g id="patch_34">
    <path d="M 44.615 390.04 
L 709.2 390.04 
" style="fill: none; stroke: #000000; stroke-width: 0.8; stroke-linejoin: miter; stroke-linecap: square"/>
   </g>
   <g id="text_17">
    <!-- Distribution of Daily Realized Revenue (λ=0, n=143) -->
    <g transform="translate(218.847813 20.16) scale(0.12 -0.12)">
     <defs>
      <path id="DejaVuSans-73" d="M 2834 3397 
L 2834 2853 
Q 2591 2978 2328 3040 
Q 2066 3103 1784 3103 
Q 1356 3103 1142 2972 
Q 928 2841 928 2578 
Q 928 2378 1081 2264 
Q 1234 2150 1697 2047 
L 1894 2003 
Q 2506 1872 2764 1633 
Q 3022 1394 3022 966 
Q 3022 478 2636 193 
Q 2250 -91 1575 -91 
Q 1294 -91 989 -36 
Q 684 19 347 128 
L 347 722 
Q 666 556 975 473 
Q 1284 391 1588 391 
Q 1994 391 2212 530 
Q 2431 669 2431 922 
Q 2431 1156 2273 1281 
Q 2116 1406 1581 1522 
L 1381 1569 
Q 847 1681 609 1914 
Q 372 2147 372 2553 
Q 372 3047 722 3315 
Q 1072 3584 1716 3584 
Q 2034 3584 2315 3537 
Q 2597 3491 2834 3397 
z
" transform="scale(0.015625)"/>
      <path id="DejaVuSans-74" d="M 1172 4494 
L 1172 3500 
L 2356 3500 
L 2356 3053 
L 1172 3053 
L 1172 1153 
Q 1172 725 1289 603 
Q 1406 481 1766 481 
L 2356 481 
L 2356 0 
L 1766 0 
Q 1100 0 847 248 
Q 594 497 594 1153 
L 594 3053 
L 172 3053 
L 172 3500 
L 594 3500 
L 594 4494 
L 1172 4494 
z
" transform="scale(0.015625)"/>
      <path id="DejaVuSans-62" d="M 3116 1747 
Q 3116 2381 2855 2742 
Q 2594 3103 2138 3103 
Q 1681 3103 1420 2742 
Q 1159 2381 1159 1747 
Q 1159 1113 1420 752 
Q 1681 391 2138 391 
Q 2594 391 2855 752 
Q 3116 1113 3116 1747 
z
M 1159 2969 
Q 1341 3281 1617 3432 
Q 1894 3584 2278 3584 
Q 2916 3584 3314 3078 
Q 3713 2572 3713 1747 
Q 3713 922 3314 415 
Q 2916 -91 2278 -91 
Q 1894 -91 1617 61 
Q 1341 213 1159 525 
L 1159 0 
L 581 0 
L 581 4863 
L 1159 4863 
L 1159 2969 
z
" transform="scale(0.015625)"/>
      <path id="DejaVuSans-6f" d="M 1959 3097 
Q 1497 3097 1228 2736 
Q 959 2375 959 1747 
Q 959 1119 1226 758 
Q 1494 397 1959 397 
Q 2419 397 2687 759 
Q 2956 1122 2956 1747 
Q 2956 2369 2687 2733 
Q 2419 3097 1959 3097 
z
M 1959 3584 
Q 2709 3584 3137 3096 
Q 3566 2609 3566 1747 
Q 3566 888 3137 398 
Q 2709 -91 1959 -91 
Q 1206 -91 779 398 
Q 353 888 353 1747 
Q 353 2609 779 3096 
Q 1206 3584 1959 3584 
z
" transform="scale(0.015625)"/>
      <path id="DejaVuSans-66" d="M 2375 4863 
L 2375 4384 
L 1825 4384 
Q 1516 4384 1395 4259 
Q 1275 4134 1275 3809 
L 1275 3500 
L 2222 3500 
L 2222 3053 
L 1275 3053 
L 1275 0 
L 697 0 
L 697 3053 
L 147 3053 
L 147 3500 
L 697 3500 
L 697 3744 
Q 697 4328 969 4595 
Q 1241 4863 1831 4863 
L 2375 4863 
z
" transform="scale(0.015625)"/>
      <path id="DejaVuSans-3bb" d="M 1981 4316 
L 3597 0 
L 2988 0 
L 2006 2588 
L 800 0 
L 191 0 
L 1725 3356 
L 1494 3975 
Q 1347 4369 1013 4369 
L 713 4369 
L 713 4863 
L 1078 4856 
Q 1784 4847 1981 4316 
z
" transform="scale(0.015625)"/>
      <path id="DejaVuSans-3d" d="M 678 2906 
L 4684 2906 
L 4684 2381 
L 678 2381 
L 678 2906 
z
M 678 1631 
L 4684 1631 
L 4684 1100 
L 678 1100 
L 678 1631 
z
" transform="scale(0.015625)"/>
      <path id="DejaVuSans-2c" d="M 750 794 
L 1409 794 
L 1409 256 
L 897 -744 
L 494 -744 
L 750 256 
L 750 794 
z
" transform="scale(0.015625)"/>
     </defs>
     <use xlink:href="#DejaVuSans-44"/>
     <use xlink:href="#DejaVuSans-69" transform="translate(77.001953 0)"/>
     <use xlink:href="#DejaVuSans-73" transform="translate(104.785156 0)"/>
     <use xlink:href="#DejaVuSans-74" transform="translate(156.884766 0)"/>
     <use xlink:href="#DejaVuSans-72" transform="translate(196.09375 0)"/>
     <use xlink:href="#DejaVuSans-69" transform="translate(237.207031 0)"/>
     <use xlink:href="#DejaVuSans-62" transform="translate(264.990234 0)"/>
     <use xlink:href="#DejaVuSans-75" transform="translate(328.466797 0)"/>
     <use xlink:href="#DejaVuSans-74" transform="translate(391.845703 0)"/>
     <use xlink:href="#DejaVuSans-69" transform="translate(431.054688 0)"/>
     <use xlink:href="#DejaVuSans-6f" transform="translate(458.837891 0)"/>
     <use xlink:href="#DejaVuSans-6e" transform="translate(520.019531 0)"/>
     <use xlink:href="#DejaVuSans-20" transform="translate(583.398438 0)"/>
     <use xlink:href="#DejaVuSans-6f" transform="translate(615.185547 0)"/>
     <use xlink:href="#DejaVuSans-66" transform="translate(676.367188 0)"/>
     <use xlink:href="#DejaVuSans-20" transform="translate(711.572266 0)"/>
     <use xlink:href="#DejaVuSans-44" transform="translate(743.359375 0)"/>
     <use xlink:href="#DejaVuSans-61" transform="translate(820.361328 0)"/>
     <use xlink:href="#DejaVuSans-69" transform="translate(881.640625 0)"/>
     <use xlink:href="#DejaVuSans-6c" transform="translate(909.423828 0)"/>
     <use xlink:href="#DejaVuSans-79" transform="translate(937.207031 0)"/>
     <use xlink:href="#DejaVuSans-20" transform="translate(996.386719 0)"/>
     <use xlink:href="#DejaVuSans-52" transform="translate(1028.173828 0)"/>
     <use xlink:href="#DejaVuSans-65" transform="translate(1093.15625 0)"/>
     <use xlink:href="#DejaVuSans-61" transform="translate(1154.679688 0)"/>
     <use xlink:href="#DejaVuSans-6c" transform="translate(1215.958984 0)"/>
     <use xlink:href="#DejaVuSans-69" transform="translate(1243.742188 0)"/>
     <use xlink:href="#DejaVuSans-7a" transform="translate(1271.525391 0)"/>
     <use xlink:href="#DejaVuSans-65" transform="translate(1324.015625 0)"/>
     <use xlink:href="#DejaVuSans-64" transform="translate(1385.539062 0)"/>
     <use xlink:href="#DejaVuSans-20" transform="translate(1449.015625 0)"/>
     <use xlink:href="#DejaVuSans-52" transform="translate(1480.802734 0)"/>
     <use xlink:href="#DejaVuSans-65" transform="translate(1545.785156 0)"/>
     <use xlink:href="#DejaVuSans-76" transform="translate(1607.308594 0)"/>
     <use xlink:href="#DejaVuSans-65" transform="translate(1666.488281 0)"/>
     <use xlink:href="#DejaVuSans-6e" transform="translate(1728.011719 0)"/>
     <use xlink:href="#DejaVuSans-75" transform="translate(1791.390625 0)"/>
     <use xlink:href="#DejaVuSans-65" transform="translate(1854.769531 0)"/>
     <use xlink:href="#DejaVuSans-20" transform="translate(1916.292969 0)"/>
     <use xlink:href="#DejaVuSans-28" transform="translate(1948.080078 0)"/>
     <use xlink:href="#DejaVuSans-3bb" transform="translate(1987.09375 0)"/>
     <use xlink:href="#DejaVuSans-3d" transform="translate(2046.273438 0)"/>
     <use xlink:href="#DejaVuSans-30" transform="translate(2130.0625 0)"/>
     <use xlink:href="#DejaVuSans-2c" transform="translate(2193.685547 0)"/>
     <use xlink:href="#DejaVuSans-20" transform="translate(2225.472656 0)"/>
     <use xlink:href="#DejaVuSans-6e" transform="translate(2257.259766 0)"/>
     <use xlink:href="#DejaVuSans-3d" transform="translate(2320.638672 0)"/>
     <use xlink:href="#DejaVuSans-31" transform="translate(2404.427734 0)"/>
     <use xlink:href="#DejaVuSans-34" transform="translate(2468.050781 0)"/>
     <use xlink:href="#DejaVuSans-33" transform="translate(2531.673828 0)"/>
     <use xlink:href="#DejaVuSans-29" transform="translate(2595.296875 0)"/>
    </g>
   </g>
   <g id="legend_1">
    <g id="line2d_25">
     <path d="M 600.035938 39.258437 
L 610.035938 39.258437 
L 620.035938 39.258437 
" style="fill: none; stroke-dasharray: 5.55,2.4; stroke-dashoffset: 0; stroke: #d17a6d; stroke-width: 1.5"/>
    </g>
    <g id="text_18">
     <!-- p10: ₹563K -->
     <g transform="translate(628.035938 42.758437) scale(0.1 -0.1)">
      <defs>
       <path id="DejaVuSans-70" d="M 1159 525 
L 1159 -1331 
L 581 -1331 
L 581 3500 
L 1159 3500 
L 1159 2969 
Q 1341 3281 1617 3432 
Q 1894 3584 2278 3584 
Q 2916 3584 3314 3078 
Q 3713 2572 3713 1747 
Q 3713 922 3314 415 
Q 2916 -91 2278 -91 
Q 1894 -91 1617 61 
Q 1341 213 1159 525 
z
M 3116 1747 
Q 3116 2381 2855 2742 
Q 2594 3103 2138 3103 
Q 1681 3103 1420 2742 
Q 1159 2381 1159 1747 
Q 1159 1113 1420 752 
Q 1681 391 2138 391 
Q 2594 391 2855 752 
Q 3116 1113 3116 1747 
z
" transform="scale(0.015625)"/>
       <path id="DejaVuSans-3a" d="M 750 794 
L 1409 794 
L 1409 0 
L 750 0 
L 750 794 
z
M 750 3309 
L 1409 3309 
L 1409 2516 
L 750 2516 
L 750 3309 
z
" transform="scale(0.015625)"/>
       <path id="DejaVuSans-35" d="M 691 4666 
L 3169 4666 
L 3169 4134 
L 1269 4134 
L 1269 2991 
Q 1406 3038 1543 3061 
Q 1681 3084 1819 3084 
Q 2600 3084 3056 2656 
Q 3513 2228 3513 1497 
Q 3513 744 3044 326 
Q 2575 -91 1722 -91 
Q 1428 -91 1123 -41 
Q 819 9 494 109 
L 494 744 
Q 775 591 1075 516 
Q 1375 441 1709 441 
Q 2250 441 2565 725 
Q 2881 1009 2881 1497 
Q 2881 1984 2565 2268 
Q 2250 2553 1709 2553 
Q 1456 2553 1204 2497 
Q 953 2441 691 2322 
L 691 4666 
z
" transform="scale(0.015625)"/>
      </defs>
      <use xlink:href="#DejaVuSans-70"/>
      <use xlink:href="#DejaVuSans-31" transform="translate(63.476562 0)"/>
      <use xlink:href="#DejaVuSans-30" transform="translate(127.099609 0)"/>
      <use xlink:href="#DejaVuSans-3a" transform="translate(190.722656 0)"/>
      <use xlink:href="#DejaVuSans-20" transform="translate(224.414062 0)"/>
      <use xlink:href="#DejaVuSans-20b9" transform="translate(256.201172 0)"/>
      <use xlink:href="#DejaVuSans-35" transform="translate(319.824219 0)"/>
      <use xlink:href="#DejaVuSans-36" transform="translate(383.447266 0)"/>
      <use xlink:href="#DejaVuSans-33" transform="translate(447.070312 0)"/>
      <use xlink:href="#DejaVuSans-4b" transform="translate(510.693359 0)"/>
     </g>
    </g>
    <g id="line2d_26">
     <path d="M 600.035938 53.936562 
L 610.035938 53.936562 
L 620.035938 53.936562 
" style="fill: none; stroke-dasharray: 5.55,2.4; stroke-dashoffset: 0; stroke: #6c9a8b; stroke-width: 1.5"/>
    </g>
    <g id="text_19">
     <!-- p50: ₹1242K -->
     <g transform="translate(628.035938 57.436562) scale(0.1 -0.1)">
      <use xlink:href="#DejaVuSans-70"/>
      <use xlink:href="#DejaVuSans-35" transform="translate(63.476562 0)"/>
      <use xlink:href="#DejaVuSans-30" transform="translate(127.099609 0)"/>
      <use xlink:href="#DejaVuSans-3a" transform="translate(190.722656 0)"/>
      <use xlink:href="#DejaVuSans-20" transform="translate(224.414062 0)"/>
      <use xlink:href="#DejaVuSans-20b9" transform="translate(256.201172 0)"/>
      <use xlink:href="#DejaVuSans-31" transform="translate(319.824219 0)"/>
      <use xlink:href="#DejaVuSans-32" transform="translate(383.447266 0)"/>
      <use xlink:href="#DejaVuSans-34" transform="translate(447.070312 0)"/>
      <use xlink:href="#DejaVuSans-32" transform="translate(510.693359 0)"/>
      <use xlink:href="#DejaVuSans-4b" transform="translate(574.316406 0)"/>
     </g>
    </g>
    <g id="line2d_27">
     <path d="M 600.035938 68.614687 
L 610.035938 68.614687 
L 620.035938 68.614687 
" style="fill: none; stroke: #333333; stroke-width: 1.5; stroke-linecap: square"/>
    </g>
    <g id="text_20">
     <!-- Mean: ₹1385K -->
     <g transform="translate(628.035938 72.114687) scale(0.1 -0.1)">
      <defs>
       <path id="DejaVuSans-4d" d="M 628 4666 
L 1569 4666 
L 2759 1491 
L 3956 4666 
L 4897 4666 
L 4897 0 
L 4281 0 
L 4281 4097 
L 3078 897 
L 2444 897 
L 1241 4097 
L 1241 0 
L 628 0 
L 628 4666 
z
" transform="scale(0.015625)"/>
      </defs>
      <use xlink:href="#DejaVuSans-4d"/>
      <use xlink:href="#DejaVuSans-65" transform="translate(86.279297 0)"/>
      <use xlink:href="#DejaVuSans-61" transform="translate(147.802734 0)"/>
      <use xlink:href="#DejaVuSans-6e" transform="translate(209.082031 0)"/>
      <use xlink:href="#DejaVuSans-3a" transform="translate(272.460938 0)"/>
      <use xlink:href="#DejaVuSans-20" transform="translate(306.152344 0)"/>
      <use xlink:href="#DejaVuSans-20b9" transform="translate(337.939453 0)"/>
      <use xlink:href="#DejaVuSans-31" transform="translate(401.5625 0)"/>
      <use xlink:href="#DejaVuSans-33" transform="translate(465.185547 0)"/>
      <use xlink:href="#DejaVuSans-38" transform="translate(528.808594 0)"/>
      <use xlink:href="#DejaVuSans-35" transform="translate(592.431641 0)"/>
      <use xlink:href="#DejaVuSans-4b" transform="translate(656.054688 0)"/>
     </g>
    </g>
    <g id="line2d_28">
     <path d="M 600.035938 83.292812 
L 610.035938 83.292812 
L 620.035938 83.292812 
" style="fill: none; stroke-dasharray: 5.55,2.4; stroke-dashoffset: 0; stroke: #e5b181; stroke-width: 1.5"/>
    </g>
    <g id="text_21">
     <!-- p90: ₹2190K -->
     <g transform="translate(628.035938 86.792812) scale(0.1 -0.1)">
      <defs>
       <path id="DejaVuSans-39" d="M 703 97 
L 703 672 
Q 941 559 1184 500 
Q 1428 441 1663 441 
Q 2288 441 2617 861 
Q 2947 1281 2994 2138 
Q 2813 1869 2534 1725 
Q 2256 1581 1919 1581 
Q 1219 1581 811 2004 
Q 403 2428 403 3163 
Q 403 3881 828 4315 
Q 1253 4750 1959 4750 
Q 2769 4750 3195 4129 
Q 3622 3509 3622 2328 
Q 3622 1225 3098 567 
Q 2575 -91 1691 -91 
Q 1453 -91 1209 -44 
Q 966 3 703 97 
z
M 1959 2075 
Q 2384 2075 2632 2365 
Q 2881 2656 2881 3163 
Q 2881 3666 2632 3958 
Q 2384 4250 1959 4250 
Q 1534 4250 1286 3958 
Q 1038 3666 1038 3163 
Q 1038 2656 1286 2365 
Q 1534 2075 1959 2075 
z
" transform="scale(0.015625)"/>
      </defs>
      <use xlink:href="#DejaVuSans-70"/>
      <use xlink:href="#DejaVuSans-39" transform="translate(63.476562 0)"/>
      <use xlink:href="#DejaVuSans-30" transform="translate(127.099609 0)"/>
      <use xlink:href="#DejaVuSans-3a" transform="translate(190.722656 0)"/>
      <use xlink:href="#DejaVuSans-20" transform="translate(224.414062 0)"/>
      <use xlink:href="#DejaVuSans-20b9" transform="translate(256.201172 0)"/>
      <use xlink:href="#DejaVuSans-32" transform="translate(319.824219 0)"/>
      <use xlink:href="#DejaVuSans-31" transform="translate(383.447266 0)"/>
      <use xlink:href="#DejaVuSans-39" transform="translate(447.070312 0)"/>
      <use xlink:href="#DejaVuSans-30" transform="translate(510.693359 0)"/>
      <use xlink:href="#DejaVuSans-4b" transform="translate(574.316406 0)"/>
     </g>
    </g>
   </g>
  </g>
 </g>
 <defs>
  <clipPath id="p382d54edfc">
   <rect x="44.615" y="26.16" width="664.585" height="363.88"/>
  </clipPath>
 </defs>
</svg>
