<?xml version="1.0" encoding="utf-8" standalone="no"?>
<!DOCTYPE svg PUBLIC "-//W3C//DTD SVG 1.1//EN"
  "http://www.w3.org/Graphics/SVG/1.1/DTD/svg11.dtd">
<svg xmlns:xlink="http://www.w3.org/1999/xlink" width="864pt" height="432pt" viewBox="0 0 864 432" xmlns="http://www.w3.org/2000/svg" version="1.1">
 <metadata>
  <rdf:RDF xmlns:dc="http://purl.org/dc/elements/1.1/" xmlns:cc="http://creativecommons.org/ns#" xmlns:rdf="http://www.w3.org/1999/02/22-rdf-syntax-ns#">
   <cc:Work>
    <dc:type rdf:resource="http://purl.org/dc/dcmitype/StillImage"/>
    <dc:date>2026-02-14T01:55:56.091910</dc:date>
    <dc:format>image/svg+xml</dc:format>
    <dc:creator>
     <cc:Agent>
      <dc:title>Matplotlib v3.10.8, https://matplotlib.org/</dc:title>
     </cc:Agent>
    </dc:creator>
   </cc:Work>
  </rdf:RDF>
 </metadata>
 <defs>
  <style type="text/css">*{stroke-linejoin: round; stroke-linecap: butt}</style>
 </defs>
 <g id="figure_1">
  <g id="patch_1">
   <path d="M 0 432 
L 864 432 
L 864 0 
L 0 0 
z
" style="fill: #ffffff"/>
  </g>
  <g id="axes_1">
   <g id="patch_2">
    <path d="M 44.615 390.04 
L 853.2 390.04 
L 853.2 26.16 
L 44.615 26.16 
z
" style="fill: #ffffff"/>
   </g>
   <g id="patch_3">
    <path d="M 81.368864 390.04 
L 92.224435 390.04 
L 92.224435 218.649499 
L 81.368864 218.649499 
z
" clip-path="url(#p7affcffe58)" style="fill: #4c6b8b; opacity: 0.8"/>
   </g>
   <g id="patch_4">
    <path d="M 112.384782 390.04 
L 123.240354 390.04 
L 123.240354 210.753521 
L 112.384782 210.753521 
z
" clip-path="url(#p7affcffe58)" style="fill: #4c6b8b; opacity: 0.8"/>
   </g>
   <g id="patch_5">
    <path d="M 143.400701 390.04 
L 154.256273 390.04 
L 154.256273 224.382023 
L 143.400701 224.382023 
z
" clip-path="url(#p7affcffe58)" style="fill: #4c6b8b; opacity: 0.8"/>
   </g>
   <g id="patch_6">
    <path d="M 174.41662 390.04 
L 185.272191 390.04 
L 185.272191 243.998033 
L 174.41662 243.998033 
z
" clip-path="url(#p7affcffe58)" style="fill: #4c6b8b; opacity: 0.8"/>
   </g>
   <g id="patch_7">
    <path d="M 205.432538 390.04 
L 216.28811 390.04 
L 216.28811 256.672926 
L 205.432538 256.672926 
z
" clip-path="url(#p7affcffe58)" style="fill: #4c6b8b; opacity: 0.8"/>
   </g>
   <g id="patch_8">
    <path d="M 236.448457 390.04 
L 247.304029 390.04 
L 247.304029 261.210453 
L 236.448457 261.210453 
z
" clip-path="url(#p7affcffe58)" style="fill: #4c6b8b; opacity: 0.8"/>
   </g>
   <g id="patch_9">
    <path d="M 267.464376 390.04 
L 278.319947 390.04 
L 278.319947 246.000519 
L 267.464376 246.000519 
z
" clip-path="url(#p7affcffe58)" style="fill: #4c6b8b; opacity: 0.8"/>
   </g>
   <g id="patch_10">
    <path d="M 298.480294 390.04 
L 309.335866 390.04 
L 309.335866 220.811199 
L 298.480294 220.811199 
z
" clip-path="url(#p7affcffe58)" style="fill: #4c6b8b; opacity: 0.8"/>
   </g>
   <g id="patch_11">
    <path d="M 329.496213 390.04 
L 340.351785 390.04 
L 340.351785 143.929629 
L 329.496213 143.929629 
z
" clip-path="url(#p7affcffe58)" style="fill: #4c6b8b; opacity: 0.8"/>
   </g>
   <g id="patch_12">
    <path d="M 360.512132 390.04 
L 371.367703 390.04 
L 371.367703 64.58086 
L 360.512132 64.58086 
z
" clip-path="url(#p7affcffe58)" style="fill: #4c6b8b; opacity: 0.8"/>
   </g>
   <g id="patch_13">
    <path d="M 391.52805 390.04 
L 402.383622 390.04 
L 402.383622 43.487619 
L 391.52805 43.487619 
z
" clip-path="url(#p7affcffe58)" style="fill: #4c6b8b; opacity: 0.8"/>
   </g>
   <g id="patch_14">
    <path d="M 422.543969 390.04 
L 433.399541 390.04 
L 433.399541 83.388983 
L 422.543969 83.388983 
z
" clip-path="url(#p7affcffe58)" style="fill: #4c6b8b; opacity: 0.8"/>
   </g>
   <g id="patch_15">
    <path d="M 453.559888 390.04 
L 464.415459 390.04 
L 464.415459 67.994399 
L 453.559888 67.994399 
z
" clip-path="url(#p7affcffe58)" style="fill: #4c6b8b; opacity: 0.8"/>
   </g>
   <g id="patch_16">
    <path d="M 484.575806 390.04 
L 495.431378 390.04 
L 495.431378 47.964075 
L 484.575806 47.964075 
z
" clip-path="url(#p7affcffe58)" style="fill: #4c6b8b; opacity: 0.8"/>
   </g>
   <g id="patch_17">
    <path d="M 515.591725 390.04 
L 526.447297 390.04 
L 526.447297 117.352892 
L 515.591725 117.352892 
z
" clip-path="url(#p7affcffe58)" style="fill: #4c6b8b; opacity: 0.8"/>
   </g>
   <g id="patch_18">
    <path d="M 546.607644 390.04 
L 557.463215 390.04 
L 557.463215 193.952808 
L 546.607644 193.952808 
z
" clip-path="url(#p7affcffe58)" style="fill: #4c6b8b; opacity: 0.8"/>
   </g>
   <g id="patch_19">
    <path d="M 577.623563 390.04 
L 588.479134 390.04 
L 588.479134 214.736829 
L 577.623563 214.736829 
z
" clip-path="url(#p7affcffe58)" style="fill: #4c6b8b; opacity: 0.8"/>
   </g>
   <g id="patch_20">
    <path d="M 608.639481 390.04 
L 619.495053 390.04 
L 619.495053 215.034164 
L 608.639481 215.034164 
z
" clip-path="url(#p7affcffe58)" style="fill: #4c6b8b; opacity: 0.8"/>
   </g>
   <g id="patch_21">
    <path d="M 639.6554 390.04 
L 650.510971 390.04 
L 650.510971 194.42563 
L 639.6554 194.42563 
z
" clip-path="url(#p7affcffe58)" style="fill: #4c6b8b; opacity: 0.8"/>
   </g>
   <g id="patch_22">
    <path d="M 670.671319 390.04 
L 681.52689 390.04 
L 681.52689 183.972514 
L 670.671319 183.972514 
z
" clip-path="url(#p7affcffe58)" style="fill: #4c6b8b; opacity: 0.8"/>
   </g>
   <g id="patch_23">
    <path d="M 701.687237 390.04 
L 712.542809 390.04 
L 712.542809 161.051621 
L 701.687237 161.051621 
z
" clip-path="url(#p7affcffe58)" style="fill: #4c6b8b; opacity: 0.8"/>
   </g>
   <g id="patch_24">
    <path d="M 732.703156 390.04 
L 743.558727 390.04 
L 743.558727 191.754505 
L 732.703156 191.754505 
z
" clip-path="url(#p7affcffe58)" style="fill: #4c6b8b; opacity: 0.8"/>
   </g>
   <g id="patch_25">
    <path d="M 763.719075 390.04 
L 774.574646 390.04 
L 774.574646 211.980649 
L 763.719075 211.980649 
z
" clip-path="url(#p7affcffe58)" style="fill: #4c6b8b; opacity: 0.8"/>
   </g>
   <g id="patch_26">
    <path d="M 794.734993 390.04 
L 805.590565 390.04 
L 805.590565 212.968224 
L 794.734993 212.968224 
z
" clip-path="url(#p7affcffe58)" style="fill: #4c6b8b; opacity: 0.8"/>
   </g>
   <g id="patch_27">
    <path d="M 92.224435 390.04 
L 103.080007 390.04 
L 103.080007 279.120282 
L 92.224435 279.120282 
z
" clip-path="url(#p7affcffe58)" style="fill: #e5b181; opacity: 0.8"/>
   </g>
   <g id="patch_28">
    <path d="M 123.240354 390.04 
L 134.095925 390.04 
L 134.095925 255.963589 
L 123.240354 255.963589 
z
" clip-path="url(#p7affcffe58)" style="fill: #e5b181; opacity: 0.8"/>
   </g>
   <g id="patch_29">
    <path d="M 154.256273 390.04 
L 165.111844 390.04 
L 165.111844 276.440505 
L 154.256273 276.440505 
z
" clip-path="url(#p7affcffe58)" style="fill: #e5b181; opacity: 0.8"/>
   </g>
   <g id="patch_30">
    <path d="M 185.272191 390.04 
L 196.127763 390.04 
L 196.127763 296.661081 
L 185.272191 296.661081 
z
" clip-path="url(#p7affcffe58)" style="fill: #e5b181; opacity: 0.8"/>
   </g>
   <g id="patch_31">
    <path d="M 216.28811 390.04 
L 227.143681 390.04 
L 227.143681 299.330554 
L 216.28811 299.330554 
z
" clip-path="url(#p7affcffe58)" style="fill: #e5b181; opacity: 0.8"/>
   </g>
   <g id="patch_32">
    <path d="M 247.304029 390.04 
L 258.1596 390.04 
L 258.1596 247.5124 
L 247.304029 247.5124 
z
" clip-path="url(#p7affcffe58)" style="fill: #e5b181; opacity: 0.8"/>
   </g>
   <g id="patch_33">
    <path d="M 278.319947 390.04 
L 289.175519 390.04 
L 289.175519 241.243775 
L 278.319947 241.243775 
z
" clip-path="url(#p7affcffe58)" style="fill: #e5b181; opacity: 0.8"/>
   </g>
   <g id="patch_34">
    <path d="M 309.335866 390.04 
L 320.191437 390.04 
L 320.191437 198.034334 
L 309.335866 198.034334 
z
" clip-path="url(#p7affcffe58)" style="fill: #e5b181; opacity: 0.8"/>
   </g>
   <g id="patch_35">
    <path d="M 340.351785 390.04 
L 351.207356 390.04 
L 351.207356 188.523308 
L 340.351785 188.523308 
z
" clip-path="url(#p7affcffe58)" style="fill: #e5b181; opacity: 0.8"/>
   </g>
   <g id="patch_36">
    <path d="M 371.367703 390.04 
L 382.223275 390.04 
L 382.223275 216.949662 
L 371.367703 216.949662 
z
" clip-path="url(#p7affcffe58)" style="fill: #e5b181; opacity: 0.8"/>
   </g>
   <g id="patch_37">
    <path d="M 402.383622 390.04 
L 413.239194 390.04 
L 413.239194 252.655305 
L 402.383622 252.655305 
z
" clip-path="url(#p7affcffe58)" style="fill: #e5b181; opacity: 0.8"/>
   </g>
   <g id="patch_38">
    <path d="M 433.399541 390.04 
L 444.255112 390.04 
L 444.255112 257.259012 
L 433.399541 257.259012 
z
" clip-path="url(#p7affcffe58)" style="fill: #e5b181; opacity: 0.8"/>
   </g>
   <g id="patch_39">
    <path d="M 464.415459 390.04 
L 475.271031 390.04 
L 475.271031 254.105997 
L 464.415459 254.105997 
z
" clip-path="url(#p7affcffe58)" style="fill: #e5b181; opacity: 0.8"/>
   </g>
   <g id="patch_40">
    <path d="M 495.431378 390.04 
L 506.28695 390.04 
L 506.28695 222.833186 
L 495.431378 222.833186 
z
" clip-path="url(#p7affcffe58)" style="fill: #e5b181; opacity: 0.8"/>
   </g>
   <g id="patch_41">
    <path d="M 526.447297 390.04 
L 537.302868 390.04 
L 537.302868 259.436729 
L 526.447297 259.436729 
z
" clip-path="url(#p7affcffe58)" style="fill: #e5b181; opacity: 0.8"/>
   </g>
   <g id="patch_42">
    <path d="M 557.463215 390.04 
L 568.318787 390.04 
L 568.318787 298.731109 
L 557.463215 298.731109 
z
" clip-path="url(#p7affcffe58)" style="fill: #e5b181; opacity: 0.8"/>
   </g>
   <g id="patch_43">
    <path d="M 588.479134 390.04 
L 599.334706 390.04 
L 599.334706 256.784236 
L 588.479134 256.784236 
z
" clip-path="url(#p7affcffe58)" style="fill: #e5b181; opacity: 0.8"/>
   </g>
   <g id="patch_44">
    <path d="M 619.495053 390.04 
L 630.350624 390.04 
L 630.350624 171.260236 
L 619.495053 171.260236 
z
" clip-path="url(#p7affcffe58)" style="fill: #e5b181; opacity: 0.8"/>
   </g>
   <g id="patch_45">
    <path d="M 650.510971 390.04 
L 661.366543 390.04 
L 661.366543 170.818129 
L 650.510971 170.818129 
z
" clip-path="url(#p7affcffe58)" style="fill: #e5b181; opacity: 0.8"/>
   </g>
   <g id="patch_46">
    <path d="M 681.52689 390.04 
L 692.382462 390.04 
L 692.382462 233.972536 
L 681.52689 233.972536 
z
" clip-path="url(#p7affcffe58)" style="fill: #e5b181; opacity: 0.8"/>
   </g>
   <g id="patch_47">
    <path d="M 712.542809 390.04 
L 723.39838 390.04 
L 723.39838 228.257469 
L 712.542809 228.257469 
z
" clip-path="url(#p7affcffe58)" style="fill: #e5b181; opacity: 0.8"/>
   </g>
   <g id="patch_48">
    <path d="M 743.558727 390.04 
L 754.414299 390.04 
L 754.414299 270.223782 
L 743.558727 270.223782 
z
" clip-path="url(#p7affcffe58)" style="fill: #e5b181; opacity: 0.8"/>
   </g>
   <g id="patch_49">
    <path d="M 774.574646 390.04 
L 785.430218 390.04 
L 785.430218 286.883052 
L 774.574646 286.883052 
z
" clip-path="url(#p7affcffe58)" style="fill: #e5b181; opacity: 0.8"/>
   </g>
   <g id="patch_50">
    <path d="M 805.590565 390.04 
L 816.446136 390.04 
L 816.446136 266.006078 
L 805.590565 266.006078 
z
" clip-path="url(#p7affcffe58)" style="fill: #e5b181; opacity: 0.8"/>
   </g>
   <g id="matplotlib.axis_1">
    <g id="xtick_1">
     <g id="line2d_1">
      <path d="M 92.224435 390.04 
L 92.224435 26.16 
" clip-path="url(#p7affcffe58)" style="fill: none; stroke: #cccccc; stroke-opacity: 0.2; stroke-width: 0.8; stroke-linecap: square"/>
     </g>
     <g id="line2d_2">
      <defs>
       <path id="m62d990671e" d="M 0 0 
L 0 3.5 
" style="stroke: #000000; stroke-width: 0.8"/>
      </defs>
      <g>
       <use xlink:href="#m62d990671e" x="92.224435" y="390.04" style="stroke: #000000; stroke-width: 0.8"/>
      </g>
     </g>
     <g id="text_1">
      <!-- 0 -->
      <g transform="translate(89.043185 404.638438) scale(0.1 -0.1)">
       <defs>
        <path id="DejaVuSans-30" d="M 2034 4250 
Q 1547 4250 1301 3770 
Q 1056 3291 1056 2328 
Q 1056 1369 1301 889 
Q 1547 409 2034 409 
Q 2525 409 2770 889 
Q 3016 1369 3016 2328 
Q 3016 3291 2770 3770 
Q 2525 4250 2034 4250 
z
M 2034 4750 
Q 2819 4750 3233 4129 
Q 3647 3509 3647 2328 
Q 3647 1150 3233 529 
Q 2819 -91 2034 -91 
Q 1250 -91 836 529 
Q 422 1150 422 2328 
Q 422 3509 836 4129 
Q 1250 4750 2034 4750 
z
" transform="scale(0.015625)"/>
       </defs>
       <use xlink:href="#DejaVuSans-30"/>
      </g>
     </g>
    </g>
    <g id="xtick_2">
     <g id="line2d_3">
      <path d="M 123.240354 390.04 
L 123.240354 26.16 
" clip-path="url(#p7affcffe58)" style="fill: none; stroke: #cccccc; stroke-opacity: 0.2; stroke-width: 0.8; stroke-linecap: square"/>
     </g>
     <g id="line2d_4">
      <g>
       <use xlink:href="#m62d990671e" x="123.240354" y="390.04" style="stroke: #000000; stroke-width: 0.8"/>
      </g>
     </g>
     <g id="text_2">
      <!-- 1 -->
      <g transform="translate(120.059104 404.638438) scale(0.1 -0.1)">
       <defs>
        <path id="DejaVuSans-31" d="M 794 531 
L 1825 531 
L 1825 4091 
L 703 3866 
L 703 4441 
L 1819 4666 
L 2450 4666 
L 2450 531 
L 3481 531 
L 3481 0 
L 794 0 
L 794 531 
z
" transform="scale(0.015625)"/>
       </defs>
       <use xlink:href="#DejaVuSans-31"/>
      </g>
     </g>
    </g>
    <g id="xtick_3">
     <g id="line2d_5">
      <path d="M 154.256273 390.04 
L 154.256273 26.16 
" clip-path="url(#p7affcffe58)" style="fill: none; stroke: #cccccc; stroke-opacity: 0.2; stroke-width: 0.8; stroke-linecap: square"/>
     </g>
     <g id="line2d_6">
      <g>
       <use xlink:href="#m62d990671e" x="154.256273" y="390.04" style="stroke: #000000; stroke-width: 0.8"/>
      </g>
     </g>
     <g id="text_3">
      <!-- 2 -->
      <g transform="translate(151.075023 404.638438) scale(0.1 -0.1)">
       <defs>
        <path id="DejaVuSans-32" d="M 1228 531 
L 3431 531 
L 3431 0 
L 469 0 
L 469 531 
Q 828 903 1448 1529 
Q 2069 2156 2228 2338 
Q 2531 2678 2651 2914 
Q 2772 3150 2772 3378 
Q 2772 3750 2511 3984 
Q 2250 4219 1831 4219 
Q 1534 4219 1204 4116 
Q 875 4013 500 3803 
L 500 4441 
Q 881 4594 1212 4672 
Q 1544 4750 1819 4750 
Q 2544 4750 2975 4387 
Q 3406 4025 3406 3419 
Q 3406 3131 3298 2873 
Q 3191 2616 2906 2266 
Q 2828 2175 2409 1742 
Q 1991 1309 1228 531 
z
" transform="scale(0.015625)"/>
       </defs>
       <use xlink:href="#DejaVuSans-32"/>
      </g>
     </g>
    </g>
    <g id="xtick_4">
     <g id="line2d_7">
      <path d="M 185.272191 390.04 
L 185.272191 26.16 
" clip-path="url(#p7affcffe58)" style="fill: none; stroke: #cccccc; stroke-opacity: 0.2; stroke-width: 0.8; stroke-linecap: square"/>
     </g>
     <g id="line2d_8">
      <g>
       <use xlink:href="#m62d990671e" x="185.272191" y="390.04" style="stroke: #000000; stroke-width: 0.8"/>
      </g>
     </g>
     <g id="text_4">
      <!-- 3 -->
      <g transform="translate(182.090941 404.638438) scale(0.1 -0.1)">
       <defs>
        <path id="DejaVuSans-33" d="M 2597 2516 
Q 3050 2419 3304 2112 
Q 3559 1806 3559 1356 
Q 3559 666 3084 287 
Q 2609 -91 1734 -91 
Q 1441 -91 1130 -33 
Q 819 25 488 141 
L 488 750 
Q 750 597 1062 519 
Q 1375 441 1716 441 
Q 2309 441 2620 675 
Q 2931 909 2931 1356 
Q 2931 1769 2642 2001 
Q 2353 2234 1838 2234 
L 1294 2234 
L 1294 2753 
L 1863 2753 
Q 2328 2753 2575 2939 
Q 2822 3125 2822 3475 
Q 2822 3834 2567 4026 
Q 2313 4219 1838 4219 
Q 1578 4219 1281 4162 
Q 984 4106 628 3988 
L 628 4550 
Q 988 4650 1302 4700 
Q 1616 4750 1894 4750 
Q 2613 4750 3031 4423 
Q 3450 4097 3450 3541 
Q 3450 3153 3228 2886 
Q 3006 2619 2597 2516 
z
" transform="scale(0.015625)"/>
       </defs>
       <use xlink:href="#DejaVuSans-33"/>
      </g>
     </g>
    </g>
    <g id="xtick_5">
     <g id="line2d_9">
      <path d="M 216.28811 390.04 
L 216.28811 26.16 
" clip-path="url(#p7affcffe58)" style="fill: none; stroke: #cccccc; stroke-opacity: 0.2; stroke-width: 0.8; stroke-linecap: square"/>
     </g>
     <g id="line2d_10">
      <g>
       <use xlink:href="#m62d990671e" x="216.28811" y="390.04" style="stroke: #000000; stroke-width: 0.8"/>
      </g>
     </g>
     <g id="text_5">
      <!-- 4 -->
      <g transform="translate(213.10686 404.638438) scale(0.1 -0.1)">
       <defs>
        <path id="DejaVuSans-34" d="M 2419 4116 
L 825 1625 
L 2419 1625 
L 2419 4116 
z
M 2253 4666 
L 3047 4666 
L 3047 1625 
L 3713 1625 
L 3713 1100 
L 3047 1100 
L 3047 0 
L 2419 0 
L 2419 1100 
L 313 1100 
L 313 1709 
L 2253 4666 
z
" transform="scale(0.015625)"/>
       </defs>
       <use xlink:href="#DejaVuSans-34"/>
      </g>
     </g>
    </g>
    <g id="xtick_6">
     <g id="line2d_11">
      <path d="M 247.304029 390.04 
L 247.304029 26.16 
" clip-path="url(#p7affcffe58)" style="fill: none; stroke: #cccccc; stroke-opacity: 0.2; stroke-width: 0.8; stroke-linecap: square"/>
     </g>
     <g id="line2d_12">
      <g>
       <use xlink:href="#m62d990671e" x="247.304029" y="390.04" style="stroke: #000000; stroke-width: 0.8"/>
      </g>
     </g>
     <g id="text_6">
      <!-- 5 -->
      <g transform="translate(244.122779 404.638438) scale(0.1 -0.1)">
       <defs>
        <path id="DejaVuSans-35" d="M 691 4666 
L 3169 4666 
L 3169 4134 
L 1269 4134 
L 1269 2991 
Q 1406 3038 1543 3061 
Q 1681 3084 1819 3084 
Q 2600 3084 3056 2656 
Q 3513 2228 3513 1497 
Q 3513 744 3044 326 
Q 2575 -91 1722 -91 
Q 1428 -91 1123 -41 
Q 819 9 494 109 
L 494 744 
Q 775 591 1075 516 
Q 1375 441 1709 441 
Q 2250 441 2565 725 
Q 2881 1009 2881 1497 
Q 2881 1984 2565 2268 
Q 2250 2553 1709 2553 
Q 1456 2553 1204 2497 
Q 953 2441 691 2322 
L 691 4666 
z
" transform="scale(0.015625)"/>
       </defs>
       <use xlink:href="#DejaVuSans-35"/>
      </g>
     </g>
    </g>
    <g id="xtick_7">
     <g id="line2d_13">
      <path d="M 278.319947 390.04 
L 278.319947 26.16 
" clip-path="url(#p7affcffe58)" style="fill: none; stroke: #cccccc; stroke-opacity: 0.2; stroke-width: 0.8; stroke-linecap: square"/>
     </g>
     <g id="line2d_14">
      <g>
       <use xlink:href="#m62d990671e" x="278.319947" y="390.04" style="stroke: #000000; stroke-width: 0.8"/>
      </g>
     </g>
     <g id="text_7">
      <!-- 6 -->
      <g transform="translate(275.138697 404.638438) scale(0.1 -0.1)">
       <defs>
        <path id="DejaVuSans-36" d="M 2113 2584 
Q 1688 2584 1439 2293 
Q 1191 2003 1191 1497 
Q 1191 994 1439 701 
Q 1688 409 2113 409 
Q 2538 409 2786 701 
Q 3034 994 3034 1497 
Q 3034 2003 2786 2293 
Q 2538 2584 2113 2584 
z
M 3366 4563 
L 3366 3988 
Q 3128 4100 2886 4159 
Q 2644 4219 2406 4219 
Q 1781 4219 1451 3797 
Q 1122 3375 1075 2522 
Q 1259 2794 1537 2939 
Q 1816 3084 2150 3084 
Q 2853 3084 3261 2657 
Q 3669 2231 3669 1497 
Q 3669 778 3244 343 
Q 2819 -91 2113 -91 
Q 1303 -91 875 529 
Q 447 1150 447 2328 
Q 447 3434 972 4092 
Q 1497 4750 2381 4750 
Q 2619 4750 2861 4703 
Q 3103 4656 3366 4563 
z
" transform="scale(0.015625)"/>
       </defs>
       <use xlink:href="#DejaVuSans-36"/>
      </g>
     </g>
    </g>
    <g id="xtick_8">
     <g id="line2d_15">
      <path d="M 309.335866 390.04 
L 309.335866 26.16 
" clip-path="url(#p7affcffe58)" style="fill: none; stroke: #cccccc; stroke-opacity: 0.2; stroke-width: 0.8; stroke-linecap: square"/>
     </g>
     <g id="line2d_16">
      <g>
       <use xlink:href="#m62d990671e" x="309.335866" y="390.04" style="stroke: #000000; stroke-width: 0.8"/>
      </g>
     </g>
     <g id="text_8">
      <!-- 7 -->
      <g transform="translate(306.154616 404.638438) scale(0.1 -0.1)">
       <defs>
        <path id="DejaVuSans-37" d="M 525 4666 
L 3525 4666 
L 3525 4397 
L 1831 0 
L 1172 0 
L 2766 4134 
L 525 4134 
L 525 4666 
z
" transform="scale(0.015625)"/>
       </defs>
       <use xlink:href="#DejaVuSans-37"/>
      </g>
     </g>
    </g>
    <g id="xtick_9">
     <g id="line2d_17">
      <path d="M 340.351785 390.04 
L 340.351785 26.16 
" clip-path="url(#p7affcffe58)" style="fill: none; stroke: #cccccc; stroke-opacity: 0.2; stroke-width: 0.8; stroke-linecap: square"/>
     </g>
     <g id="line2d_18">
      <g>
       <use xlink:href="#m62d990671e" x="340.351785" y="390.04" style="stroke: #000000; stroke-width: 0.8"/>
      </g>
     </g>
     <g id="text_9">
      <!-- 8 -->
      <g transform="translate(337.170535 404.638438) scale(0.1 -0.1)">
       <defs>
        <path id="DejaVuSans-38" d="M 2034 2216 
Q 1584 2216 1326 1975 
Q 1069 1734 1069 1313 
Q 1069 891 1326 650 
Q 1584 409 2034 409 
Q 2484 409 2743 651 
Q 3003 894 3003 1313 
Q 3003 1734 2745 1975 
Q 2488 2216 2034 2216 
z
M 1403 2484 
Q 997 2584 770 2862 
Q 544 3141 544 3541 
Q 544 4100 942 4425 
Q 1341 4750 2034 4750 
Q 2731 4750 3128 4425 
Q 3525 4100 3525 3541 
Q 3525 3141 3298 2862 
Q 3072 2584 2669 2484 
Q 3125 2378 3379 2068 
Q 3634 1759 3634 1313 
Q 3634 634 3220 271 
Q 2806 -91 2034 -91 
Q 1263 -91 848 271 
Q 434 634 434 1313 
Q 434 1759 690 2068 
Q 947 2378 1403 2484 
z
M 1172 3481 
Q 1172 3119 1398 2916 
Q 1625 2713 2034 2713 
Q 2441 2713 2670 2916 
Q 2900 3119 2900 3481 
Q 2900 3844 2670 4047 
Q 2441 4250 2034 4250 
Q 1625 4250 1398 4047 
Q 1172 3844 1172 3481 
z
" transform="scale(0.015625)"/>
       </defs>
       <use xlink:href="#DejaVuSans-38"/>
      </g>
     </g>
    </g>
    <g id="xtick_10">
     <g id="line2d_19">
      <path d="M 371.367703 390.04 
L 371.367703 26.16 
" clip-path="url(#p7affcffe58)" style="fill: none; stroke: #cccccc; stroke-opacity: 0.2; stroke-width: 0.8; stroke-linecap: square"/>
     </g>
     <g id="line2d_20">
      <g>
       <use xlink:href="#m62d990671e" x="371.367703" y="390.04" style="stroke: #000000; stroke-width: 0.8"/>
      </g>
     </g>
     <g id="text_10">
      <!-- 9 -->
      <g transform="translate(368.186453 404.638438) scale(0.1 -0.1)">
       <defs>
        <path id="DejaVuSans-39" d="M 703 97 
L 703 672 
Q 941 559 1184 500 
Q 1428 441 1663 441 
Q 2288 441 2617 861 
Q 2947 1281 2994 2138 
Q 2813 1869 2534 1725 
Q 2256 1581 1919 1581 
Q 1219 1581 811 2004 
Q 403 2428 403 3163 
Q 403 3881 828 4315 
Q 1253 4750 1959 4750 
Q 2769 4750 3195 4129 
Q 3622 3509 3622 2328 
Q 3622 1225 3098 567 
Q 2575 -91 1691 -91 
Q 1453 -91 1209 -44 
Q 966 3 703 97 
z
M 1959 2075 
Q 2384 2075 2632 2365 
Q 2881 2656 2881 3163 
Q 2881 3666 2632 3958 
Q 2384 4250 1959 4250 
Q 1534 4250 1286 3958 
Q 1038 3666 1038 3163 
Q 1038 2656 1286 2365 
Q 1534 2075 1959 2075 
z
" transform="scale(0.015625)"/>
       </defs>
       <use xlink:href="#DejaVuSans-39"/>
      </g>
     </g>
    </g>
    <g id="xtick_11">
     <g id="line2d_21">
      <path d="M 402.383622 390.04 
L 402.383622 26.16 
" clip-path="url(#p7affcffe58)" style="fill: none; stroke: #cccccc; stroke-opacity: 0.2; stroke-width: 0.8; stroke-linecap: square"/>
     </g>
     <g id="line2d_22">
      <g>
       <use xlink:href="#m62d990671e" x="402.383622" y="390.04" style="stroke: #000000; stroke-width: 0.8"/>
      </g>
     </g>
     <g id="text_11">
      <!-- 10 -->
      <g transform="translate(396.021122 404.638438) scale(0.1 -0.1)">
       <use xlink:href="#DejaVuSans-31"/>
       <use xlink:href="#DejaVuSans-30" transform="translate(63.623047 0)"/>
      </g>
     </g>
    </g>
    <g id="xtick_12">
     <g id="line2d_23">
      <path d="M 433.399541 390.04 
L 433.399541 26.16 
" clip-path="url(#p7affcffe58)" style="fill: none; stroke: #cccccc; stroke-opacity: 0.2; stroke-width: 0.8; stroke-linecap: square"/>
     </g>
     <g id="line2d_24">
      <g>
       <use xlink:href="#m62d990671e" x="433.399541" y="390.04" style="stroke: #000000; stroke-width: 0.8"/>
      </g>
     </g>
     <g id="text_12">
      <!-- 11 -->
      <g transform="translate(427.037041 404.638438) scale(0.1 -0.1)">
       <use xlink:href="#DejaVuSans-31"/>
       <use xlink:href="#DejaVuSans-31" transform="translate(63.623047 0)"/>
      </g>
     </g>
    </g>
    <g id="xtick_13">
     <g id="line2d_25">
      <path d="M 464.415459 390.04 
L 464.415459 26.16 
" clip-path="url(#p7affcffe58)" style="fill: none; stroke: #cccccc; stroke-opacity: 0.2; stroke-width: 0.8; stroke-linecap: square"/>
     </g>
     <g id="line2d_26">
      <g>
       <use xlink:href="#m62d990671e" x="464.415459" y="390.04" style="stroke: #000000; stroke-width: 0.8"/>
      </g>
     </g>
     <g id="text_13">
      <!-- 12 -->
      <g transform="translate(458.052959 404.638438) scale(0.1 -0.1)">
       <use xlink:href="#DejaVuSans-31"/>
       <use xlink:href="#DejaVuSans-32" transform="translate(63.623047 0)"/>
      </g>
     </g>
    </g>
    <g id="xtick_14">
     <g id="line2d_27">
      <path d="M 495.431378 390.04 
L 495.431378 26.16 
" clip-path="url(#p7affcffe58)" style="fill: none; stroke: #cccccc; stroke-opacity: 0.2; stroke-width: 0.8; stroke-linecap: square"/>
     </g>
     <g id="line2d_28">
      <g>
       <use xlink:href="#m62d990671e" x="495.431378" y="390.04" style="stroke: #000000; stroke-width: 0.8"/>
      </g>
     </g>
     <g id="text_14">
      <!-- 13 -->
      <g transform="translate(489.068878 404.638438) scale(0.1 -0.1)">
       <use xlink:href="#DejaVuSans-31"/>
       <use xlink:href="#DejaVuSans-33" transform="translate(63.623047 0)"/>
      </g>
     </g>
    </g>
    <g id="xtick_15">
     <g id="line2d_29">
      <path d="M 526.447297 390.04 
L 526.447297 26.16 
" clip-path="url(#p7affcffe58)" style="fill: none; stroke: #cccccc; stroke-opacity: 0.2; stroke-width: 0.8; stroke-linecap: square"/>
     </g>
     <g id="line2d_30">
      <g>
       <use xlink:href="#m62d990671e" x="526.447297" y="390.04" style="stroke: #000000; stroke-width: 0.8"/>
      </g>
     </g>
     <g id="text_15">
      <!-- 14 -->
      <g transform="translate(520.084797 404.638438) scale(0.1 -0.1)">
       <use xlink:href="#DejaVuSans-31"/>
       <use xlink:href="#DejaVuSans-34" transform="translate(63.623047 0)"/>
      </g>
     </g>
    </g>
    <g id="xtick_16">
     <g id="line2d_31">
      <path d="M 557.463215 390.04 
L 557.463215 26.16 
" clip-path="url(#p7affcffe58)" style="fill: none; stroke: #cccccc; stroke-opacity: 0.2; stroke-width: 0.8; stroke-linecap: square"/>
     </g>
     <g id="line2d_32">
      <g>
       <use xlink:href="#m62d990671e" x="557.463215" y="390.04" style="stroke: #000000; stroke-width: 0.8"/>
      </g>
     </g>
     <g id="text_16">
      <!-- 15 -->
      <g transform="translate(551.100715 404.638438) scale(0.1 -0.1)">
       <use xlink:href="#DejaVuSans-31"/>
       <use xlink:href="#DejaVuSans-35" transform="translate(63.623047 0)"/>
      </g>
     </g>
    </g>
    <g id="xtick_17">
     <g id="line2d_33">
      <path d="M 588.479134 390.04 
L 588.479134 26.16 
" clip-path="url(#p7affcffe58)" style="fill: none; stroke: #cccccc; stroke-opacity: 0.2; stroke-width: 0.8; stroke-linecap: square"/>
     </g>
     <g id="line2d_34">
      <g>
       <use xlink:href="#m62d990671e" x="588.479134" y="390.04" style="stroke: #000000; stroke-width: 0.8"/>
      </g>
     </g>
     <g id="text_17">
      <!-- 16 -->
      <g transform="translate(582.116634 404.638438) scale(0.1 -0.1)">
       <use xlink:href="#DejaVuSans-31"/>
       <use xlink:href="#DejaVuSans-36" transform="translate(63.623047 0)"/>
      </g>
     </g>
    </g>
    <g id="xtick_18">
     <g id="line2d_35">
      <path d="M 619.495053 390.04 
L 619.495053 26.16 
" clip-path="url(#p7affcffe58)" style="fill: none; stroke: #cccccc; stroke-opacity: 0.2; stroke-width: 0.8; stroke-linecap: square"/>
     </g>
     <g id="line2d_36">
      <g>
       <use xlink:href="#m62d990671e" x="619.495053" y="390.04" style="stroke: #000000; stroke-width: 0.8"/>
      </g>
     </g>
     <g id="text_18">
      <!-- 17 -->
      <g transform="translate(613.132553 404.638438) scale(0.1 -0.1)">
       <use xlink:href="#DejaVuSans-31"/>
       <use xlink:href="#DejaVuSans-37" transform="translate(63.623047 0)"/>
      </g>
     </g>
    </g>
    <g id="xtick_19">
     <g id="line2d_37">
      <path d="M 650.510971 390.04 
L 650.510971 26.16 
" clip-path="url(#p7affcffe58)" style="fill: none; stroke: #cccccc; stroke-opacity: 0.2; stroke-width: 0.8; stroke-linecap: square"/>
     </g>
     <g id="line2d_38">
      <g>
       <use xlink:href="#m62d990671e" x="650.510971" y="390.04" style="stroke: #000000; stroke-width: 0.8"/>
      </g>
     </g>
     <g id="text_19">
      <!-- 18 -->
      <g transform="translate(644.148471 404.638438) scale(0.1 -0.1)">
       <use xlink:href="#DejaVuSans-31"/>
       <use xlink:href="#DejaVuSans-38" transform="translate(63.623047 0)"/>
      </g>
     </g>
    </g>
    <g id="xtick_20">
     <g id="line2d_39">
      <path d="M 681.52689 390.04 
L 681.52689 26.16 
" clip-path="url(#p7affcffe58)" style="fill: none; stroke: #cccccc; stroke-opacity: 0.2; stroke-width: 0.8; stroke-linecap: square"/>
     </g>
     <g id="line2d_40">
      <g>
       <use xlink:href="#m62d990671e" x="681.52689" y="390.04" style="stroke: #000000; stroke-width: 0.8"/>
      </g>
     </g>
     <g id="text_20">
      <!-- 19 -->
      <g transform="translate(675.16439 404.638438) scale(0.1 -0.1)">
       <use xlink:href="#DejaVuSans-31"/>
       <use xlink:href="#DejaVuSans-39" transform="translate(63.623047 0)"/>
      </g>
     </g>
    </g>
    <g id="xtick_21">
     <g id="line2d_41">
      <path d="M 712.542809 390.04 
L 712.542809 26.16 
" clip-path="url(#p7affcffe58)" style="fill: none; stroke: #cccccc; stroke-opacity: 0.2; stroke-width: 0.8; stroke-linecap: square"/>
     </g>
     <g id="line2d_42">
      <g>
       <use xlink:href="#m62d990671e" x="712.542809" y="390.04" style="stroke: #000000; stroke-width: 0.8"/>
      </g>
     </g>
     <g id="text_21">
      <!-- 20 -->
      <g transform="translate(706.180309 404.638438) scale(0.1 -0.1)">
       <use xlink:href="#DejaVuSans-32"/>
       <use xlink:href="#DejaVuSans-30" transform="translate(63.623047 0)"/>
      </g>
     </g>
    </g>
    <g id="xtick_22">
     <g id="line2d_43">
      <path d="M 743.558727 390.04 
L 743.558727 26.16 
" clip-path="url(#p7affcffe58)" style="fill: none; stroke: #cccccc; stroke-opacity: 0.2; stroke-width: 0.8; stroke-linecap: square"/>
     </g>
     <g id="line2d_44">
      <g>
       <use xlink:href="#m62d990671e" x="743.558727" y="390.04" style="stroke: #000000; stroke-width: 0.8"/>
      </g>
     </g>
     <g id="text_22">
      <!-- 21 -->
      <g transform="translate(737.196227 404.638438) scale(0.1 -0.1)">
       <use xlink:href="#DejaVuSans-32"/>
       <use xlink:href="#DejaVuSans-31" transform="translate(63.623047 0)"/>
      </g>
     </g>
    </g>
    <g id="xtick_23">
     <g id="line2d_45">
      <path d="M 774.574646 390.04 
L 774.574646 26.16 
" clip-path="url(#p7affcffe58)" style="fill: none; stroke: #cccccc; stroke-opacity: 0.2; stroke-width: 0.8; stroke-linecap: square"/>
     </g>
     <g id="line2d_46">
      <g>
       <use xlink:href="#m62d990671e" x="774.574646" y="390.04" style="stroke: #000000; stroke-width: 0.8"/>
      </g>
     </g>
     <g id="text_23">
      <!-- 22 -->
      <g transform="translate(768.212146 404.638438) scale(0.1 -0.1)">
       <use xlink:href="#DejaVuSans-32"/>
       <use xlink:href="#DejaVuSans-32" transform="translate(63.623047 0)"/>
      </g>
     </g>
    </g>
    <g id="xtick_24">
     <g id="line2d_47">
      <path d="M 805.590565 390.04 
L 805.590565 26.16 
" clip-path="url(#p7affcffe58)" style="fill: none; stroke: #cccccc; stroke-opacity: 0.2; stroke-width: 0.8; stroke-linecap: square"/>
     </g>
     <g id="line2d_48">
      <g>
       <use xlink:href="#m62d990671e" x="805.590565" y="390.04" style="stroke: #000000; stroke-width: 0.8"/>
      </g>
     </g>
     <g id="text_24">
      <!-- 23 -->
      <g transform="translate(799.228065 404.638438) scale(0.1 -0.1)">
       <use xlink:href="#DejaVuSans-32"/>
       <use xlink:href="#DejaVuSans-33" transform="translate(63.623047 0)"/>
      </g>
     </g>
    </g>
    <g id="text_25">
     <!-- Hour of Day -->
     <g transform="translate(418.992656 418.316562) scale(0.1 -0.1)">
      <defs>
       <path id="DejaVuSans-48" d="M 628 4666 
L 1259 4666 
L 1259 2753 
L 3553 2753 
L 3553 4666 
L 4184 4666 
L 4184 0 
L 3553 0 
L 3553 2222 
L 1259 2222 
L 1259 0 
L 628 0 
L 628 4666 
z
" transform="scale(0.015625)"/>
       <path id="DejaVuSans-6f" d="M 1959 3097 
Q 1497 3097 1228 2736 
Q 959 2375 959 1747 
Q 959 1119 1226 758 
Q 1494 397 1959 397 
Q 2419 397 2687 759 
Q 2956 1122 2956 1747 
Q 2956 2369 2687 2733 
Q 2419 3097 1959 3097 
z
M 1959 3584 
Q 2709 3584 3137 3096 
Q 3566 2609 3566 1747 
Q 3566 888 3137 398 
Q 2709 -91 1959 -91 
Q 1206 -91 779 398 
Q 353 888 353 1747 
Q 353 2609 779 3096 
Q 1206 3584 1959 3584 
z
" transform="scale(0.015625)"/>
       <path id="DejaVuSans-75" d="M 544 1381 
L 544 3500 
L 1119 3500 
L 1119 1403 
Q 1119 906 1312 657 
Q 1506 409 1894 409 
Q 2359 409 2629 706 
Q 2900 1003 2900 1516 
L 2900 3500 
L 3475 3500 
L 3475 0 
L 2900 0 
L 2900 538 
Q 2691 219 2414 64 
Q 2138 -91 1772 -91 
Q 1169 -91 856 284 
Q 544 659 544 1381 
z
M 1991 3584 
L 1991 3584 
z
" transform="scale(0.015625)"/>
       <path id="DejaVuSans-72" d="M 2631 2963 
Q 2534 3019 2420 3045 
Q 2306 3072 2169 3072 
Q 1681 3072 1420 2755 
Q 1159 2438 1159 1844 
L 1159 0 
L 581 0 
L 581 3500 
L 1159 3500 
L 1159 2956 
Q 1341 3275 1631 3429 
Q 1922 3584 2338 3584 
Q 2397 3584 2469 3576 
Q 2541 3569 2628 3553 
L 2631 2963 
z
" transform="scale(0.015625)"/>
       <path id="DejaVuSans-20" transform="scale(0.015625)"/>
       <path id="DejaVuSans-66" d="M 2375 4863 
L 2375 4384 
L 1825 4384 
Q 1516 4384 1395 4259 
Q 1275 4134 1275 3809 
L 1275 3500 
L 2222 3500 
L 2222 3053 
L 1275 3053 
L 1275 0 
L 697 0 
L 697 3053 
L 147 3053 
L 147 3500 
L 697 3500 
L 697 3744 
Q 697 4328 969 4595 
Q 1241 4863 1831 4863 
L 2375 4863 
z
" transform="scale(0.015625)"/>
       <path id="DejaVuSans-44" d="M 1259 4147 
L 1259 519 
L 2022 519 
Q 2988 519 3436 956 
Q 3884 1394 3884 2338 
Q 3884 3275 3436 3711 
Q 2988 4147 2022 4147 
L 1259 4147 
z
M 628 4666 
L 1925 4666 
Q 3281 4666 3915 4102 
Q 4550 3538 4550 2338 
Q 4550 1131 3912 565 
Q 3275 0 1925 0 
L 628 0 
L 628 4666 
z
" transform="scale(0.015625)"/>
       <path id="DejaVuSans-61" d="M 2194 1759 
Q 1497 1759 1228 1600 
Q 959 1441 959 1056 
Q 959 750 1161 570 
Q 1363 391 1709 391 
Q 2188 391 2477 730 
Q 2766 1069 2766 1631 
L 2766 1759 
L 2194 1759 
z
M 3341 1997 
L 3341 0 
L 2766 0 
L 2766 531 
Q 2569 213 2275 61 
Q 1981 -91 1556 -91 
Q 1019 -91 701 211 
Q 384 513 384 1019 
Q 384 1609 779 1909 
Q 1175 2209 1959 2209 
L 2766 2209 
L 2766 2266 
Q 2766 2663 2505 2880 
Q 2244 3097 1772 3097 
Q 1472 3097 1187 3025 
Q 903 2953 641 2809 
L 641 3341 
Q 956 3463 1253 3523 
Q 1550 3584 1831 3584 
Q 2591 3584 2966 3190 
Q 3341 2797 3341 1997 
z
" transform="scale(0.015625)"/>
       <path id="DejaVuSans-79" d="M 2059 -325 
Q 1816 -950 1584 -1140 
Q 1353 -1331 966 -1331 
L 506 -1331 
L 506 -850 
L 844 -850 
Q 1081 -850 1212 -737 
Q 1344 -625 1503 -206 
L 1606 56 
L 191 3500 
L 800 3500 
L 1894 763 
L 2988 3500 
L 3597 3500 
L 2059 -325 
z
" transform="scale(0.015625)"/>
      </defs>
      <use xlink:href="#DejaVuSans-48"/>
      <use xlink:href="#DejaVuSans-6f" transform="translate(75.195312 0)"/>
      <use xlink:href="#DejaVuSans-75" transform="translate(136.376953 0)"/>
      <use xlink:href="#DejaVuSans-72" transform="translate(199.755859 0)"/>
      <use xlink:href="#DejaVuSans-20" transform="translate(240.869141 0)"/>
      <use xlink:href="#DejaVuSans-6f" transform="translate(272.65625 0)"/>
      <use xlink:href="#DejaVuSans-66" transform="translate(333.837891 0)"/>
      <use xlink:href="#DejaVuSans-20" transform="translate(369.042969 0)"/>
      <use xlink:href="#DejaVuSans-44" transform="translate(400.830078 0)"/>
      <use xlink:href="#DejaVuSans-61" transform="translate(477.832031 0)"/>
      <use xlink:href="#DejaVuSans-79" transform="translate(539.111328 0)"/>
     </g>
    </g>
   </g>
   <g id="matplotlib.axis_2">
    <g id="ytick_1">
     <g id="line2d_49">
      <defs>
       <path id="mf9b3e86dcf" d="M 0 0 
L -3.5 0 
" style="stroke: #000000; stroke-width: 0.8"/>
      </defs>
      <g>
       <use xlink:href="#mf9b3e86dcf" x="44.615" y="390.04" style="stroke: #000000; stroke-width: 0.8"/>
      </g>
     </g>
     <g id="text_26">
      <!-- 0 -->
      <g transform="translate(31.2525 393.839219) scale(0.1 -0.1)">
       <use xlink:href="#DejaVuSans-30"/>
      </g>
     </g>
    </g>
    <g id="ytick_2">
     <g id="line2d_50">
      <g>
       <use xlink:href="#mf9b3e86dcf" x="44.615" y="326.731541" style="stroke: #000000; stroke-width: 0.8"/>
      </g>
     </g>
     <g id="text_27">
      <!-- 5 -->
      <g transform="translate(31.2525 330.53076) scale(0.1 -0.1)">
       <use xlink:href="#DejaVuSans-35"/>
      </g>
     </g>
    </g>
    <g id="ytick_3">
     <g id="line2d_51">
      <g>
       <use xlink:href="#mf9b3e86dcf" x="44.615" y="263.423082" style="stroke: #000000; stroke-width: 0.8"/>
      </g>
     </g>
     <g id="text_28">
      <!-- 10 -->
      <g transform="translate(24.89 267.2223) scale(0.1 -0.1)">
       <use xlink:href="#DejaVuSans-31"/>
       <use xlink:href="#DejaVuSans-30" transform="translate(63.623047 0)"/>
      </g>
     </g>
    </g>
    <g id="ytick_4">
     <g id="line2d_52">
      <g>
       <use xlink:href="#mf9b3e86dcf" x="44.615" y="200.114623" style="stroke: #000000; stroke-width: 0.8"/>
      </g>
     </g>
     <g id="text_29">
      <!-- 15 -->
      <g transform="translate(24.89 203.913841) scale(0.1 -0.1)">
       <use xlink:href="#DejaVuSans-31"/>
       <use xlink:href="#DejaVuSans-35" transform="translate(63.623047 0)"/>
      </g>
     </g>
    </g>
    <g id="ytick_5">
     <g id="line2d_53">
      <g>
       <use xlink:href="#mf9b3e86dcf" x="44.615" y="136.806163" style="stroke: #000000; stroke-width: 0.8"/>
      </g>
     </g>
     <g id="text_30">
      <!-- 20 -->
      <g transform="translate(24.89 140.605382) scale(0.1 -0.1)">
       <use xlink:href="#DejaVuSans-32"/>
       <use xlink:href="#DejaVuSans-30" transform="translate(63.623047 0)"/>
      </g>
     </g>
    </g>
    <g id="ytick_6">
     <g id="line2d_54">
      <g>
       <use xlink:href="#mf9b3e86dcf" x="44.615" y="73.497704" style="stroke: #000000; stroke-width: 0.8"/>
      </g>
     </g>
     <g id="text_31">
      <!-- 25 -->
      <g transform="translate(24.89 77.296923) scale(0.1 -0.1)">
       <use xlink:href="#DejaVuSans-32"/>
       <use xlink:href="#DejaVuSans-35" transform="translate(63.623047 0)"/>
      </g>
     </g>
    </g>
    <g id="text_32">
     <!-- WMAPE (%) -->
     <g transform="translate(18.810313 237.19375) rotate(-90) scale(0.1 -0.1)">
      <defs>
       <path id="DejaVuSans-57" d="M 213 4666 
L 850 4666 
L 1831 722 
L 2809 4666 
L 3519 4666 
L 4500 722 
L 5478 4666 
L 6119 4666 
L 4947 0 
L 4153 0 
L 3169 4050 
L 2175 0 
L 1381 0 
L 213 4666 
z
" transform="scale(0.015625)"/>
       <path id="DejaVuSans-4d" d="M 628 4666 
L 1569 4666 
L 2759 1491 
L 3956 4666 
L 4897 4666 
L 4897 0 
L 4281 0 
L 4281 4097 
L 3078 897 
L 2444 897 
L 1241 4097 
L 1241 0 
L 628 0 
L 628 4666 
z
" transform="scale(0.015625)"/>
       <path id="DejaVuSans-41" d="M 2188 4044 
L 1331 1722 
L 3047 1722 
L 2188 4044 
z
M 1831 4666 
L 2547 4666 
L 4325 0 
L 3669 0 
L 3244 1197 
L 1141 1197 
L 716 0 
L 50 0 
L 1831 4666 
z
" transform="scale(0.015625)"/>
       <path id="DejaVuSans-50" d="M 1259 4147 
L 1259 2394 
L 2053 2394 
Q 2494 2394 2734 2622 
Q 2975 2850 2975 3272 
Q 2975 3691 2734 3919 
Q 2494 4147 2053 4147 
L 1259 4147 
z
M 628 4666 
L 2053 4666 
Q 2838 4666 3239 4311 
Q 3641 3956 3641 3272 
Q 3641 2581 3239 2228 
Q 2838 1875 2053 1875 
L 1259 1875 
L 1259 0 
L 628 0 
L 628 4666 
z
" transform="scale(0.015625)"/>
       <path id="DejaVuSans-45" d="M 628 4666 
L 3578 4666 
L 3578 4134 
L 1259 4134 
L 1259 2753 
L 3481 2753 
L 3481 2222 
L 1259 2222 
L 1259 531 
L 3634 531 
L 3634 0 
L 628 0 
L 628 4666 
z
" transform="scale(0.015625)"/>
       <path id="DejaVuSans-28" d="M 1984 4856 
Q 1566 4138 1362 3434 
Q 1159 2731 1159 2009 
Q 1159 1288 1364 580 
Q 1569 -128 1984 -844 
L 1484 -844 
Q 1016 -109 783 600 
Q 550 1309 550 2009 
Q 550 2706 781 3412 
Q 1013 4119 1484 4856 
L 1984 4856 
z
" transform="scale(0.015625)"/>
       <path id="DejaVuSans-25" d="M 4653 2053 
Q 4381 2053 4226 1822 
Q 4072 1591 4072 1178 
Q 4072 772 4226 539 
Q 4381 306 4653 306 
Q 4919 306 5073 539 
Q 5228 772 5228 1178 
Q 5228 1588 5073 1820 
Q 4919 2053 4653 2053 
z
M 4653 2450 
Q 5147 2450 5437 2106 
Q 5728 1763 5728 1178 
Q 5728 594 5436 251 
Q 5144 -91 4653 -91 
Q 4153 -91 3862 251 
Q 3572 594 3572 1178 
Q 3572 1766 3864 2108 
Q 4156 2450 4653 2450 
z
M 1428 4353 
Q 1159 4353 1004 4120 
Q 850 3888 850 3481 
Q 850 3069 1003 2837 
Q 1156 2606 1428 2606 
Q 1700 2606 1854 2837 
Q 2009 3069 2009 3481 
Q 2009 3884 1853 4118 
Q 1697 4353 1428 4353 
z
M 4250 4750 
L 4750 4750 
L 1831 -91 
L 1331 -91 
L 4250 4750 
z
M 1428 4750 
Q 1922 4750 2215 4408 
Q 2509 4066 2509 3481 
Q 2509 2891 2217 2550 
Q 1925 2209 1428 2209 
Q 931 2209 642 2551 
Q 353 2894 353 3481 
Q 353 4063 643 4406 
Q 934 4750 1428 4750 
z
" transform="scale(0.015625)"/>
       <path id="DejaVuSans-29" d="M 513 4856 
L 1013 4856 
Q 1481 4119 1714 3412 
Q 1947 2706 1947 2009 
Q 1947 1309 1714 600 
Q 1481 -109 1013 -844 
L 513 -844 
Q 928 -128 1133 580 
Q 1338 1288 1338 2009 
Q 1338 2731 1133 3434 
Q 928 4138 513 4856 
z
" transform="scale(0.015625)"/>
      </defs>
      <use xlink:href="#DejaVuSans-57"/>
      <use xlink:href="#DejaVuSans-4d" transform="translate(98.876953 0)"/>
      <use xlink:href="#DejaVuSans-41" transform="translate(185.15625 0)"/>
      <use xlink:href="#DejaVuSans-50" transform="translate(253.564453 0)"/>
      <use xlink:href="#DejaVuSans-45" transform="translate(313.867188 0)"/>
      <use xlink:href="#DejaVuSans-20" transform="translate(377.050781 0)"/>
      <use xlink:href="#DejaVuSans-28" transform="translate(408.837891 0)"/>
      <use xlink:href="#DejaVuSans-25" transform="translate(447.851562 0)"/>
      <use xlink:href="#DejaVuSans-29" transform="translate(542.871094 0)"/>
     </g>
    </g>
   </g>
   <g id="line2d_55">
    <path d="M 44.615 191.251438 
L 853.2 191.251438 
" clip-path="url(#p7affcffe58)" style="fill: none; stroke-dasharray: 3.7,1.6; stroke-dashoffset: 0; stroke: #4c6b8b; stroke-opacity: 0.6"/>
   </g>
   <g id="line2d_56">
    <path d="M 44.615 246.962882 
L 853.2 246.962882 
" clip-path="url(#p7affcffe58)" style="fill: none; stroke-dasharray: 3.7,1.6; stroke-dashoffset: 0; stroke: #e5b181; stroke-opacity: 0.6"/>
   </g>
   <g id="patch_51">
    <path d="M 44.615 390.04 
L 44.615 26.16 
" style="fill: none; stroke: #000000; stroke-width: 0.8; stroke-linejoin: miter; stroke-linecap: square"/>
   </g>
   <g id="patch_52">
    <path d="M 44.615 390.04 
L 853.2 390.04 
" style="fill: none; stroke: #000000; stroke-width: 0.8; stroke-linejoin: miter; stroke-linecap: square"/>
   </g>
   <g id="text_33">
    <!-- Price Forecast Accuracy by Hour — DAM vs RTM -->
    <g transform="translate(305.378125 20.16) scale(0.12 -0.12)">
     <defs>
      <path id="DejaVuSans-69" d="M 603 3500 
L 1178 3500 
L 1178 0 
L 603 0 
L 603 3500 
z
M 603 4863 
L 1178 4863 
L 1178 4134 
L 603 4134 
L 603 4863 
z
" transform="scale(0.015625)"/>
      <path id="DejaVuSans-63" d="M 3122 3366 
L 3122 2828 
Q 2878 2963 2633 3030 
Q 2388 3097 2138 3097 
Q 1578 3097 1268 2742 
Q 959 2388 959 1747 
Q 959 1106 1268 751 
Q 1578 397 2138 397 
Q 2388 397 2633 464 
Q 2878 531 3122 666 
L 3122 134 
Q 2881 22 2623 -34 
Q 2366 -91 2075 -91 
Q 1284 -91 818 406 
Q 353 903 353 1747 
Q 353 2603 823 3093 
Q 1294 3584 2113 3584 
Q 2378 3584 2631 3529 
Q 2884 3475 3122 3366 
z
" transform="scale(0.015625)"/>
      <path id="DejaVuSans-65" d="M 3597 1894 
L 3597 1613 
L 953 1613 
Q 991 1019 1311 708 
Q 1631 397 2203 397 
Q 2534 397 2845 478 
Q 3156 559 3463 722 
L 3463 178 
Q 3153 47 2828 -22 
Q 2503 -91 2169 -91 
Q 1331 -91 842 396 
Q 353 884 353 1716 
Q 353 2575 817 3079 
Q 1281 3584 2069 3584 
Q 2775 3584 3186 3129 
Q 3597 2675 3597 1894 
z
M 3022 2063 
Q 3016 2534 2758 2815 
Q 2500 3097 2075 3097 
Q 1594 3097 1305 2825 
Q 1016 2553 972 2059 
L 3022 2063 
z
" transform="scale(0.015625)"/>
      <path id="DejaVuSans-46" d="M 628 4666 
L 3309 4666 
L 3309 4134 
L 1259 4134 
L 1259 2759 
L 3109 2759 
L 3109 2228 
L 1259 2228 
L 1259 0 
L 628 0 
L 628 4666 
z
" transform="scale(0.015625)"/>
      <path id="DejaVuSans-73" d="M 2834 3397 
L 2834 2853 
Q 2591 2978 2328 3040 
Q 2066 3103 1784 3103 
Q 1356 3103 1142 2972 
Q 928 2841 928 2578 
Q 928 2378 1081 2264 
Q 1234 2150 1697 2047 
L 1894 2003 
Q 2506 1872 2764 1633 
Q 3022 1394 3022 966 
Q 3022 478 2636 193 
Q 2250 -91 1575 -91 
Q 1294 -91 989 -36 
Q 684 19 347 128 
L 347 722 
Q 666 556 975 473 
Q 1284 391 1588 391 
Q 1994 391 2212 530 
Q 2431 669 2431 922 
Q 2431 1156 2273 1281 
Q 2116 1406 1581 1522 
L 1381 1569 
Q 847 1681 609 1914 
Q 372 2147 372 2553 
Q 372 3047 722 3315 
Q 1072 3584 1716 3584 
Q 2034 3584 2315 3537 
Q 2597 3491 2834 3397 
z
" transform="scale(0.015625)"/>
      <path id="DejaVuSans-74" d="M 1172 4494 
L 1172 3500 
L 2356 3500 
L 2356 3053 
L 1172 3053 
L 1172 1153 
Q 1172 725 1289 603 
Q 1406 481 1766 481 
L 2356 481 
L 2356 0 
L 1766 0 
Q 1100 0 847 248 
Q 594 497 594 1153 
L 594 3053 
L 172 3053 
L 172 3500 
L 594 3500 
L 594 4494 
L 1172 4494 
z
" transform="scale(0.015625)"/>
      <path id="DejaVuSans-62" d="M 3116 1747 
Q 3116 2381 2855 2742 
Q 2594 3103 2138 3103 
Q 1681 3103 1420 2742 
Q 1159 2381 1159 1747 
Q 1159 1113 1420 752 
Q 1681 391 2138 391 
Q 2594 391 2855 752 
Q 3116 1113 3116 1747 
z
M 1159 2969 
Q 1341 3281 1617 3432 
Q 1894 3584 2278 3584 
Q 2916 3584 3314 3078 
Q 3713 2572 3713 1747 
Q 3713 922 3314 415 
Q 2916 -91 2278 -91 
Q 1894 -91 1617 61 
Q 1341 213 1159 525 
L 1159 0 
L 581 0 
L 581 4863 
L 1159 4863 
L 1159 2969 
z
" transform="scale(0.015625)"/>
      <path id="DejaVuSans-2014" d="M 313 1978 
L 6088 1978 
L 6088 1528 
L 313 1528 
L 313 1978 
z
" transform="scale(0.015625)"/>
      <path id="DejaVuSans-76" d="M 191 3500 
L 800 3500 
L 1894 563 
L 2988 3500 
L 3597 3500 
L 2284 0 
L 1503 0 
L 191 3500 
z
" transform="scale(0.015625)"/>
      <path id="DejaVuSans-52" d="M 2841 2188 
Q 3044 2119 3236 1894 
Q 3428 1669 3622 1275 
L 4263 0 
L 3584 0 
L 2988 1197 
Q 2756 1666 2539 1819 
Q 2322 1972 1947 1972 
L 1259 1972 
L 1259 0 
L 628 0 
L 628 4666 
L 2053 4666 
Q 2853 4666 3247 4331 
Q 3641 3997 3641 3322 
Q 3641 2881 3436 2590 
Q 3231 2300 2841 2188 
z
M 1259 4147 
L 1259 2491 
L 2053 2491 
Q 2509 2491 2742 2702 
Q 2975 2913 2975 3322 
Q 2975 3731 2742 3939 
Q 2509 4147 2053 4147 
L 1259 4147 
z
" transform="scale(0.015625)"/>
      <path id="DejaVuSans-54" d="M -19 4666 
L 3928 4666 
L 3928 4134 
L 2272 4134 
L 2272 0 
L 1638 0 
L 1638 4134 
L -19 4134 
L -19 4666 
z
" transform="scale(0.015625)"/>
     </defs>
     <use xlink:href="#DejaVuSans-50"/>
     <use xlink:href="#DejaVuSans-72" transform="translate(58.552734 0)"/>
     <use xlink:href="#DejaVuSans-69" transform="translate(99.666016 0)"/>
     <use xlink:href="#DejaVuSans-63" transform="translate(127.449219 0)"/>
     <use xlink:href="#DejaVuSans-65" transform="translate(182.429688 0)"/>
     <use xlink:href="#DejaVuSans-20" transform="translate(243.953125 0)"/>
     <use xlink:href="#DejaVuSans-46" transform="translate(275.740234 0)"/>
     <use xlink:href="#DejaVuSans-6f" transform="translate(329.634766 0)"/>
     <use xlink:href="#DejaVuSans-72" transform="translate(390.816406 0)"/>
     <use xlink:href="#DejaVuSans-65" transform="translate(429.679688 0)"/>
     <use xlink:href="#DejaVuSans-63" transform="translate(491.203125 0)"/>
     <use xlink:href="#DejaVuSans-61" transform="translate(546.183594 0)"/>
     <use xlink:href="#DejaVuSans-73" transform="translate(607.462891 0)"/>
     <use xlink:href="#DejaVuSans-74" transform="translate(659.5625 0)"/>
     <use xlink:href="#DejaVuSans-20" transform="translate(698.771484 0)"/>
     <use xlink:href="#DejaVuSans-41" transform="translate(730.558594 0)"/>
     <use xlink:href="#DejaVuSans-63" transform="translate(797.216797 0)"/>
     <use xlink:href="#DejaVuSans-63" transform="translate(852.197266 0)"/>
     <use xlink:href="#DejaVuSans-75" transform="translate(907.177734 0)"/>
     <use xlink:href="#DejaVuSans-72" transform="translate(970.556641 0)"/>
     <use xlink:href="#DejaVuSans-61" transform="translate(1011.669922 0)"/>
     <use xlink:href="#DejaVuSans-63" transform="translate(1072.949219 0)"/>
     <use xlink:href="#DejaVuSans-79" transform="translate(1127.929688 0)"/>
     <use xlink:href="#DejaVuSans-20" transform="translate(1187.109375 0)"/>
     <use xlink:href="#DejaVuSans-62" transform="translate(1218.896484 0)"/>
     <use xlink:href="#DejaVuSans-79" transform="translate(1282.373047 0)"/>
     <use xlink:href="#DejaVuSans-20" transform="translate(1341.552734 0)"/>
     <use xlink:href="#DejaVuSans-48" transform="translate(1373.339844 0)"/>
     <use xlink:href="#DejaVuSans-6f" transform="translate(1448.535156 0)"/>
     <use xlink:href="#DejaVuSans-75" transform="translate(1509.716797 0)"/>
     <use xlink:href="#DejaVuSans-72" transform="translate(1573.095703 0)"/>
     <use xlink:href="#DejaVuSans-20" transform="translate(1614.208984 0)"/>
     <use xlink:href="#DejaVuSans-2014" transform="translate(1645.996094 0)"/>
     <use xlink:href="#DejaVuSans-20" transform="translate(1745.996094 0)"/>
     <use xlink:href="#DejaVuSans-44" transform="translate(1777.783203 0)"/>
     <use xlink:href="#DejaVuSans-41" transform="translate(1853.035156 0)"/>
     <use xlink:href="#DejaVuSans-4d" transform="translate(1921.443359 0)"/>
     <use xlink:href="#DejaVuSans-20" transform="translate(2007.722656 0)"/>
     <use xlink:href="#DejaVuSans-76" transform="translate(2039.509766 0)"/>
     <use xlink:href="#DejaVuSans-73" transform="translate(2098.689453 0)"/>
     <use xlink:href="#DejaVuSans-20" transform="translate(2150.789062 0)"/>
     <use xlink:href="#DejaVuSans-52" transform="translate(2182.576172 0)"/>
     <use xlink:href="#DejaVuSans-54" transform="translate(2244.808594 0)"/>
     <use xlink:href="#DejaVuSans-4d" transform="translate(2305.892578 0)"/>
    </g>
   </g>
   <g id="legend_1">
    <g id="line2d_57">
     <path d="M 711.540625 39.258437 
L 721.540625 39.258437 
L 731.540625 39.258437 
" style="fill: none; stroke-dasharray: 3.7,1.6; stroke-dashoffset: 0; stroke: #4c6b8b; stroke-opacity: 0.6"/>
    </g>
    <g id="text_34">
     <!-- Overall DAM (15.7%) -->
     <g transform="translate(739.540625 42.758437) scale(0.1 -0.1)">
      <defs>
       <path id="DejaVuSans-4f" d="M 2522 4238 
Q 1834 4238 1429 3725 
Q 1025 3213 1025 2328 
Q 1025 1447 1429 934 
Q 1834 422 2522 422 
Q 3209 422 3611 934 
Q 4013 1447 4013 2328 
Q 4013 3213 3611 3725 
Q 3209 4238 2522 4238 
z
M 2522 4750 
Q 3503 4750 4090 4092 
Q 4678 3434 4678 2328 
Q 4678 1225 4090 567 
Q 3503 -91 2522 -91 
Q 1538 -91 948 565 
Q 359 1222 359 2328 
Q 359 3434 948 4092 
Q 1538 4750 2522 4750 
z
" transform="scale(0.015625)"/>
       <path id="DejaVuSans-6c" d="M 603 4863 
L 1178 4863 
L 1178 0 
L 603 0 
L 603 4863 
z
" transform="scale(0.015625)"/>
       <path id="DejaVuSans-2e" d="M 684 794 
L 1344 794 
L 1344 0 
L 684 0 
L 684 794 
z
" transform="scale(0.015625)"/>
      </defs>
      <use xlink:href="#DejaVuSans-4f"/>
      <use xlink:href="#DejaVuSans-76" transform="translate(78.710938 0)"/>
      <use xlink:href="#DejaVuSans-65" transform="translate(137.890625 0)"/>
      <use xlink:href="#DejaVuSans-72" transform="translate(199.414062 0)"/>
      <use xlink:href="#DejaVuSans-61" transform="translate(240.527344 0)"/>
      <use xlink:href="#DejaVuSans-6c" transform="translate(301.806641 0)"/>
      <use xlink:href="#DejaVuSans-6c" transform="translate(329.589844 0)"/>
      <use xlink:href="#DejaVuSans-20" transform="translate(357.373047 0)"/>
      <use xlink:href="#DejaVuSans-44" transform="translate(389.160156 0)"/>
      <use xlink:href="#DejaVuSans-41" transform="translate(464.412109 0)"/>
      <use xlink:href="#DejaVuSans-4d" transform="translate(532.820312 0)"/>
      <use xlink:href="#DejaVuSans-20" transform="translate(619.099609 0)"/>
      <use xlink:href="#DejaVuSans-28" transform="translate(650.886719 0)"/>
      <use xlink:href="#DejaVuSans-31" transform="translate(689.900391 0)"/>
      <use xlink:href="#DejaVuSans-35" transform="translate(753.523438 0)"/>
      <use xlink:href="#DejaVuSans-2e" transform="translate(817.146484 0)"/>
      <use xlink:href="#DejaVuSans-37" transform="translate(848.933594 0)"/>
      <use xlink:href="#DejaVuSans-25" transform="translate(912.556641 0)"/>
      <use xlink:href="#DejaVuSans-29" transform="translate(1007.576172 0)"/>
     </g>
    </g>
    <g id="line2d_58">
     <path d="M 711.540625 53.936562 
L 721.540625 53.936562 
L 731.540625 53.936562 
" style="fill: none; stroke-dasharray: 3.7,1.6; stroke-dashoffset: 0; stroke: #e5b181; stroke-opacity: 0.6"/>
    </g>
    <g id="text_35">
     <!-- Overall RTM (11.3%) -->
     <g transform="translate(739.540625 57.436562) scale(0.1 -0.1)">
      <use xlink:href="#DejaVuSans-4f"/>
      <use xlink:href="#DejaVuSans-76" transform="translate(78.710938 0)"/>
      <use xlink:href="#DejaVuSans-65" transform="translate(137.890625 0)"/>
      <use xlink:href="#DejaVuSans-72" transform="translate(199.414062 0)"/>
      <use xlink:href="#DejaVuSans-61" transform="translate(240.527344 0)"/>
      <use xlink:href="#DejaVuSans-6c" transform="translate(301.806641 0)"/>
      <use xlink:href="#DejaVuSans-6c" transform="translate(329.589844 0)"/>
      <use xlink:href="#DejaVuSans-20" transform="translate(357.373047 0)"/>
      <use xlink:href="#DejaVuSans-52" transform="translate(389.160156 0)"/>
      <use xlink:href="#DejaVuSans-54" transform="translate(451.392578 0)"/>
      <use xlink:href="#DejaVuSans-4d" transform="translate(512.476562 0)"/>
      <use xlink:href="#DejaVuSans-20" transform="translate(598.755859 0)"/>
      <use xlink:href="#DejaVuSans-28" transform="translate(630.542969 0)"/>
      <use xlink:href="#DejaVuSans-31" transform="translate(669.556641 0)"/>
      <use xlink:href="#DejaVuSans-31" transform="translate(733.179688 0)"/>
      <use xlink:href="#DejaVuSans-2e" transform="translate(796.802734 0)"/>
      <use xlink:href="#DejaVuSans-33" transform="translate(828.589844 0)"/>
      <use xlink:href="#DejaVuSans-25" transform="translate(892.212891 0)"/>
      <use xlink:href="#DejaVuSans-29" transform="translate(987.232422 0)"/>
     </g>
    </g>
    <g id="patch_53">
     <path d="M 711.540625 72.114687 
L 731.540625 72.114687 
L 731.540625 65.114687 
L 711.540625 65.114687 
z
" style="fill: #4c6b8b; opacity: 0.8"/>
    </g>
    <g id="text_36">
     <!-- DAM -->
     <g transform="translate(739.540625 72.114687) scale(0.1 -0.1)">
      <use xlink:href="#DejaVuSans-44"/>
      <use xlink:href="#DejaVuSans-41" transform="translate(75.251953 0)"/>
      <use xlink:href="#DejaVuSans-4d" transform="translate(143.660156 0)"/>
     </g>
    </g>
    <g id="patch_54">
     <path d="M 711.540625 86.792812 
L 731.540625 86.792812 
L 731.540625 79.792812 
L 711.540625 79.792812 
z
" style="fill: #e5b181; opacity: 0.8"/>
    </g>
    <g id="text_37">
     <!-- RTM -->
     <g transform="translate(739.540625 86.792812) scale(0.1 -0.1)">
      <use xlink:href="#DejaVuSans-52"/>
      <use xlink:href="#DejaVuSans-54" transform="translate(62.232422 0)"/>
      <use xlink:href="#DejaVuSans-4d" transform="translate(123.316406 0)"/>
     </g>
    </g>
   </g>
  </g>
 </g>
 <defs>
  <clipPath id="p7affcffe58">
   <rect x="44.615" y="26.16" width="808.585" height="363.88"/>
  </clipPath>
 </defs>
</svg>
